<svg><defs><font id="CeraPro-Regular" horiz-adv-x="560"><font-face font-family="Cera Pro" font-weight="400" panose-1="0 0 5 0 0 0 0 0 0 0" ascent="808" descent="-192" x-height="487" cap-height="660" bbox="-444 -242 1303 1000" underline-thickness="65" underline-position="-164" unicode-range="U+0020-U+FB02"/><glyph glyph-name="fi" unicode="fi" horiz-adv-x="564" d="M174 598V486.999h122v-69H174v-418H97v418H27v69h70v116c0 52 14.167 91.333 42.5 118s67.833 40 118.5 40c20.667 0 41-2.667 61-8v-65c-16 2-30.333 3-43 3-34 0-59.5-7.167-76.5-21.5S174 631.333 174 598zM403-.001v487h77v-487h-77zm-19 673c0 15.333 5.668 28.5 17.001 39.5s25 16.5 41 16.5c15.333 0 28.666-5.5 39.999-16.5s17-24.167 17-39.5c0-16-5.5-29.333-16.5-40s-24.5-16-40.5-16-29.667 5.333-41 16-17 24-17 40z"/><glyph glyph-name="fl" unicode="fl" horiz-adv-x="564" d="M174 598V486.999h122v-69H174v-418H97v418H27v69h70v116c0 52 14.167 91.333 42.5 118s67.833 40 118.5 40c20.667 0 41-2.667 61-8v-65c-16 2-30.333 3-43 3-34 0-59.5-7.167-76.5-21.5S174 631.333 174 598zM403-.001v750h77v-750h-77z"/><glyph glyph-name=".notdef" horiz-adv-x="707" d="M91 660h525V0H91v660zM558 52v555H147z"/><glyph glyph-name="space" horiz-adv-x="280"/><glyph glyph-name="exclam" unicode="!" horiz-adv-x="305" d="m120 209-15 451h93l-14-451h-64zM89 52c0 18 6.167 33 18.5 45s27.166 18 44.499 18c18 0 33-6 45-18s18-27 18-45-6-33-18-45-27-18-45-18c-17.333 0-32.166 6-44.499 18S89 34 89 52z"/><glyph glyph-name="quotedbl" unicode="&quot;" horiz-adv-x="463" d="m94 403 14 257h90l-43-257H94zm183 0 14 257h90l-43-257h-61z"/><glyph glyph-name="numbersign" unicode="#" horiz-adv-x="597" d="M569 421h-97l-24-182h98v-66H439L415 0h-65l23 173H182L158 0H93l23 173H28v66h97l24 182H52v66h106l23 173h67l-24-173h191l23 173h67l-24-173h88v-66zM191 239h191l24 182H215z"/><glyph glyph-name="dollar" unicode="$" horiz-adv-x="536" d="m306 23-.002-117h-77V24c-80 11.333-143 57-189 137l56 40c45.333-74 104-111 176-111 36.667 0 66.334 8.5 89.001 25.5s34 40.167 34 69.5c0 22.667-7.833 41.667-23.5 57s-41.5 31.333-77.5 48l-71 30c-46 19.333-80.667 41.5-104 66.5s-35 56.5-35 94.5c0 39.333 13.333 72.5 40 99.5s61.667 43.833 105 50.5v119h77V633c66-9.333 117.333-45 154-107l-53-41c-34.667 53.333-79.667 80-135 80-31.333 0-57.5-7.167-78.5-21.5s-31.5-34.833-31.5-61.5c0-22.667 6.833-40.667 20.5-54s37.834-28.333 72.501-45l73-30c48.667-20 85-43.333 109-70s36-59 36-97c0-44-15.333-80.667-46-110s-71-47-121-53z"/><glyph glyph-name="percent" unicode="%" horiz-adv-x="842" d="M66 510c0 44.667 16 82.667 48 114s70.667 47 116 47c44.667 0 83-15.667 115-47s48-69.333 48-114-16-82.667-48-114-70.333-47-115-47c-45.333 0-84 15.667-116 47s-48 69.333-48 114zM198 0l378 660h69L267 0h-69zm131 510c0 29.333-9.333 54-28 74s-42.334 30-71.001 30-52.334-9.833-71.001-29.5-28-44.5-28-74.5 9.333-54.833 28-74.5 42.334-29.5 71.001-29.5 52.334 10 71.001 30 28 44.667 28 74zm121-359c0 44.667 15.667 82.667 47 114s69.666 47 114.999 47 84-15.667 116-47 48-69.333 48-114-16-82.667-48-114-70.667-47-116-47S528.333 5.667 497 37s-47 69.333-47 114zm261 0c0 30-9.333 54.833-28 74.5S641 255 613 255c-28.667 0-52.334-9.833-71.001-29.5s-28-44.5-28-74.5c0-29.333 9.333-53.833 28-73.5S584.333 48 613 48c28 0 51.333 9.833 70 29.5s28 44.167 28 73.5z"/><glyph glyph-name="ampersand" unicode="&amp;" horiz-adv-x="625" d="m602 292-11.001-17.003c-36.667-56-70-104.333-100-145l109-130h-94l-63 75c-57.333-57.333-121-86-191-86-58.667 0-107 16.333-145 49s-57 73.667-57 123c0 35.333 11 68.333 33 99 22.667 30.667 61.334 66.334 116.001 107.001-25.333 32.667-43.5 60.834-54.5 84.501S128 500 128 526c0 43.333 13.5 78.333 40.5 105S231 671 275 671c42 0 76.667-13 104-39 27.333-25.333 41-57.666 41-96.999 0-56.667-39.333-115.667-118-177l140-168c20 28 41.667 60.333 65 97l31 47zM203.999 525.997c0-32 18.665-71.001 55.998-117.001 30.667 24.667 52.334 46.334 65.001 65.001s19 38 19 58c0 21.333-6.167 38-18.5 50s-29.166 18-50.499 18c-47.333 0-71-24.667-71-74zm190.998-393.001-151 181c-46.667-36.667-77-64-91-82s-21-39.333-21-64c0-31.333 11.5-57 34.5-77s52.167-30 87.5-30c50 0 97 24 141 72z"/><glyph glyph-name="quotesingle" unicode="'" horiz-adv-x="280" d="m94 403 14 257h90l-43-257H94z"/><glyph glyph-name="parenleft" unicode="(" horiz-adv-x="333" d="M78 301c0 122.667 18.333 218.333 55 287 37.333 70.667 83.666 119.334 138.999 146.001l33-53c-100.667-64.667-151-191.334-151-380.001 0-190 50.333-316.333 151-379l-33-53C216.666-104.333 170.333-56 133 14 96.333 83.333 78 179 78 301z"/><glyph glyph-name="parenright" unicode=")" horiz-adv-x="333" d="M62-131 28-77.996C129.333-14.663 180 111.67 180 301.003c0 187.333-50.667 314-152 380l34 53c54.667-26.667 100.667-75.334 138-146.001 36.667-68.667 55-164.334 55-287.001S236.667 82.667 200 14c-37.333-70-83.333-118.333-138-145z"/><glyph glyph-name="asterisk" unicode="*" horiz-adv-x="410" d="m364 644-94-64 94-64-25-41-102 49-8-113h-48l-9 113-102-49-24 41 94 64-94 64 24 42 102-49 9 113h48l8-113 102 49z"/><glyph glyph-name="plus" unicode="+" d="M244 88v193H56v68h188v190h76V349h183v-68H320V88h-76z"/><glyph glyph-name="comma" unicode="," horiz-adv-x="280" d="m90-179 13 269h91l-41-269H90z"/><glyph glyph-name="hyphen" unicode="-" horiz-adv-x="346" d="M53 282v65h239v-65H53z"/><glyph glyph-name="period" unicode="." horiz-adv-x="280" d="M77 52c0 18 6.167 33 18.5 45s27.166 18 44.499 18 32.166-6 44.499-18 18.5-27 18.5-45-6.167-33-18.5-45-27.166-18-44.499-18S107.833-5 95.5 7 77 34 77 52z"/><glyph glyph-name="slash" unicode="/" horiz-adv-x="628" d="m7-121 523 901h91L98-121H7z"/><glyph glyph-name="zero" unicode="0" horiz-adv-x="615" d="M66 336c0 101.333 20.335 182.333 61.002 243 41.333 61.333 101.666 92 180.999 92 80 0 140-30.667 180-92 40.667-60.667 61-141.667 61-243s-20-184.666-60-249.999c-40-64.667-100.333-97-181-97S166.667 21.334 126 86.001C86 151.334 66 234.667 66 336zm402.002-1c0 176-53.333 264-160 264-107.333 0-161-88-161-264 0-86.667 13.333-154 40-202s67-72 121-72 94.167 24 120.5 72 39.5 115.333 39.5 202z"/><glyph glyph-name="one" unicode="1" horiz-adv-x="379" d="M242 660h29V0h-78v568L49 523l-19 67z"/><glyph glyph-name="two" unicode="2" d="m195 70 311 .001v-70H47v20l235 250c42.667 44.667 72.667 81.167 90 109.5s26 57.5 26 87.5c0 37.333-11.667 68.666-35 93.999s-54 38-92 38c-40 0-72-13.333-96-40-24-27.333-36-59.333-36-96 0-18.667 2-37 6-55H65c-4.667 16.667-7 36-7 58 0 54.667 20 102.5 60 143.5S209 671 271 671c60 0 109.667-19.167 149-57.5s59-85.833 59-142.5c0-31.333-6.333-60.666-19-87.999-12-26-26.667-50.333-44-73S373.667 258.667 341 224z"/><glyph glyph-name="three" unicode="3" horiz-adv-x="538" d="M484 209c0-64.667-22.831-117.499-68.498-158.499s-100.834-61.5-165.501-61.5c-48.667 0-92.5 12.5-131.5 37.5s-69.833 58.167-92.5 99.5l55 39c47.333-69.333 103.333-104 168-104 45.333 0 82.333 13.5 111 40.5s43 62.5 43 106.5c0 42.667-14.5 76-43.5 100s-70.167 36-123.5 36h-65v23l173 221h-273v72h396v-23l-175-225c53.333-5.333 98.666-25.833 135.999-61.5S484 267.667 484 209z"/><glyph glyph-name="four" unicode="4" horiz-adv-x="548" d="M526 191v-68h-96V0h-78v123H21v22l217 515h80L120 191h232v220h78V191h96z"/><glyph glyph-name="five" unicode="5" horiz-adv-x="555" d="M501 209c0-64.667-22.999-117.5-68.999-158.5s-101-61.5-165-61.5c-50.667 0-95.5 12.167-134.5 36.5S62.334 83 39.001 125l54 40c45.333-69.333 103-104 173-104 44.667 0 81.5 13.667 110.5 41s43.5 62.666 43.5 105.999-14.5 77-43.5 101-70.5 36-124.5 36h-149v315h361v-70h-283v-185c33.333 5.333 64.666 8 93.999 8 64.667 0 118.5-17.667 161.5-53S501 274.333 501 209z"/><glyph glyph-name="six" unicode="6" horiz-adv-x="551" d="M500 211c0-62.667-21.832-115.33-65.499-157.997s-96.834-64-159.501-64-115.834 21.333-159.501 64-65.5 95.667-65.5 159c0 33.333 6 63.666 18 90.999 14.667 30 34.334 63 59.001 99 2.667 3.333 5.5 7.166 8.5 11.499s4.833 7.166 5.5 8.499l164 238h93L230 418c16 6 34.333 9 55 9 58.667 0 109.167-21 151.5-63S500 271 500 211zm-76.999.004c0 41.333-14.333 76.666-43 105.999s-63.667 44-105 44-76.333-14.667-105-44-43-64.666-43-105.999c0-42 14.333-77.667 43-107s63.667-44 105-44 76.333 14.667 105 44 43 65 43 107z"/><glyph glyph-name="seven" unicode="7" horiz-adv-x="501" d="M35 660h441v-23L142 0H57l314 590H35v70z"/><glyph glyph-name="eight" unicode="8" horiz-adv-x="578" d="M520 168c0-53.333-21.167-96.5-63.5-129.5S358.334-11 289.001-11s-125.5 16.667-168.5 50-64.5 76.666-64.5 129.999c0 80.667 52.333 139.334 157 176.001-84 38.667-126 92.667-126 162 0 51.333 19 91.333 57 120 39.333 29.333 87.666 44 144.999 44 56 0 103.333-14.667 142-44 38.667-28.667 58-68.667 58-120 0-70-42-123.667-126-161 104.667-38.667 157-98 157-178zM288 382c44 17.333 75.668 35.168 95.001 53.501s29 41.166 29 68.499c0 30.667-11.333 55-34 73S325.667 604 289 604c-37.333 0-67.5-9-90.5-27S164 534.667 164 504c0-26.667 9.667-49 29-67s51-36.333 95-55zm153.001-210.998c0 32.667-11.833 58.999-35.5 78.999s-62.5 39.667-116.5 59c-54-19.333-93.167-39.166-117.5-59.499s-36.5-46.5-36.5-78.5c0-34.667 13.667-62.5 41-83.5s65-31.5 113-31.5 85.333 10.333 112 31 40 48.667 40 84z"/><glyph glyph-name="nine" unicode="9" horiz-adv-x="551" d="M500 448c0-25.333-4-49.669-12-73.002-6.667-21.333-15.667-40.666-27-57.999-10.667-18-28-44.333-52-79l-164-238h-92l168 242c-16-6-34.667-9-56-9-58 0-108.333 21-151 63s-64 93-64 153C50 511.666 72 564.333 116 607s97.333 64 160 64c62 0 114.833-21.5 158.5-64.5S500 510.667 500 448zm-77 1.997c0 42.667-14 78.334-42 107.001s-63 43-105 43-77.333-14.333-106-43-43-64.334-43-107.001c0-42 14.333-77.667 43-107s64-44 106-44 77 14.667 105 44 42 65 42 107z"/><glyph glyph-name="colon" unicode=":" horiz-adv-x="280" d="M77 429c0 18 6.167 33 18.5 45s27.166 18 44.499 18 32.166-6 44.499-18 18.5-27 18.5-45-6.167-33-18.5-45-27.166-18-44.499-18-32.166 6-44.499 18S77 411 77 429zm0-377c0 18 6.167 33 18.5 45s27.166 18 44.499 18 32.166-6 44.499-18 18.5-27 18.5-45-6.167-33-18.5-45-27.166-18-44.499-18S107.833-5 95.5 7 77 34 77 52z"/><glyph glyph-name="semicolon" unicode=";" horiz-adv-x="280" d="M77 429c0 18 6.167 33 18.5 45s27.166 18 44.499 18 32.166-6 44.499-18 18.5-27 18.5-45-6.167-33-18.5-45-27.166-18-44.499-18-32.166 6-44.499 18S77 411 77 429zm13-608 13 269h91l-41-269H90z"/><glyph glyph-name="less" unicode="&lt;" d="M490 514v-72L188 315l302-126v-73L52 303v24z"/><glyph glyph-name="equal" unicode="=" d="M66 384v69h428v-69H66zm0-207v68h428v-68H66z"/><glyph glyph-name="greater" unicode="&gt;" d="m70 514 439-187v-24L70 116v73l302 126L70 442v72z"/><glyph glyph-name="question" unicode="?" horiz-adv-x="445" d="M162 253c0 21.333 6 40.499 18 57.499s32.667 38.833 62 65.5c30 28 50.333 49.667 61 65 11.333 16.667 17 36 17 58 0 29.333-9.333 53.5-28 72.5s-42 28.5-70 28.5c-54.667 0-92-32-112-96l-65 27c13.333 44.667 35.5 79.167 66.5 103.5s68.5 36.5 112.5 36.5c48.667 0 90.167-16 124.5-48s51.5-71.667 51.5-119c0-29.333-7.5-56.166-22.5-80.499S338.333 372 305 342c-28-26-46.833-45.5-56.5-58.5S234 256.333 234 241c0-4.667 1.667-15.334 5-32.001h-67c-6.667 12.667-10 27.334-10 44.001zM147 51.999c0 17.333 6.333 32.168 19 44.501s27.334 18.5 44.001 18.5c18 0 33.167-6 45.5-18s18.5-27 18.5-45-6.167-33-18.5-45-27.5-18-45.5-18C193.334-11 178.667-4.833 166 7.5s-19 27.166-19 44.499z"/><glyph glyph-name="at" unicode="@" horiz-adv-x="922" d="M874 286c0-77.333-23.668-138.333-71.001-183s-109-67-185-67h-24v65c-15.333-24-36.5-42.667-63.5-56s-56.5-20-88.5-20c-56.667 0-104 20.5-142 61.5s-57 91.5-57 151.5 19 110.333 57 151 85.667 61 143 61c63.333 0 111.666-22 144.999-66v58h72V104c44.667 3.333 79.834 20.833 105.501 52.5s38.5 74.834 38.5 129.501c1.333 86-29.5 158.667-92.5 218s-141.833 88.333-236.5 87c-100.667 1.333-185.334-31.167-254.001-97.5s-102.334-148.5-101.001-246.5c-1.333-98 32.334-180.333 101.001-247S372.332-99.333 468.999-98c46.667 0 90 7.333 130 22l14-60c-46-18-96.333-27-151-27-74-1.333-143.167 16.167-207.5 52.5S139.333-24.167 102 39.5 46.667 172 48 246c-1.333 75.333 17.167 145 55.5 209S194 569 260 605s137 53.333 213 52c111.333 2 206.5-34.167 285.5-108.5S876 386.667 874 286zm-290.001-47c0 44.667-12.17 79.5-36.503 104.5S492.33 381 454.997 381c-38 0-69.667-13.333-95-40s-38-61-38-103c0-40.667 12.667-74.667 38-102 24.667-26.667 56.334-40 95.001-40 36.667 0 67.334 12.667 92.001 38s37 60.333 37 105z"/><glyph glyph-name="A" unicode="A" horiz-adv-x="663" d="m549 0-56 134H169L113 0H31l286 671h29L632 0h-83zm-86 204L331 529 199 204h264z"/><glyph glyph-name="B" unicode="B" horiz-adv-x="616" d="M572 190c0-56-19.002-101.667-57.002-137s-88.667-53-152-53h-272v660h227c56.667 0 102.334-15.667 137.001-47 34-31.333 51-71.333 51-120 0-54-21-97.333-63-130 40.667-12 72.334-33.167 95.001-63.5s34-66.833 34-109.5zM309.998 590h-141V385h141c37.333 0 66 9.167 86 27.5s30 43.5 30 75.5-10 57-30 75-48.667 27-86 27zm182-398c0 37.333-12.167 67-36.5 89s-57.833 33-100.5 33h-186V70h186c42.667 0 76.167 11 100.5 33s36.5 51.667 36.5 89z"/><glyph glyph-name="C" unicode="C" horiz-adv-x="715" d="M48 330c-2 94 31.167 174.667 99.5 242S297 672.333 391 671c58 0 111.167-12.667 159.5-38S637 573 665 529l-58-46c-54 77.333-125.667 116-215 116-74.667 0-137.167-25.667-187.5-77S129 406.667 129 330s25.167-140.667 75.5-192S317.333 61 392 61c89.333 0 161 38.667 215 116l58-46c-28-44-66.167-78.667-114.5-104S449-11 391-11c-94-1.333-175.167 31.667-243.5 99S46 236 48 330z"/><glyph glyph-name="D" unicode="D" horiz-adv-x="694" d="M91 0v660h196c109.333 0 196.5-30.5 261.5-91.5S646 428.333 646 331c0-96.667-32.667-176-98-238S395.667 0 287 0H91zm78 70 117.001-.001c85.333 0 153.166 24.333 203.499 73S565 254.333 565 331c0 77.333-25 139.833-75 187.5S372 590 286 590H169V70z"/><glyph glyph-name="E" unicode="E" horiz-adv-x="566" d="M91 0v660h423v-70H169V388h264v-70H169V70h357V0H91z"/><glyph glyph-name="F" unicode="F" horiz-adv-x="524" d="M91 0v660h413v-70H169V363h278v-71H169V0H91z"/><glyph glyph-name="G" unicode="G" horiz-adv-x="746" d="M48 330c-1.333 94.667 31.835 175.503 99.502 242.503s148.834 99.833 243.501 98.5c55.333 0 106.333-11.833 153-35.5s85.334-56.834 116.001-99.501l-59-46c-54 72.667-124 109-210 109-74.667 1.333-137.334-24.334-188.001-77.001S127.669 405.667 129.002 331c-1.333-76 23.834-140.667 75.501-194s115.167-79.333 190.5-78c47.333 0 90.166 10.5 128.499 31.5s68.833 49.833 91.5 86.5v89h-225v70h303V160c-29.333-52-71-93.667-125-125-52.667-30.667-111.667-46-177-46-94.667-1.333-175.834 31.5-243.501 98.5S46.667 235.333 48 330z"/><glyph glyph-name="H" unicode="H" horiz-adv-x="708" d="M91 0v660h78V388h370v272h78V0h-78v318H169V0H91z"/><glyph glyph-name="I" unicode="I" horiz-adv-x="259" d="M91 0v660h78V0H91z"/><glyph glyph-name="J" unicode="J" horiz-adv-x="373" d="M24 0v67c26.667-4 50.667-6 72-6 37.333 0 64.833 7.5 82.5 22.5S205 124 205 160v500h78V153c0-54.667-15-95.667-45-123s-72.333-41-127-41C86.333-11 57.333-7.333 24 0z"/><glyph glyph-name="K" unicode="K" horiz-adv-x="633" d="M91 0v660h78V0H91zm189 354L602 0h-99L178 354l297 306h100z"/><glyph glyph-name="L" unicode="L" horiz-adv-x="506" d="M91 0v660h78V70h313V0H91z"/><glyph glyph-name="M" unicode="M" horiz-adv-x="789" d="M671 671h27V0h-78v473L409 187h-28L169 475V0H91v671h28l275-381z"/><glyph glyph-name="N" unicode="N" horiz-adv-x="708" d="M539 660h78V-11h-28L169 495V0H91v671h28l420-507v496z"/><glyph glyph-name="O" unicode="O" horiz-adv-x="781" d="M48 330c-2 94 30.999 174.667 98.999 242s149 100.333 243 99c93.333 1.333 174.333-31.667 243-99s102-148 100-242c2-94-31.333-174.667-100-242s-149.667-100.333-243-99C296.666-13 215.833 20 147.5 88S46 236.667 48 330zm603.999 1c1.333 74.667-23.667 138.333-75 191s-113.333 78.334-186 77.001c-74.667 0-137-25.5-187-76.5s-75-114.833-75-191.5 25-140.834 75-192.501 112.333-77.5 187-77.5c72.667-1.333 134.667 24.5 186 77.5s76.333 117.167 75 192.5z"/><glyph glyph-name="P" unicode="P" horiz-adv-x="573" d="M91 0v660h232c63.333 0 114.333-17.833 153-53.5S534 525 534 469c0-56.667-19.333-103-58-139s-89.667-54-153-54H169V0H91zm78 346h152c41.333 0 73.666 11 96.999 33s35 51.667 35 89c0 36.667-11.667 66.167-35 88.5S362.333 590 321 590H169V346z"/><glyph glyph-name="Q" unicode="Q" horiz-adv-x="781" d="m1040-131-.002-62c-35.333-6.667-70.666-10-105.999-10-173.333 0-311.333 72.333-414 217-40-16.667-83.333-25-130-25-93.333-2-174.166 31-242.499 99S46 236.667 48 330c-2 94 31 174.667 99 242s149 100.333 243 99c93.333 1.333 174.333-31.667 243-99s102-148 100-242c0-58-13.167-111.667-39.5-161S630.667 79 584 47c92-122 212-183 360-183 22.667 0 54.667 1.667 96 5zM390.998 61c72.667-1.333 134.668 24.501 186.001 77.501s76.333 116.833 75 191.5c0 76.667-25 140.667-75 192s-112.333 77-187 77-136.834-25.5-186.501-76.5-74.5-114.833-74.5-191.5 25-140.834 75-192.501 112.333-77.5 187-77.5z"/><glyph glyph-name="R" unicode="R" horiz-adv-x="622" d="M606 0h-91L310 277H169V0H91v660h232c63.333 0 114.333-17.833 153-53.5S534 525 534 469c0-44.667-12.333-83.167-37-115.5s-58.667-54.833-102-67.5zM169 590V347h151c42 0 74.667 10.833 98 32.5s35 51.167 35 88.5c0 36.667-11.833 66.167-35.5 88.5S361.333 590 320 590H169z"/><glyph glyph-name="S" unicode="S" horiz-adv-x="558" d="m41 131 58 42.998c49.333-75.333 110.666-113 183.999-113 40 0 72.167 10 96.5 30s36.5 46.667 36.5 80c0 28-7.833 49.167-23.5 63.5s-44.5 31.833-86.5 52.5l-74 35c-50 23.333-87.333 48.333-112 75s-37 60.667-37 102c0 50.667 19.333 92 58 124s85.667 48 141 48c43.333 0 83.166-10.167 119.499-30.5s65.5-47.5 87.5-81.5l-57-43c-37.333 55.333-87.666 83-150.999 83-33.333 0-61.166-8.667-83.499-26S164 532.332 164 502.999c0-19.333 4.333-35.333 13-48 8-12 18.333-22 31-30s33.334-19 62.001-33l73-35c54-26.667 93.167-53.667 117.5-81s36.5-61.666 36.5-102.999c0-54-20-98.167-60-132.5s-91-51.5-153-51.5C233.334-11 186.667 1.5 144 26.5S67 86.333 41 131z"/><glyph glyph-name="T" unicode="T" horiz-adv-x="581" d="M251 0v590H19v70h543v-70H329V0h-78z"/><glyph glyph-name="U" unicode="U" horiz-adv-x="689" d="M82 262v398h78V257c0-62.667 16.833-111 50.5-145S289 61 345 61c55.333 0 99.666 17 132.999 51s50 82.333 50 145v403h78V262c0-84.667-24.167-151.334-72.5-200.001s-111.166-73-188.499-73c-78.667 0-142.167 24.333-190.5 73S82 177.333 82 262z"/><glyph glyph-name="V" unicode="V" horiz-adv-x="663" d="M546 660h86L346-11h-29L31 660h86l215-518z"/><glyph glyph-name="W" unicode="W" horiz-adv-x="1066" d="M935 660h85L770-11h-28L533 513 324-11h-28L45 660h86l182-503 206 514h28l206-513z"/><glyph glyph-name="X" unicode="X" horiz-adv-x="599" d="M569 0h-91L300 271 121 0H30l227 338L46 660h90l164-257 163 257h90L345 337z"/><glyph glyph-name="Y" unicode="Y" horiz-adv-x="616" d="M576 660 347 273V0h-78v273L40 660h88l180-310 181 310h87z"/><glyph glyph-name="Z" unicode="Z" horiz-adv-x="589" d="M154 70h401V0H32v23l398 567H75v70h479v-23z"/><glyph glyph-name="bracketleft" unicode="[" horiz-adv-x="343" d="M101-131v860h191v-68H176V-61h116v-70H101z"/><glyph glyph-name="backslash" unicode="\" horiz-adv-x="628" d="M530-121 7 780h91l523-901h-91z"/><glyph glyph-name="bracketright" unicode="]" horiz-adv-x="343" d="M50-131v70h117v722H50v68h191v-860H50z"/><glyph glyph-name="asciicircum" unicode="^" horiz-adv-x="512" d="M452 284h-80L256 532 140 284H60l182 386h28z"/><glyph glyph-name="underscore" unicode="_" horiz-adv-x="506" d="M43-140v65h419v-65H43z"/><glyph glyph-name="grave" unicode="`" horiz-adv-x="600" d="M330 566 210 766v14h94l85-214h-59z"/><glyph glyph-name="a" unicode="a" horiz-adv-x="528" d="M450 300V0h-72v63c-37.333-49.333-92-74-164-74-50.667 0-91.667 12.5-123 37.5S44 84.667 44 126s16 74.333 48 99 74.333 37 127 37h154v42c0 39.333-10.5 69.666-31.5 90.999s-49.833 32-86.5 32c-54.667 0-102-26-142-78l-51 42c43.333 71.333 109.333 107 198 107 58.667 0 105-17.167 139-51.5S450 363.333 450 300zm-77-113v12H228c-70 0-105-23-105-69 0-24 9.5-42.833 28.5-56.5S194.667 53 224 53c40.667 0 75.667 13 105 39s44 57.667 44 95z"/><glyph glyph-name="b" unicode="b" horiz-adv-x="632" d="M582 243c0-72-23.001-132.333-69.001-181s-103-73-171-73c-38 0-73.667 7.833-107 23.5s-59.333 37.167-78 64.5V0h-72v750h77V416c19.333 25.333 44.833 45.333 76.5 60S304.333 498 341 498c68 0 125.167-24.5 171.5-73.5S582 315 582 243zm-79.001 1c0 52.667-16.5 96.333-49.5 131s-74.167 52-123.5 52c-48 0-88.167-15.833-120.5-47.5s-48.5-77.167-48.5-136.5c0-58 16.5-103 49.5-135s72.833-48 119.5-48c49.333 0 90.5 17.5 123.5 52.5s49.5 78.833 49.5 131.5z"/><glyph glyph-name="c" unicode="c" horiz-adv-x="551" d="M50 244c-1.333 69.333 23.333 129.332 74 179.999S235 499.333 305 498c42 0 80.333-9.333 115-28s63.334-44.667 86.001-78l-55-44c-38.667 52.667-87 79-145 79-50 0-92-17.833-126-53.5s-51-78.834-51-129.501c0-51.333 17-94.833 51-130.5s76-53.5 126-53.5c57.333 0 105.333 26 144 78l55-43c-48-70.667-114.667-106-200-106-70.667 0-130.834 24.833-180.501 74.5S50 173.333 50 244z"/><glyph glyph-name="d" unicode="d" horiz-adv-x="632" d="M471 750h77V0h-73v77c-18.667-27.333-44.5-48.833-77.5-64.5S329-11 291-11c-68.667 0-126 24.5-172 73.5S50 171.667 50 243c0 72 23.167 132.5 69.5 181.5S223 498 291 498c36.667 0 71-7.333 103-22s57.667-35 77-61v335zm1-507c0 58.667-16.5 104.001-49.5 136.001s-73.167 48-120.5 48c-49.333 0-90.5-17.333-123.5-52S129 296.667 129 244s16.5-96.5 49.5-131.5S252.667 60 302 60c47.333 0 87.5 16 120.5 48S472 185 472 243z"/><glyph glyph-name="e" unicode="e" horiz-adv-x="571" d="m515 220-384.997-.001c4.667-48 23.667-86.667 57-116s74-44 122-44c55.333 0 105 22 149 66l45-52c-54.667-56.667-119.667-85-195-85-72.667 0-133.834 24.5-183.501 73.5s-74.5 109.167-74.5 180.5c0 70.667 24.167 130.834 72.5 180.501S229.668 498 299.001 498c63.333 0 116.166-20.667 158.499-62S521 342 521 278c0-18.667-2-38-6-58zm-381.997 67.999h308.999c-.667 42.667-14.667 76.667-42 102s-61.666 38-102.999 38c-40.667 0-76-12.833-106-38.5s-49.333-59.5-58-101.5z"/><glyph glyph-name="f" unicode="f" horiz-adv-x="303" d="M174 598V486.999h122v-69H174v-418H97v418H27v69h70v116c0 52 14.167 91.333 42.5 118s67.833 40 118.5 40c20.667 0 41-2.667 61-8v-65c-16 2-30.333 3-43 3-34 0-59.5-7.167-76.5-21.5S174 631.333 174 598z"/><glyph glyph-name="g" unicode="g" horiz-adv-x="637" d="m480 487 72.998-.002v-440c0-73.333-21.333-131.333-64-174s-100.334-64-173.001-64c-90 0-166.333 31.333-229 94l45 54c58.667-51.333 119.334-77 182.001-77 50.667 0 90.334 14.167 119.001 42.5s43 68.5 43 120.5v43c-19.333-25.333-45.166-45.166-77.499-59.499s-66.833-21.5-103.5-21.5c-68.667 0-125.667 23.333-171 70S56 180.333 56 251c0 70 22.833 128.667 68.5 176S227 498 295 498c38.667 0 74.5-7.833 107.5-23.5S461.333 437 480 409v78zm-3.002-236.002c0 55.333-16.5 98.166-49.5 128.499s-73.167 45.5-120.5 45.5c-50 0-91.333-16.5-124-49.5s-49-74.833-49-125.5c0-51.333 16.333-93.166 49-125.499s74-48.5 124-48.5c48 0 88.333 15.167 121 45.5s49 73.5 49 129.5z"/><glyph glyph-name="h" unicode="h" horiz-adv-x="566" d="m488 306 .001-306h-77v296c0 40-10.833 71.833-32.5 95.5s-51.167 35.5-88.5 35.5-68-12.333-92-37-36-56-36-94V0h-77v750h77V432c35.333 44 84 66 146 66 55.333 0 99.166-17.5 131.499-52.5S488 364 488 306z"/><glyph glyph-name="i" unicode="i" horiz-adv-x="246" d="M85 0v487h77V0H85zM66 673c0 15.333 5.668 28.5 17.001 39.5s25 16.5 41 16.5c15.333 0 28.666-5.5 39.999-16.5s17-24.167 17-39.5c0-16-5.5-29.333-16.5-40S140 617 124 617s-29.667 5.333-41 16-17 24-17 40z"/><glyph glyph-name="j" unicode="j" horiz-adv-x="246" d="M-60-183v64.999c17.333-2 32.333-3 45-3 33.333 0 58.333 7.333 75 22S85-60.667 85-28v515h77V-33c0-52-14.167-91.333-42.5-118S52-191 2-191c-21.333 0-42 2.667-62 8zM66 672.999c0 15.333 5.668 28.5 17.001 39.5s25 16.5 41 16.5c15.333 0 28.666-5.5 39.999-16.5s17-24.167 17-39.5c0-16-5.5-29.333-16.5-40s-24.5-16-40.5-16-29.667 5.333-41 16-17 24-17 40z"/><glyph glyph-name="k" unicode="k" horiz-adv-x="506" d="M85 0v750h77V0H85zm178 273L493 0h-99L170 274l203 213h101z"/><glyph glyph-name="l" unicode="l" horiz-adv-x="246" d="M85 0v750h77V0H85z"/><glyph glyph-name="m" unicode="m" horiz-adv-x="874" d="M796 306 796.001.001h-77v296c0 40-10.167 71.833-30.5 95.5s-48.5 35.5-84.5 35.5-65.833-12-89.5-36-35.5-53.333-35.5-88v-303h-77v296c0 39.333-10.5 71-31.5 95s-49.167 36-84.5 36c-36.667 0-66.5-12.167-89.5-36.5s-34.5-55.833-34.5-94.5v-296h-77v487h72v-51c36 41.333 84.333 62 145 62 70.667 0 120.667-28 150-84 39.333 56 95 84 167 84 55.333 0 98.666-17.333 129.999-52S796 364.667 796 306z"/><glyph glyph-name="n" unicode="n" horiz-adv-x="566" d="M488 306V0h-77v297c0 38.667-10.833 70-32.5 94s-51.167 36-88.5 36-68-12.167-92-36.5-36-55.5-36-93.5V0H85v487h72v-52c38 42 88 63 150 63 56 0 100.167-17.5 132.5-52.5S488 364 488 306z"/><glyph glyph-name="o" unicode="o" horiz-adv-x="610" d="M50 244c-1.333 69.333 23.499 129.333 74.499 180s111.167 75.334 180.5 74.001c70 1.333 130.333-23.334 181-74.001S561.333 313.333 560 244c1.333-68.667-23.667-128.5-75-179.5S373.334-11.333 304.001-10c-69.333-1.333-129.333 23.5-180 74.5S48.667 175.333 50 244zm430.999-1c0 52-16.832 95.667-50.499 131S355 427 305 427s-91.833-17.5-125.5-52.5S129 295.667 129 243c0-51.333 16.833-94.5 50.5-129.5S254.667 61 304 61s91.166 17.667 125.499 53 51.5 78.333 51.5 129z"/><glyph glyph-name="p" unicode="p" horiz-adv-x="632" d="M582 244c0-72-23.168-132.5-69.501-181.5S408.999-11 340.999-11c-76.667 0-136.334 27-179.001 81v-250h-77v667h72v-78c18.667 28 44.334 49.833 77.001 65.5S302.333 498 341 498c69.333 0 126.833-24.333 172.5-73S582 316 582 244zm-79.001-1c0 52.667-16.5 96.499-49.5 131.499s-74.167 52.5-123.5 52.5c-46.667 0-86.5-16-119.5-48s-49.5-77-49.5-135c0-59.333 16.167-104.833 48.5-136.5s72.5-47.5 120.5-47.5c49.333 0 90.5 17.333 123.5 52s49.5 78.334 49.5 131.001z"/><glyph glyph-name="q" unicode="q" horiz-adv-x="632" d="M475 487h72.998v-667h-77V71c-19.333-26-45-46.167-77-60.5s-66.333-21.5-103-21.5c-68 0-125.167 24.5-171.5 73.5S49.998 172 49.998 244c0 71.333 23 131.5 69 180.5s103.333 73.5 172 73.5c38.667 0 74.334-7.833 107.001-23.5S456.333 437 475 409v78zm-3.002-243c0 58-16.5 103.001-49.5 135.001s-73.167 48-120.5 48c-49.333 0-90.5-17.5-123.5-52.5s-49.5-78.833-49.5-131.5 16.5-96.334 49.5-131.001 74.167-52 123.5-52c47.333 0 87.5 16 120.5 48s49.5 77.333 49.5 136z"/><glyph glyph-name="r" unicode="r" horiz-adv-x="362" d="m344 487 .001-68h-29c-42.667 0-78.834-13-108.501-39S162 319.333 162 276V0H85v487h72v-69c36 48.667 86.333 73 151 73 12.667 0 24.667-1.333 36-4z"/><glyph glyph-name="s" unicode="s" horiz-adv-x="454" d="m39 84 49.001 51.002c25.333-26 48.5-45 69.5-57s44.5-18 70.5-18c27.333 0 49.666 6.167 66.999 18.5s26 29.166 26 50.499c0 18.667-6.167 33.167-18.5 43.5s-34.5 21.833-66.5 34.5l-47 20c-42 17.333-72.667 36.333-92 57s-29 46.667-29 78c0 41.333 15.5 74.333 46.5 99s70.167 37 117.5 37c66 0 120.333-25.667 163-77l-47-48c-36 36-76 54-120 54-24.667 0-44.334-5.333-59.001-16s-22-25.667-22-45c0-15.333 5.5-27.833 16.5-37.5s31.833-20.834 62.5-33.501l45-19c46.667-20 79.834-40.833 99.501-62.5s29.5-48.834 29.5-81.501C400 86.666 383.333 51.333 350 26c-32.667-24.667-73-37-121-37-78 0-141.333 31.667-190 95z"/><glyph glyph-name="t" unicode="t" horiz-adv-x="381" d="m351 65-.001-65.001c-32.667-7.333-59.667-11-81-11-52 0-92.333 13.333-121 40s-43 66-43 118v271h-82v69h82v133h77v-133h152v-69h-152v-266c0-33.333 8.5-57.166 25.5-71.499s42.833-21.5 77.5-21.5c18.667 0 40.334 2 65.001 6z"/><glyph glyph-name="u" unicode="u" d="m79 194-.002 293.001h76v-298c0-38.667 11.833-69.834 35.5-93.501S244.332 60 280.999 60c36 0 65.667 12 89 36s35 55 35 93v298h77V194c0-60.667-19.167-110-57.5-148S338.333-11 281-11c-58 0-106.167 19-144.5 57S79 133.333 79 194z"/><glyph glyph-name="v" unicode="v" horiz-adv-x="539" d="M431 487h82L284-11h-28L26 487h82l162-367z"/><glyph glyph-name="w" unicode="w" horiz-adv-x="851" d="M742 487h82L619-11h-28L425 357 260-11h-27L26 487h82l141-361 162 372h29l164-369z"/><glyph glyph-name="x" unicode="x" horiz-adv-x="497" d="M476 0h-89L248 200 110 0H20l181 254L35 487h89l124-179 125 179h89L293 254z"/><glyph glyph-name="y" unicode="y" horiz-adv-x="539" d="m431 487 82-.001-240-555c-36-82-91-123-165-123-26 0-51 3.333-75 10v65c28-3.333 47.667-5 59-5 26.667 0 48.667 5.833 66 17.5S190-71.667 202-43l26 58L26 487h83L270 99z"/><glyph glyph-name="z" unicode="z" horiz-adv-x="454" d="M145 68h282V0H27v23l278 395H50v69h374v-23z"/><glyph glyph-name="braceleft" unicode="{" horiz-adv-x="397" d="M219 577c0-23.333 4.333-55.667 13-97 8-46.667 12-78.667 12-96 0-40.667-17.667-69-53-85 35.333-16 53-44.333 53-85 0-16.667-4-48.334-12-95.001-8.667-41.333-13-74-13-98 0-56 26-84 78-84h49v-68h-63c-92 0-138 44.333-138 133 0 30 5 70.667 15 122 7.333 42.667 11 70.334 11 83.001 0 38.667-20.333 58-61 58H53v68h57c40.667 0 61 19.333 61 58 0 13.333-3.667 41-11 83-10 51.333-15 92-15 122 0 88.667 46 133 138 133h63v-68h-49c-52 0-78-28-78-84z"/><glyph glyph-name="bar" unicode="|" horiz-adv-x="332" d="M133-121v901h66v-901h-66z"/><glyph glyph-name="braceright" unicode="}" horiz-adv-x="397" d="M287 333h57v-68h-57c-40.667 0-61-19.333-61-58 0-12.667 3.667-40.334 11-83.001l8-52c4-27.333 6-50.666 6-69.999 0-88.667-45.667-133-137-133H50v68h50c52 0 78 28 78 84 0 24-4.333 56.667-13 98-8 46.667-12 78.334-12 95.001 0 40.667 17.667 69 53 85-35.333 16-53 44.333-53 85 0 17.333 4 49.333 12 96 8.667 41.333 13 73.666 13 96.999 0 56-26 84-78 84H50v68h64c91.333 0 137-44.333 137-133 0-20-2-43.667-6-71l-8-51c-7.333-42-11-69.667-11-83 0-38.667 20.333-58 61-58z"/><glyph glyph-name="asciitilde" unicode="~" d="m319 250-94 56.999c-29.333 17.333-49.666 26-60.999 26-12 0-21.5-4.167-28.5-12.5s-10.5-19.166-10.5-32.499v-29h-63l-1 37c0 30 8.833 55.333 26.5 76s40.5 31 68.5 31c26.667 0 54.667-9 84-27l94-57c28-16.667 48.667-25 62-25 12 0 21.333 4.167 28 12.5s10 18.833 10 31.5v29h63c0-4.667.167-10 .5-16s.666-10.5.999-13.5.5-5.5.5-7.5c0-30.667-8.833-56-26.5-76s-41.167-30-70.5-30c-26 0-53.667 8.667-83 26z"/><glyph glyph-name="uni00A0" horiz-adv-x="280"/><glyph glyph-name="exclamdown" unicode="¡" horiz-adv-x="305" d="M89 435c0 18 6.168 33.001 18.501 45.001s27.166 18 44.499 18c18 0 33-6 45-18s18-27 18-45c0-18.667-6-33.834-18-45.501S170 372 152 372s-33 6-45 18-18 27-18 45zm16.001-614.999 15 458h64l15-458h-94z"/><glyph glyph-name="cent" unicode="¢" horiz-adv-x="554" d="m437 223 53.001-43.998c-42-62-99.667-97-173-105v-168h-77v172C181.334 89.335 132.667 118.668 94 166.001s-58 101.333-58 162c0 61.333 19.333 115.333 58 162s87.334 75.667 146.001 87v173h77v-169c74-8 132-43 174-105l-53-43c-38.667 52-87.334 78-146.001 78-50 0-92-17.833-126-53.5S115 378.667 115 328c0-51.333 17-94.833 51-130.5S242 144 292 144c58 0 106.333 26.333 145 79z"/><glyph glyph-name="sterling" unicode="£" horiz-adv-x="529" d="m208 68 276-.001v-68H57v20C145.667 74.666 190 138.333 190 211c0 11.333-1 22.333-3 33H67v68h96l-19 37c-17.333 32.667-29.5 59.167-36.5 79.5S97 471.333 97 496c0 52 17.833 94.167 53.5 126.5S232 671 288 671c50.667 0 93.667-14.167 129-42.5S477.333 560 492 508l-69-26c-24.667 78-68.334 117-131.001 117-35.333 0-63.333-10.833-84-32.5s-31-49.167-31-82.5c0-18.667 2.833-35.667 8.5-51s16.834-39 33.501-71c11.333-20 20-36.667 26-50h159v-68H266c1.333-17.333 2-28 2-32 0-59.333-20-107.333-60-144z"/><glyph glyph-name="currency" unicode="¤" horiz-adv-x="643" d="M506 192 616.002 82l-46-46-112 111c-40.667-28.667-86.667-43-138-43-49.333 0-94.333 14-135 42l-111-110-47 46 110 111c-31.333 39.333-47 85-47 137 0 51.333 15.667 97.666 47 138.999l-110 110 47 46 111-111c41.333 28 86.666 42 135.999 42 51.333 0 96.666-14 135.999-42l112 111 47-46-110-110c32-41.333 48-87.666 48-138.999 0-50.667-16-96.667-48-138zm-30.998 137c0 44.667-14.833 82-44.5 112s-66.167 45-109.5 45-79.5-15-108.5-45-43.5-67.333-43.5-112c0-43.333 14.333-79.833 43-109.5s64.667-44.5 108-44.5c44 0 80.833 14.833 110.5 44.5s44.5 66.167 44.5 109.5z"/><glyph glyph-name="yen" unicode="¥" horiz-adv-x="552" d="M544 660 334 360h177v-68H316v-92h195v-69H316V0h-78v131H44v69h194v92H44v68h175L9 660h88l180-259 180 259h87z"/><glyph glyph-name="brokenbar" unicode="¦" horiz-adv-x="332" d="M133 480v300h66V480h-66zm0-601v300h66v-300h-66z"/><glyph glyph-name="section" unicode="§" horiz-adv-x="579" d="M418 37c.667-2 .999-6.336.999-13.003 0-41.333-14.667-75.5-44-102.5s-68.333-40.5-117-40.5c-68.667 0-125.334 29.333-170.001 88l57 47c35.333-42 74.333-63 117-63 24 0 43 5.833 57 17.5s21 28.5 21 50.5c0 20.667-5.667 38.834-17 54.501s-31.666 35.167-60.999 58.5l-17 14-106 87c-37.333 30.667-64 57.667-80 81s-24 48.666-24 76c0 32.666 11.167 60.166 33.5 82.5s52.833 36.832 91.5 43.5c-.667 2-1 6.666-1 14 0 40 14.833 73.666 44.5 101s68.834 41 117.501 41c68.667 0 125.334-29.334 170.001-88l-57-46c-38 42-77 63-117 63-24 0-43.167-6-57.5-18s-21.5-28.668-21.5-50c0-20.668 5.667-38.668 17-54s31.666-34.667 60.999-58l18-15 105-88c36.667-30 63.167-56.667 79.5-80S543 191.332 543 164c0-33.333-11.167-61.166-33.5-83.499S456.667 43.667 418 37zm46.999 127.997c0 14.667-5.334 28.333-16.001 41-12 15.333-32.333 34.666-61 57.999l-106 88c-50.667 41.333-84.667 76.333-102 105-44-12-66-34.333-66-67 0-14.667 5-28.667 15-42 12.667-14.667 33.334-33.667 62.001-57l105-87c51.333-41.333 85.333-76.666 102-105.999 44.667 12 67 34.333 67 67z"/><glyph glyph-name="dieresis" unicode="¨" horiz-adv-x="600" d="M138 673c0 14 5.667 26.501 17 37.501s24 16.5 38 16.5c15.333 0 28.5-5.333 39.5-16S249 687.667 249 673s-5.5-27.167-16.5-37.5S208.333 620 193 620c-14 0-26.667 5.333-38 16s-17 23-17 37zm212 .001c0 14.667 5.667 27.334 17 38.001s24.333 16 39 16c15.333 0 28.333-5.333 39-16s16-23.334 16-38.001-5.333-27.167-16-37.5-23.667-15.5-39-15.5c-14.667 0-27.667 5.333-39 16s-17 23-17 37z"/><glyph glyph-name="copyright" unicode="©" horiz-adv-x="781" d="M48 330c-2 93.333 31.5 173.833 100.5 241.5S298 672.334 390 671.001c92.667 1.333 173.5-31.834 242.5-99.501S735 423.333 733 330c2-93.333-31.5-173.833-100.5-241.5S482.667-12.334 390-11.001C297.333-12.334 216.5 20.833 147.5 88.5S45.333 236.667 48 330zm625 0c1.333 80.667-26.168 148.834-82.501 204.501S467.333 617.335 390 616.002c-77.333 1.333-144-25.834-200-81.501S106.667 410.667 108 330c-1.333-80.667 26-148.834 82-204.501s122.667-82.834 200-81.501c77.333-1.333 144 25.834 200 81.501S673.667 249.333 673 330zm-464.001 0c0 54 18.501 99.5 55.501 136.5S347 522 401 522c61.333 0 111.666-26 150.999-78l-49-42c-28 36.667-61.667 55-101 55-34.667 0-63.5-12.167-86.5-36.5s-34.5-54.5-34.5-90.5c0-35.333 11.333-65.333 34-90 23.333-24 52-36 86-36 40.667 0 74.667 18 102 54l49-42c-39.333-51.333-90-77-152-77-53.333 0-98.5 18.333-135.5 55s-55.5 82-55.5 136z"/><glyph glyph-name="ordfeminine" unicode="ª" horiz-adv-x="356" d="m297 432 .001-188h-61v31c-23.333-25.333-55.333-38-96-38-32 0-57.833 8.333-77.5 25s-29.5 38.667-29.5 66c0 28 10.167 49.833 30.5 65.5s47.833 23.5 82.5 23.5h85v19c0 43.333-22.333 65-67 65-28 0-56.333-12.667-85-38l-34 43c36 36 78 54 126 54 39.333 0 70.166-11.167 92.499-33.5S297 472.667 297 432zm-65.999-73v10h-75c-36 0-54-13-54-39 0-26.667 18-40 54-40 22 0 40 6.5 54 19.5s21 29.5 21 49.5z"/><glyph glyph-name="guillemotleft" unicode="«" horiz-adv-x="504" d="M216 71 38 259v23l178 189 50-45-141-155 141-157zm198 0L236 259v23l178 189 50-45-141-155 141-157z"/><glyph glyph-name="logicalnot" unicode="¬" d="M396 96v185H55v68h418V96h-77z"/><glyph glyph-name="uni00AD" unicode="­" horiz-adv-x="346" d="M53 282v65h239v-65H53z"/><glyph glyph-name="registered" unicode="®" horiz-adv-x="570" d="M527 435c1.333-66-22.334-124-71.001-174s-105.334-74.333-170.001-73c-64.667-1.333-121.667 23-171 73s-73.333 108-72 174c-1.333 66.667 22.667 125 72 175s106.333 74.333 171 73c64.667 1.333 121.334-23 170.001-73S528.333 501.667 527 435zm-50 1c0 55.333-18.667 102.002-56 140.002s-82.333 57-135 57c-53.333 0-98.5-19.167-135.5-57.5S95 490.669 95 436.002s18.5-101.334 55.5-140.001 82.167-58 135.5-58c52.667 0 97.667 19.167 135 57.5S477 380.667 477 436zm-136-28.998L411 310h-65l-63 84h-36v-84h-58v251h101c26.667 0 48.667-7.667 66-23s26-35.666 26-60.999c0-31.333-13.667-54.666-41-69.999zM247 510v-66h42c10 0 18.167 3 24.5 9s9.5 13.667 9.5 23c0 10-3.167 18.167-9.5 24.5S299 510 289 510h-42z"/><glyph glyph-name="overscore" unicode="¯" horiz-adv-x="600" d="M163 642v62h275v-62H163z"/><glyph glyph-name="degree" unicode="°" horiz-adv-x="360" d="M31 524c0 40 14.667 74.5 44 103.5S139.333 671 180 671s75.667-14.5 105-43.5S329 564 329 524c0-40.667-14.5-75.334-43.5-104.001s-64.167-43-105.5-43-76.5 14.333-105.5 43S31 483.333 31 524zm234 0c0 24.667-8.167 45.167-24.5 61.5S204 610 180 610c-23.333 0-43.166-8.333-59.499-25s-24.5-37-24.5-61 8.167-44.333 24.5-61 36.166-25 59.499-25c24 0 44.167 8.333 60.5 25s24.5 37 24.5 61z"/><glyph glyph-name="plusminus" unicode="±" d="M242 150v160H66v68h176v158h77V378h175v-68H319V150h-77zM66 0v68h428V0H66z"/><glyph glyph-name="uni00B2" unicode="²" horiz-adv-x="369" d="M154 424h175v-60H35v15l148 159c22.667 24 39 44.333 49 61s15 34.667 15 54c0 20.667-6.5 38-19.5 52S198 726 178 726c-21.333 0-38.5-7-51.5-21S107 672.667 107 650l2-32H44c-2.667 10-4 22-4 36 0 35.333 13 66.333 39 93s59 40 99 40c39.333 0 71.833-12.167 97.5-36.5s38.5-55.166 38.5-92.499c0-26.667-6.833-51.334-20.5-74.001S257 533 225 499z"/><glyph glyph-name="uni00B3" unicode="³" horiz-adv-x="354" d="M314 498c0-41.333-14.5-75.167-43.5-101.5S206 357 164 357c-64.667 0-113 30-145 90l46 33c25.333-41.333 57.666-62 96.999-62 24.667 0 44.834 7.333 60.501 22s23.5 34 23.5 58c0 23.333-8.167 41.333-24.5 54s-39.833 19-70.5 19h-41v18l97 131H48v60h257v-19L205 626c31.333-6.667 57.333-21.167 78-43.5s31-50.5 31-84.5z"/><glyph glyph-name="acute" unicode="´" horiz-adv-x="600" d="m210 566 85 214h94v-14L269 566h-59z"/><glyph glyph-name="uni00B5" unicode="µ" horiz-adv-x="592" d="M571 65V0c-18.667-4.667-36-7-52-7-46.667 0-78 19.667-94 59-32.667-42-77.334-63-134.001-63-53.333 0-96.333 19-129 57v-226h-77v667h77V196c0-39.333 11.5-71.833 34.5-97.5s52.833-38.5 89.5-38.5 66.667 12.833 90 38.5 35 58.167 35 97.5v291h77V136c0-49.333 18-74 54-74 6.667 0 16.334 1 29.001 3z"/><glyph glyph-name="paragraph" unicode="¶" horiz-adv-x="564" d="M39 449c0 63.333 22.333 114.332 67 152.999s101.667 58 171 58h60v-424h-60c-68 0-124.667 19.833-170 59.5S39 386.333 39 449zm189-629.001.001 66c33.333-4 55-6 65-6 34.667 0 60.667 7.833 78 23.5s26 41.5 26 77.5v679h77v-685c0-110.667-55.333-166-166-166-22.667 0-49.334 3.667-80.001 11z"/><glyph glyph-name="middot" unicode="·" horiz-adv-x="280" d="M77 314c0 18 6.167 33 18.5 45s27.166 18 44.499 18 32.166-6 44.499-18 18.5-27 18.5-45-6.167-33-18.5-45-27.166-18-44.499-18-32.166 6-44.499 18S77 296 77 314z"/><glyph glyph-name="cedilla" unicode="¸" horiz-adv-x="600" d="m200-181-.001 54.999c18.667-2.667 37.334-4 56.001-4 52 0 78 21.667 78 65C334-38.334 322.667-13.667 300 9l33 17c44.667-22.667 67-56.667 67-102 0-33.333-12-60.833-36-82.5S308-191 268-191c-23.333 0-46 3.333-68 10z"/><glyph glyph-name="uni00B9" unicode="¹" horiz-adv-x="353" d="M47 364v60h105v296H52v60h167V424h90v-60H47z"/><glyph glyph-name="ordmasculine" unicode="º" horiz-adv-x="403" d="M38 398c0 44.667 15.833 82.667 47.5 114s70.167 47 115.5 47 84-15.667 116-47 48-69.333 48-114-16-82.667-48-114-70.667-47-116-47-83.833 15.667-115.5 47S38 353.333 38 398zm261 0c0 30-9.167 54.501-27.5 73.501s-41.833 28.5-70.5 28.5-52-9.5-70-28.5-27-43.5-27-73.5 9-54.5 27-73.5 41.333-28.5 70-28.5 52.167 9.667 70.5 29S299 368.667 299 398z"/><glyph glyph-name="guillemotright" unicode="»" horiz-adv-x="504" d="m90 71-51 43 142 157L39 426l51 45 177-189v-23zm198 0-51 43 142 157-142 155 51 45 177-189v-23z"/><glyph glyph-name="onequarter" unicode="¼" horiz-adv-x="886" d="M47 244v60h105v296H52v60h167V304h90v-60H47zM248 0l378 660h69L317 0h-69zm622 128V73h-56V0h-61v73H546v18l130 325h67L627 128h126v130h61V128h56z"/><glyph glyph-name="onehalf" unicode="½" horiz-adv-x="924" d="M47 244v60h105v296H52v60h167V304h90v-60H47zM248 0l378 660h69L317 0h-69zm461 60h175V0H590v15l148 159c22.667 24 39 44.333 49 61s15 34.667 15 54c0 20.667-6.5 38-19.5 52S753 362 733 362c-21.333 0-38.5-7-51.5-21S662 308.667 662 286l2-32h-65c-2.667 10-4 22-4 36 0 35.333 13 66.333 39 93s59 40 99 40c39.333 0 71.833-12.167 97.5-36.5s38.5-55.166 38.5-92.499c0-26.667-6.833-51.334-20.5-74.001S812 169 780 135z"/><glyph glyph-name="threequarters" unicode="¾" horiz-adv-x="853" d="M314 378c0-41.333-14.5-75.167-43.5-101.5S206 237 164 237c-64.667 0-113 30-145 90l46 33c25.333-41.333 57.666-62 96.999-62 24.667 0 44.834 7.333 60.501 22s23.5 34 23.5 58c0 23.333-8.167 41.333-24.5 54s-39.833 19-70.5 19h-41v18l97 131H48v60h257v-19L205 506c31.333-6.667 57.333-21.167 78-43.5s31-50.5 31-84.5zM214-.001l378 660h69l-378-660h-69zm622 128v-55h-56v-73h-61v73H512v18l130 325h67l-116-288h126v130h61v-130h56z"/><glyph glyph-name="questiondown" unicode="¿" horiz-adv-x="444" d="M170 435c0 18 6.169 33 18.502 45s27.166 18 44.499 18 32.166-6 44.499-18 18.5-27 18.5-45-6-33.167-18-45.5-27-18.5-45-18.5-33 6.167-45 18.5-18 27.5-18 45.5zM44.002-22c0 30.667 7.5 58.168 22.5 82.501s39.167 51.833 72.5 82.5c27.333 24.667 46 44 56 58s15 28.667 15 44c0 11.333-1.333 22.333-4 33h67c6.667-15.333 10-30 10-44 0-21.333-6.167-40.833-18.5-58.5S231.336 135.667 202.003 109c-29.333-28-49.833-51-61.5-69s-17.5-37.667-17.5-59c0-28.667 9.833-52.667 29.5-72s43.167-29 70.5-29c53.333 0 90.666 32 111.999 96l64-27c-12.667-44.667-34.667-79.167-66-103.5S264.336-191 221.003-191c-48.667 0-90.334 16.167-125.001 48.5s-52 72.5-52 120.5z"/><glyph glyph-name="Agrave" unicode="À" horiz-adv-x="663" d="m549 0-56 134H169L113 0H31l286 671h29L632 0h-83zm-86 204L331 529 199 204h264zM303 724 183 896v14h94l85-186h-59z"/><glyph glyph-name="Aacute" unicode="Á" horiz-adv-x="663" d="m549 0-56 134H169L113 0H31l286 671h29L632 0h-83zm-86 204L331 529 199 204h264zM303 724l85 186h94v-14L362 724h-59z"/><glyph glyph-name="Acircumflex" unicode="Â" horiz-adv-x="663" d="m549 0-56 134H169L113 0H31l286 671h29L632 0h-83zm-86 204L331 529 199 204h264zm39 520h-60L332 832 221 724h-60l147 186h47z"/><glyph glyph-name="Atilde" unicode="Ã" horiz-adv-x="663" d="m549 0-56 134H169L113 0H31l286 671h29L632 0h-83zm-86 204L331 529 199 204h264zM339 766l-33 20c-20 13.333-34.333 20-43 20-9.333 0-16.666-3.667-21.999-11s-8-16.333-8-27v-16h-64c-1.333 12-2 20.333-2 25 0 29.333 8 53.5 24 72.5s37 28.5 63 28.5c22 0 45.333-7.667 70-23l34-22c19.333-13.333 34-20 44-20 9.333 0 16.666 3.5 21.999 10.5s8 15.833 8 26.5v18h64c.667-3.333 1-12 1-26 0-28.667-7.833-52.5-23.5-71.5S437.333 742 412 742c-22.667 0-47 8-73 24z"/><glyph glyph-name="Adieresis" unicode="Ä" horiz-adv-x="663" d="m549 0-56 134H169L113 0H31l286 671h29L632 0h-83zm-86 204L331 529 199 204h264zM160 810c0 14.667 5.5 27.167 16.5 37.5S200.333 863 215 863c15.333 0 28.333-5.167 39-15.5s16-22.833 16-37.5-5.333-27.167-16-37.5-23.667-15.5-39-15.5c-14.667 0-27.5 5.167-38.5 15.5S160 795.333 160 810zm233-1c0 14.667 5.5 27.334 16.5 38.001s23.833 16 38.5 16c15.333 0 28.333-5.333 39-16s16-23.334 16-38.001-5.333-27.167-16-37.5-23.667-15.5-39-15.5c-14.667 0-27.5 5.167-38.5 15.5S393 794.333 393 809z"/><glyph glyph-name="Aring" unicode="Å" horiz-adv-x="663" d="m549 0-56 134H169L113 0H31l286 671h29L632 0h-83zm-86 204L331 529 199 204h264zM221 806c0 30 10.5 55.5 31.5 76.5S299.667 914 331 914c32 0 58.5-10.5 79.5-31.5S442 836 442 806s-10.5-55.5-31.5-76.5S363 698 331 698c-31.333 0-57.5 10.5-78.5 31.5S221 776 221 806zm161 0c0 14.667-4.832 26.834-14.499 36.501s-21.5 14.5-35.5 14.5c-14.667 0-26.834-4.833-36.501-14.5S281 820.667 281 806c0-14 5-25.833 15-35.5s22-14.5 36-14.5 25.833 4.833 35.5 14.5S382 792 382 806z"/><glyph glyph-name="AE" unicode="Æ" horiz-adv-x="821" d="M535 70h246V0H467l-23 134H168L97 0H13l344 660h412v-70H447l34-202h208v-70H493zM377 541 205 204h227z"/><glyph glyph-name="Ccedilla" unicode="Ç" horiz-adv-x="715" d="M48 330c-2 94 31.167 174.667 99.5 242S297 672.333 391 671c58 0 111.167-12.667 159.5-38S637 573 665 529l-58-46c-54 77.333-125.667 116-215 116-74.667 0-137.167-25.667-187.5-77S129 406.667 129 330s25.167-140.667 75.5-192S317.333 61 392 61c89.333 0 161 38.667 215 116l58-46c-28-44-66.167-78.667-114.5-104S449-11 391-11c-94-1.333-175.167 31.667-243.5 99S46 236 48 330zm223-511-.001 54.999c18.667-2.667 37.334-4 56.001-4 52 0 78 21.667 78 65C405-38.334 393.667-13.667 371 9l33 17c44.667-22.667 67-56.667 67-102 0-33.333-12-60.833-36-82.5S379-191 339-191c-23.333 0-46 3.333-68 10z"/><glyph glyph-name="Egrave" unicode="È" horiz-adv-x="566" d="M91 0v660h423v-70H169V388h264v-70H169V70h357V0H91zm183 724L154 896v14h94l85-186h-59z"/><glyph glyph-name="Eacute" unicode="É" horiz-adv-x="566" d="M91 0v660h423v-70H169V388h264v-70H169V70h357V0H91zm183 724 85 186h94v-14L333 724h-59z"/><glyph glyph-name="Ecircumflex" unicode="Ê" horiz-adv-x="566" d="M91 0v660h423v-70H169V388h264v-70H169V70h357V0H91zm382 724h-60L303 832 192 724h-60l147 186h47z"/><glyph glyph-name="Edieresis" unicode="Ë" horiz-adv-x="566" d="M91 0v660h423v-70H169V388h264v-70H169V70h357V0H91zm40 810c0 14.667 5.5 27.167 16.5 37.5S171.333 863 186 863c15.333 0 28.333-5.167 39-15.5s16-22.833 16-37.5-5.333-27.167-16-37.5-23.667-15.5-39-15.5c-14.667 0-27.5 5.167-38.5 15.5S131 795.333 131 810zm233-1c0 14.667 5.5 27.334 16.5 38.001s23.833 16 38.5 16c15.333 0 28.333-5.333 39-16s16-23.334 16-38.001-5.333-27.167-16-37.5-23.667-15.5-39-15.5c-14.667 0-27.5 5.167-38.5 15.5S364 794.333 364 809z"/><glyph glyph-name="Igrave" unicode="Ì" horiz-adv-x="259" d="M91 0v660h78V0H91zm11 724L-18 896v14h94l85-186h-59z"/><glyph glyph-name="Iacute" unicode="Í" horiz-adv-x="259" d="M91 0v660h78V0H91zm10 724 85 186h94v-14L160 724h-59z"/><glyph glyph-name="Icircumflex" unicode="Î" horiz-adv-x="259" d="M91 0v660h78V0H91zm210 724h-60L131 832 20 724h-60l147 186h47z"/><glyph glyph-name="Idieresis" unicode="Ï" horiz-adv-x="259" d="M91 0v660h78V0H91zM-41 810c0 14.667 5.5 27.167 16.5 37.5S-.667 863 14 863c15.333 0 28.333-5.167 39-15.5s16-22.833 16-37.5-5.333-27.167-16-37.5S29.333 757 14 757c-14.667 0-27.5 5.167-38.5 15.5S-41 795.333-41 810zm233-1c0 14.667 5.5 27.334 16.5 38.001s23.833 16 38.5 16c15.333 0 28.333-5.333 39-16s16-23.334 16-38.001-5.333-27.167-16-37.5-23.667-15.5-39-15.5c-14.667 0-27.5 5.167-38.5 15.5S192 794.333 192 809z"/><glyph glyph-name="Eth" unicode="Ð" horiz-adv-x="694" d="M646 331c0-96.667-32.667-176-98-238S395.667 0 287 0H91v274H-4v66h95v320h196c109.333 0 196.5-30.5 261.5-91.5S646 428.333 646 331zm-81 0c0 77.333-24.999 139.832-74.999 187.499s-118 71.5-204 71.5h-117v-250h130v-66h-130v-204h117c85.333 0 153.166 24.333 203.499 73S565 254.333 565 331z"/><glyph glyph-name="Ntilde" unicode="Ñ" horiz-adv-x="708" d="M539 660h78V-11h-28L169 495V0H91v671h28l420-507v496zM361 766l-33 20c-20 13.333-34.333 20-43 20-9.333 0-16.666-3.667-21.999-11s-8-16.333-8-27v-16h-64c-1.333 12-2 20.333-2 25 0 29.333 8 53.5 24 72.5s37 28.5 63 28.5c22 0 45.333-7.667 70-23l34-22c19.333-13.333 34-20 44-20 9.333 0 16.666 3.5 21.999 10.5s8 15.833 8 26.5v18h64c.667-3.333 1-12 1-26 0-28.667-7.833-52.5-23.5-71.5S459.333 742 434 742c-22.667 0-47 8-73 24z"/><glyph glyph-name="Ograve" unicode="Ò" horiz-adv-x="781" d="M48 330c-2 94 30.999 174.667 98.999 242s149 100.333 243 99c93.333 1.333 174.333-31.667 243-99s102-148 100-242c2-94-31.333-174.667-100-242s-149.667-100.333-243-99C296.666-13 215.833 20 147.5 88S46 236.667 48 330zm603.999 1c1.333 74.667-23.667 138.333-75 191s-113.333 78.334-186 77.001c-74.667 0-137-25.5-187-76.5s-75-114.833-75-191.5 25-140.834 75-192.501 112.333-77.5 187-77.5c72.667-1.333 134.667 24.5 186 77.5s76.333 117.167 75 192.5zm-290 392.999-120 172v14h94l85-186h-59z"/><glyph glyph-name="Oacute" unicode="Ó" horiz-adv-x="781" d="M48 330c-2 94 30.999 174.667 98.999 242s149 100.333 243 99c93.333 1.333 174.333-31.667 243-99s102-148 100-242c2-94-31.333-174.667-100-242s-149.667-100.333-243-99C296.666-13 215.833 20 147.5 88S46 236.667 48 330zm603.999 1c1.333 74.667-23.667 138.333-75 191s-113.333 78.334-186 77.001c-74.667 0-137-25.5-187-76.5s-75-114.833-75-191.5 25-140.834 75-192.501 112.333-77.5 187-77.5c72.667-1.333 134.667 24.5 186 77.5s76.333 117.167 75 192.5zm-290 392.999 85 186h94v-14l-120-172h-59z"/><glyph glyph-name="Ocircumflex" unicode="Ô" horiz-adv-x="781" d="M48 330c-2 94 30.999 174.667 98.999 242s149 100.333 243 99c93.333 1.333 174.333-31.667 243-99s102-148 100-242c2-94-31.333-174.667-100-242s-149.667-100.333-243-99C296.666-13 215.833 20 147.5 88S46 236.667 48 330zm603.999 1c1.333 74.667-23.667 138.333-75 191s-113.333 78.334-186 77.001c-74.667 0-137-25.5-187-76.5s-75-114.833-75-191.5 25-140.834 75-192.501 112.333-77.5 187-77.5c72.667-1.333 134.667 24.5 186 77.5s76.333 117.167 75 192.5zm-91 392.999h-60l-110 108-111-108h-60l147 186h47z"/><glyph glyph-name="Otilde" unicode="Õ" horiz-adv-x="781" d="M48 330c-2 94 30.999 174.667 98.999 242s149 100.333 243 99c93.333 1.333 174.333-31.667 243-99s102-148 100-242c2-94-31.333-174.667-100-242s-149.667-100.333-243-99C296.666-13 215.833 20 147.5 88S46 236.667 48 330zm603.999 1c1.333 74.667-23.667 138.333-75 191s-113.333 78.334-186 77.001c-74.667 0-137-25.5-187-76.5s-75-114.833-75-191.5 25-140.834 75-192.501 112.333-77.5 187-77.5c72.667-1.333 134.667 24.5 186 77.5s76.333 117.167 75 192.5zm-254 434.999-33 20c-20 13.333-34.333 20-43 20-9.333 0-16.666-3.667-21.999-11s-8-16.333-8-27v-16h-64c-1.333 12-2 20.333-2 25 0 29.333 8 53.5 24 72.5s37 28.5 63 28.5c22 0 45.333-7.667 70-23l34-22c19.333-13.333 34-20 44-20 9.333 0 16.666 3.5 21.999 10.5s8 15.833 8 26.5v18h64c.667-3.333 1-12 1-26 0-28.667-7.833-52.5-23.5-71.5s-36.167-28.5-61.5-28.5c-22.667 0-47 8-73 24z"/><glyph glyph-name="Odieresis" unicode="Ö" horiz-adv-x="781" d="M48 330c-2 94 30.999 174.667 98.999 242s149 100.333 243 99c93.333 1.333 174.333-31.667 243-99s102-148 100-242c2-94-31.333-174.667-100-242s-149.667-100.333-243-99C296.666-13 215.833 20 147.5 88S46 236.667 48 330zm603.999 1c1.333 74.667-23.667 138.333-75 191s-113.333 78.334-186 77.001c-74.667 0-137-25.5-187-76.5s-75-114.833-75-191.5 25-140.834 75-192.501 112.333-77.5 187-77.5c72.667-1.333 134.667 24.5 186 77.5s76.333 117.167 75 192.5zm-433 478.999c0 14.667 5.5 27.167 16.5 37.5s23.833 15.5 38.5 15.5c15.333 0 28.333-5.167 39-15.5s16-22.833 16-37.5-5.333-27.167-16-37.5-23.667-15.5-39-15.5c-14.667 0-27.5 5.167-38.5 15.5s-16.5 22.833-16.5 37.5zm233-1c0 14.667 5.5 27.334 16.5 38.001s23.833 16 38.5 16c15.333 0 28.333-5.333 39-16s16-23.334 16-38.001-5.333-27.167-16-37.5-23.667-15.5-39-15.5c-14.667 0-27.5 5.167-38.5 15.5s-16.5 22.833-16.5 37.5z"/><glyph glyph-name="multiply" unicode="×" d="m124 112-47 46 156 158L77 472l47 47 156-156 156 156 47-47-156-156 156-158-46-46-157 156z"/><glyph glyph-name="Oslash" unicode="Ø" horiz-adv-x="781" d="m739 631-82.999-83c51.333-62.667 77-135.334 77-218.001 2-94-31.333-174.667-100-242s-149.667-100.333-243-99c-82 0-154.333 25-217 75l-83-83-48 48 83 83c-51.333 62.667-77 135.334-77 218.001-2 94 31 174.667 99 242s149 100.333 243 99c81.333 0 153.666-25.333 216.999-76l84 84zM126.001 331c0-64 17.333-119.333 52-166l379 379c-46.667 38.667-102 58-166 58-75.333 0-138.333-26-189-78s-76-116.333-76-193zm529 0c0 63.333-17.335 118.332-52.002 164.999l-379-381c46.667-38 102.334-57 167.001-57 74.667 0 137.334 26.333 188.001 79s76 117.334 76 194.001z"/><glyph glyph-name="Ugrave" unicode="Ù" horiz-adv-x="689" d="M82 262v398h78V257c0-62.667 16.833-111 50.5-145S289 61 345 61c55.333 0 99.666 17 132.999 51s50 82.333 50 145v403h78V262c0-84.667-24.167-151.334-72.5-200.001s-111.166-73-188.499-73c-78.667 0-142.167 24.333-190.5 73S82 177.333 82 262zm233 462L195 896v14h94l85-186h-59z"/><glyph glyph-name="Uacute" unicode="Ú" horiz-adv-x="689" d="M82 262v398h78V257c0-62.667 16.833-111 50.5-145S289 61 345 61c55.333 0 99.666 17 132.999 51s50 82.333 50 145v403h78V262c0-84.667-24.167-151.334-72.5-200.001s-111.166-73-188.499-73c-78.667 0-142.167 24.333-190.5 73S82 177.333 82 262zm232 462 85 186h94v-14L373 724h-59z"/><glyph glyph-name="Ucircumflex" unicode="Û" horiz-adv-x="689" d="M82 262v398h78V257c0-62.667 16.833-111 50.5-145S289 61 345 61c55.333 0 99.666 17 132.999 51s50 82.333 50 145v403h78V262c0-84.667-24.167-151.334-72.5-200.001s-111.166-73-188.499-73c-78.667 0-142.167 24.333-190.5 73S82 177.333 82 262zm432 462h-60L344 832 233 724h-60l147 186h47z"/><glyph glyph-name="Udieresis" unicode="Ü" horiz-adv-x="689" d="M82 262v398h78V257c0-62.667 16.833-111 50.5-145S289 61 345 61c55.333 0 99.666 17 132.999 51s50 82.333 50 145v403h78V262c0-84.667-24.167-151.334-72.5-200.001s-111.166-73-188.499-73c-78.667 0-142.167 24.333-190.5 73S82 177.333 82 262zm90 548c0 14.667 5.5 27.167 16.5 37.5S212.333 863 227 863c15.333 0 28.333-5.167 39-15.5s16-22.833 16-37.5-5.333-27.167-16-37.5-23.667-15.5-39-15.5c-14.667 0-27.5 5.167-38.5 15.5S172 795.333 172 810zm233-1c0 14.667 5.5 27.334 16.5 38.001s23.833 16 38.5 16c15.333 0 28.333-5.333 39-16s16-23.334 16-38.001-5.333-27.167-16-37.5-23.667-15.5-39-15.5c-14.667 0-27.5 5.167-38.5 15.5S405 794.333 405 809z"/><glyph glyph-name="Yacute" unicode="Ý" horiz-adv-x="616" d="M576 660 347 273V0h-78v273L40 660h88l180-310 181 310h87zm-300 64 85 186h94v-14L335 724h-59z"/><glyph glyph-name="Thorn" unicode="Þ" horiz-adv-x="573" d="M91 0v660h78V542h154c64 0 115.167-18 153.5-54S534 404.667 534 346c0-57.333-19.333-104.5-58-141.5S386.333 149 323 149H169V0H91zm78 219 152-.001c41.333 0 73.666 11.333 96.999 34s35 53.334 35 92.001-11.667 69.5-35 92.5S362.333 472 321 472H169V219z"/><glyph glyph-name="germandbls" unicode="ß" horiz-adv-x="611" d="m248 57 43.001 55.996c37.333-35.333 80-53 128-53 57.333 0 86 20.333 86 61 0 14-3.667 25.667-11 35-7.333 10.667-15.333 18.334-24 23.001l-53 32c-38 22.667-65.333 43.334-82 62.001s-25 39.667-25 63c0 22 6 48.333 18 79l42 116c10 27.333 15 51.333 15 72 0 26.667-8.5 47.834-25.5 63.501s-40.167 23.5-69.5 23.5c-38.667 0-69.834-13.333-93.501-40S161 585.665 161 537v-537H85v540c0 69.332 19 123.332 57 162 39.333 39.332 90.333 59 153 59 51.333 0 92.333-13 123-39s46-61.668 46-107c0-25.334-4.667-51.334-14-78l-42-121c-11.333-31.334-17-53.667-17-67 0-11.333 3-21.333 9-30 8.667-10.667 33-28 73-52 39.333-23.333 67.5-45.666 84.5-66.999s25.5-46.333 25.5-75c0-41.333-16-74.333-48-99s-72.667-37-122-37c-66 0-121 22.667-165 68z"/><glyph glyph-name="agrave" unicode="à" horiz-adv-x="528" d="M450 300V0h-72v63c-37.333-49.333-92-74-164-74-50.667 0-91.667 12.5-123 37.5S44 84.667 44 126s16 74.333 48 99 74.333 37 127 37h154v42c0 39.333-10.5 69.666-31.5 90.999s-49.833 32-86.5 32c-54.667 0-102-26-142-78l-51 42c43.333 71.333 109.333 107 198 107 58.667 0 105-17.167 139-51.5S450 363.333 450 300zm-77-113v12H228c-70 0-105-23-105-69 0-24 9.5-42.833 28.5-56.5S194.667 53 224 53c40.667 0 75.667 13 105 39s44 57.667 44 95zM229 566 109 766v14h94l85-214h-59z"/><glyph glyph-name="aacute" unicode="á" horiz-adv-x="528" d="M450 300V0h-72v63c-37.333-49.333-92-74-164-74-50.667 0-91.667 12.5-123 37.5S44 84.667 44 126s16 74.333 48 99 74.333 37 127 37h154v42c0 39.333-10.5 69.666-31.5 90.999s-49.833 32-86.5 32c-54.667 0-102-26-142-78l-51 42c43.333 71.333 109.333 107 198 107 58.667 0 105-17.167 139-51.5S450 363.333 450 300zm-77-113v12H228c-70 0-105-23-105-69 0-24 9.5-42.833 28.5-56.5S194.667 53 224 53c40.667 0 75.667 13 105 39s44 57.667 44 95zM231 566l85 214h94v-14L290 566h-59z"/><glyph glyph-name="acircumflex" unicode="â" horiz-adv-x="528" d="M450 300V0h-72v63c-37.333-49.333-92-74-164-74-50.667 0-91.667 12.5-123 37.5S44 84.667 44 126s16 74.333 48 99 74.333 37 127 37h154v42c0 39.333-10.5 69.666-31.5 90.999s-49.833 32-86.5 32c-54.667 0-102-26-142-78l-51 42c43.333 71.333 109.333 107 198 107 58.667 0 105-17.167 139-51.5S450 363.333 450 300zm-77-113v12H228c-70 0-105-23-105-69 0-24 9.5-42.833 28.5-56.5S194.667 53 224 53c40.667 0 75.667 13 105 39s44 57.667 44 95zm45 379h-58L260 694 159 566h-59l136 214h47z"/><glyph glyph-name="atilde" unicode="ã" horiz-adv-x="528" d="M450 300V0h-72v63c-37.333-49.333-92-74-164-74-50.667 0-91.667 12.5-123 37.5S44 84.667 44 126s16 74.333 48 99 74.333 37 127 37h154v42c0 39.333-10.5 69.666-31.5 90.999s-49.833 32-86.5 32c-54.667 0-102-26-142-78l-51 42c43.333 71.333 109.333 107 198 107 58.667 0 105-17.167 139-51.5S450 363.333 450 300zm-77-113v12H228c-70 0-105-23-105-69 0-24 9.5-42.833 28.5-56.5S194.667 53 224 53c40.667 0 75.667 13 105 39s44 57.667 44 95zM263 622l-26 22c-.667.667-3.667 3-9 7s-9 6.667-11 8-5.167 3-9.5 5-8.5 3-12.5 3c-18.667 0-28-13.667-28-41v-17h-64c-.667 4-1 12.333-1 25 0 30.667 7.833 55.667 23.5 75s36.167 29 61.5 29c24 0 46.667-8.667 68-26l26-22c17.333-15.333 31.333-23 42-23 18.667 0 28 13.667 28 41v17h64c.667-4 1-12.333 1-25 0-30.667-7.833-55.667-23.5-75s-36.167-29-61.5-29c-23.333 0-46 8.667-68 26z"/><glyph glyph-name="adieresis" unicode="ä" horiz-adv-x="528" d="M450 300V0h-72v63c-37.333-49.333-92-74-164-74-50.667 0-91.667 12.5-123 37.5S44 84.667 44 126s16 74.333 48 99 74.333 37 127 37h154v42c0 39.333-10.5 69.666-31.5 90.999s-49.833 32-86.5 32c-54.667 0-102-26-142-78l-51 42c43.333 71.333 109.333 107 198 107 58.667 0 105-17.167 139-51.5S450 363.333 450 300zm-77-113v12H228c-70 0-105-23-105-69 0-24 9.5-42.833 28.5-56.5S194.667 53 224 53c40.667 0 75.667 13 105 39s44 57.667 44 95zM97 673c0 14 5.667 26.501 17 37.501s24 16.5 38 16.5c15.333 0 28.5-5.333 39.5-16S208 687.667 208 673s-5.5-27.167-16.5-37.5S167.333 620 152 620c-14 0-26.667 5.333-38 16s-17 23-17 37zm212 .001c0 14.667 5.667 27.334 17 38.001s24.333 16 39 16c15.333 0 28.333-5.333 39-16s16-23.334 16-38.001-5.333-27.167-16-37.5-23.667-15.5-39-15.5c-14.667 0-27.667 5.333-39 16s-17 23-17 37z"/><glyph glyph-name="aring" unicode="å" horiz-adv-x="528" d="M450 300V0h-72v63c-37.333-49.333-92-74-164-74-50.667 0-91.667 12.5-123 37.5S44 84.667 44 126s16 74.333 48 99 74.333 37 127 37h154v42c0 39.333-10.5 69.666-31.5 90.999s-49.833 32-86.5 32c-54.667 0-102-26-142-78l-51 42c43.333 71.333 109.333 107 198 107 58.667 0 105-17.167 139-51.5S450 363.333 450 300zm-77-113v12H228c-70 0-105-23-105-69 0-24 9.5-42.833 28.5-56.5S194.667 53 224 53c40.667 0 75.667 13 105 39s44 57.667 44 95zM148 668c0 30.667 10.5 56.334 31.5 77.001s47.167 31 78.5 31 57.666-10.333 78.999-31 32-46.334 32-77.001-10.667-56.5-32-77.5S289.333 559 258 559c-30.667 0-56.667 10.5-78 31.5s-32 46.833-32 77.5zm161 0c0 14.667-5.001 27-15.001 37s-21.667 15-35 15c-14 0-26-5-36-15s-15-22.333-15-37 4.833-26.667 14.5-36 21.834-14 36.501-14c14 0 25.833 4.667 35.5 14s14.5 21.333 14.5 36z"/><glyph glyph-name="ae" unicode="æ" horiz-adv-x="895" d="m837 211-382 .001c6.667-46 26.167-82.667 58.5-110s71.833-41 118.5-41c54.667 0 103.667 21.667 147 65l46-51c-50.667-56.667-115.334-85-194.001-85-44.667 0-85.834 10.5-123.501 31.5s-67.5 49.833-89.5 86.5c-17.333-37.333-43.833-66.333-79.5-87s-76.5-31-122.5-31c-51.333 0-92.833 12.833-124.5 38.5s-47.5 59.834-47.5 102.501c0 43.333 16 78.166 48 104.499s74.333 39.5 127 39.5h154v30c0 39.333-10.5 69.666-31.5 90.999s-49.5 32-85.5 32c-54 0-101-26-141-78l-51 42c21.333 34.667 49.333 61.167 84 79.5S220.332 498 260.999 498c82.667 0 138.334-34 167.001-102 22 32 50.167 57 84.5 75S584 498 624 498c62 0 114.167-20.833 156.5-62.5S844 341 844 277c0-30-2.333-52-7-66zm-382 63.001h308.999c2.667 46-10 83.167-38 111.5s-63.333 42.5-106 42.5c-43.333 0-80.166-14.167-110.499-42.5s-48.5-65.5-54.5-111.5zm-82.001-88V211h-145c-70 0-105-24.333-105-73 0-26 9.5-46.5 28.5-61.5s43.5-22.5 73.5-22.5c39.333 0 73.833 12.833 103.5 38.5s44.5 56.834 44.5 93.501z"/><glyph glyph-name="ccedilla" unicode="ç" horiz-adv-x="551" d="M50 244c-1.333 69.333 23.333 129.332 74 179.999S235 499.333 305 498c42 0 80.333-9.333 115-28s63.334-44.667 86.001-78l-55-44c-38.667 52.667-87 79-145 79-50 0-92-17.833-126-53.5s-51-78.834-51-129.501c0-51.333 17-94.833 51-130.5s76-53.5 126-53.5c57.333 0 105.333 26 144 78l55-43c-48-70.667-114.667-106-200-106-70.667 0-130.834 24.833-180.501 74.5S50 173.333 50 244zm123.999-425.001-.001 54.999c18.667-2.667 37.334-4 56.001-4 52 0 78 21.667 78 65 0 26.667-11.333 51.334-34 74.001l33 17c44.667-22.667 67-56.667 67-102 0-33.333-12-60.833-36-82.5s-56-32.5-96-32.5c-23.333 0-46 3.333-68 10z"/><glyph glyph-name="egrave" unicode="è" horiz-adv-x="571" d="m515 220-384.997-.001c4.667-48 23.667-86.667 57-116s74-44 122-44c55.333 0 105 22 149 66l45-52c-54.667-56.667-119.667-85-195-85-72.667 0-133.834 24.5-183.501 73.5s-74.5 109.167-74.5 180.5c0 70.667 24.167 130.834 72.5 180.501S229.668 498 299.001 498c63.333 0 116.166-20.667 158.499-62S521 342 521 278c0-18.667-2-38-6-58zm-381.997 67.999h308.999c-.667 42.667-14.667 76.667-42 102s-61.666 38-102.999 38c-40.667 0-76-12.833-106-38.5s-49.333-59.5-58-101.5zm133.999 278-120 200v14h94l85-214h-59z"/><glyph glyph-name="eacute" unicode="é" horiz-adv-x="571" d="m515 220-384.997-.001c4.667-48 23.667-86.667 57-116s74-44 122-44c55.333 0 105 22 149 66l45-52c-54.667-56.667-119.667-85-195-85-72.667 0-133.834 24.5-183.501 73.5s-74.5 109.167-74.5 180.5c0 70.667 24.167 130.834 72.5 180.501S229.668 498 299.001 498c63.333 0 116.166-20.667 158.499-62S521 342 521 278c0-18.667-2-38-6-58zm-381.997 67.999h308.999c-.667 42.667-14.667 76.667-42 102s-61.666 38-102.999 38c-40.667 0-76-12.833-106-38.5s-49.333-59.5-58-101.5zm135.999 278 85 214h94v-14l-120-200h-59z"/><glyph glyph-name="ecircumflex" unicode="ê" horiz-adv-x="571" d="m515 220-384.997-.001c4.667-48 23.667-86.667 57-116s74-44 122-44c55.333 0 105 22 149 66l45-52c-54.667-56.667-119.667-85-195-85-72.667 0-133.834 24.5-183.501 73.5s-74.5 109.167-74.5 180.5c0 70.667 24.167 130.834 72.5 180.501S229.668 498 299.001 498c63.333 0 116.166-20.667 158.499-62S521 342 521 278c0-18.667-2-38-6-58zm-381.997 67.999h308.999c-.667 42.667-14.667 76.667-42 102s-61.666 38-102.999 38c-40.667 0-76-12.833-106-38.5s-49.333-59.5-58-101.5zm322.999 278h-58l-100 128-101-128h-59l136 214h47z"/><glyph glyph-name="edieresis" unicode="ë" horiz-adv-x="571" d="m515 220-384.997-.001c4.667-48 23.667-86.667 57-116s74-44 122-44c55.333 0 105 22 149 66l45-52c-54.667-56.667-119.667-85-195-85-72.667 0-133.834 24.5-183.501 73.5s-74.5 109.167-74.5 180.5c0 70.667 24.167 130.834 72.5 180.501S229.668 498 299.001 498c63.333 0 116.166-20.667 158.499-62S521 342 521 278c0-18.667-2-38-6-58zm-381.997 67.999h308.999c-.667 42.667-14.667 76.667-42 102s-61.666 38-102.999 38c-40.667 0-76-12.833-106-38.5s-49.333-59.5-58-101.5zm1.999 385c0 14 5.667 26.501 17 37.501s24 16.5 38 16.5c15.333 0 28.5-5.333 39.5-16s16.5-23.334 16.5-38.001-5.5-27.167-16.5-37.5-24.167-15.5-39.5-15.5c-14 0-26.667 5.333-38 16s-17 23-17 37zm212 .001c0 14.667 5.667 27.334 17 38.001s24.333 16 39 16c15.333 0 28.333-5.333 39-16s16-23.334 16-38.001-5.333-27.167-16-37.5-23.667-15.5-39-15.5c-14.667 0-27.667 5.333-39 16s-17 23-17 37z"/><glyph glyph-name="igrave" unicode="ì" horiz-adv-x="246" d="M85 0v487h77V0H85zm10 566L5 766v14h94l55-214H95z"/><glyph glyph-name="iacute" unicode="í" horiz-adv-x="246" d="M85 0v487h77V0H85zm8 566 55 214h94v-14l-90-200H93z"/><glyph glyph-name="icircumflex" unicode="î" horiz-adv-x="246" d="M85 0v487h77V0H85zm198 566h-58L125 694 24 566h-59l136 214h47z"/><glyph glyph-name="idieresis" unicode="ï" horiz-adv-x="246" d="M85 0v487h77V0H85zM-23 673c0 14.667 5.5 27.334 16.5 38.001s23.833 16 38.5 16c15.333 0 28.5-5.333 39.5-16S88 687.667 88 673s-5.5-27.167-16.5-37.5S47.333 620 32 620c-14.667 0-27.5 5.167-38.5 15.5S-23 658.333-23 673zm182 0c0 14.667 5.667 27.334 17 38.001s24.333 16 39 16c15.333 0 28.333-5.333 39-16s16-23.334 16-38.001-5.333-27.167-16-37.5-23.667-15.5-39-15.5c-14.667 0-27.667 5.333-39 16s-17 23-17 37z"/><glyph glyph-name="eth" unicode="ð" horiz-adv-x="569" d="M518 222c0-66-22.17-121.333-66.503-166S351.331-11 283.998-11 160.832 10.833 116.5 54.5 50 152.334 50 217.001C50 280.334 71.832 333.667 115.5 377S212.333 442 275 442c20 0 40-2.667 60-8L234 574 85 502l-27 57 138 66-67 93 58 43 77-104 154 74 28-55-145-70 109-147c26.667-36.667 46.667-65.667 60-87 32-49.333 48-99.333 48-150zm-79.003-5c0 44.667-14.667 81.832-44 111.499s-66.333 44.5-111 44.5-81.667-14.833-111-44.5-44-67.167-44-112.5 14.667-82.666 44-111.999 66.333-44 111-44 81.667 14.833 111 44.5 44 67.167 44 112.5z"/><glyph glyph-name="ntilde" unicode="ñ" horiz-adv-x="566" d="M488 306V0h-77v297c0 38.667-10.833 70-32.5 94s-51.167 36-88.5 36-68-12.167-92-36.5-36-55.5-36-93.5V0H85v487h72v-52c38 42 88 63 150 63 56 0 100.167-17.5 132.5-52.5S488 364 488 306zM289 622l-26 22c-.667.667-3.667 3-9 7s-9 6.667-11 8-5.167 3-9.5 5-8.5 3-12.5 3c-18.667 0-28-13.667-28-41v-17h-64c-.667 4-1 12.333-1 25 0 30.667 7.833 55.667 23.5 75s36.167 29 61.5 29c24 0 46.667-8.667 68-26l26-22c17.333-15.333 31.333-23 42-23 18.667 0 28 13.667 28 41v17h64c.667-4 1-12.333 1-25 0-30.667-7.833-55.667-23.5-75s-36.167-29-61.5-29c-23.333 0-46 8.667-68 26z"/><glyph glyph-name="ograve" unicode="ò" horiz-adv-x="610" d="M50 244c-1.333 69.333 23.499 129.333 74.499 180s111.167 75.334 180.5 74.001c70 1.333 130.333-23.334 181-74.001S561.333 313.333 560 244c1.333-68.667-23.667-128.5-75-179.5S373.334-11.333 304.001-10c-69.333-1.333-129.333 23.5-180 74.5S48.667 175.333 50 244zm430.999-1c0 52-16.832 95.667-50.499 131S355 427 305 427s-91.833-17.5-125.5-52.5S129 295.667 129 243c0-51.333 16.833-94.5 50.5-129.5S254.667 61 304 61s91.166 17.667 125.499 53 51.5 78.333 51.5 129zM276 566 156 766v14h94l85-214h-59z"/><glyph glyph-name="oacute" unicode="ó" horiz-adv-x="610" d="M50 244c-1.333 69.333 23.499 129.333 74.499 180s111.167 75.334 180.5 74.001c70 1.333 130.333-23.334 181-74.001S561.333 313.333 560 244c1.333-68.667-23.667-128.5-75-179.5S373.334-11.333 304.001-10c-69.333-1.333-129.333 23.5-180 74.5S48.667 175.333 50 244zm430.999-1c0 52-16.832 95.667-50.499 131S355 427 305 427s-91.833-17.5-125.5-52.5S129 295.667 129 243c0-51.333 16.833-94.5 50.5-129.5S254.667 61 304 61s91.166 17.667 125.499 53 51.5 78.333 51.5 129zM278 566l85 214h94v-14L337 566h-59z"/><glyph glyph-name="ocircumflex" unicode="ô" horiz-adv-x="610" d="M50 244c-1.333 69.333 23.499 129.333 74.499 180s111.167 75.334 180.5 74.001c70 1.333 130.333-23.334 181-74.001S561.333 313.333 560 244c1.333-68.667-23.667-128.5-75-179.5S373.334-11.333 304.001-10c-69.333-1.333-129.333 23.5-180 74.5S48.667 175.333 50 244zm430.999-1c0 52-16.832 95.667-50.499 131S355 427 305 427s-91.833-17.5-125.5-52.5S129 295.667 129 243c0-51.333 16.833-94.5 50.5-129.5S254.667 61 304 61s91.166 17.667 125.499 53 51.5 78.333 51.5 129zM464 566h-58L306 694 205 566h-59l136 214h47z"/><glyph glyph-name="otilde" unicode="õ" horiz-adv-x="610" d="M50 244c-1.333 69.333 23.499 129.333 74.499 180s111.167 75.334 180.5 74.001c70 1.333 130.333-23.334 181-74.001S561.333 313.333 560 244c1.333-68.667-23.667-128.5-75-179.5S373.334-11.333 304.001-10c-69.333-1.333-129.333 23.5-180 74.5S48.667 175.333 50 244zm430.999-1c0 52-16.832 95.667-50.499 131S355 427 305 427s-91.833-17.5-125.5-52.5S129 295.667 129 243c0-51.333 16.833-94.5 50.5-129.5S254.667 61 304 61s91.166 17.667 125.499 53 51.5 78.333 51.5 129zM309 622l-26 22c-.667.667-3.667 3-9 7s-9 6.667-11 8-5.167 3-9.5 5-8.5 3-12.5 3c-18.667 0-28-13.667-28-41v-17h-64c-.667 4-1 12.333-1 25 0 30.667 7.833 55.667 23.5 75s36.167 29 61.5 29c24 0 46.667-8.667 68-26l26-22c17.333-15.333 31.333-23 42-23 18.667 0 28 13.667 28 41v17h64c.667-4 1-12.333 1-25 0-30.667-7.833-55.667-23.5-75s-36.167-29-61.5-29c-23.333 0-46 8.667-68 26z"/><glyph glyph-name="odieresis" unicode="ö" horiz-adv-x="610" d="M50 244c-1.333 69.333 23.499 129.333 74.499 180s111.167 75.334 180.5 74.001c70 1.333 130.333-23.334 181-74.001S561.333 313.333 560 244c1.333-68.667-23.667-128.5-75-179.5S373.334-11.333 304.001-10c-69.333-1.333-129.333 23.5-180 74.5S48.667 175.333 50 244zm430.999-1c0 52-16.832 95.667-50.499 131S355 427 305 427s-91.833-17.5-125.5-52.5S129 295.667 129 243c0-51.333 16.833-94.5 50.5-129.5S254.667 61 304 61s91.166 17.667 125.499 53 51.5 78.333 51.5 129zM143 673c0 14 5.667 26.501 17 37.501s24 16.5 38 16.5c15.333 0 28.5-5.333 39.5-16S254 687.667 254 673s-5.5-27.167-16.5-37.5S213.333 620 198 620c-14 0-26.667 5.333-38 16s-17 23-17 37zm212 .001c0 14.667 5.667 27.334 17 38.001s24.333 16 39 16c15.333 0 28.333-5.333 39-16s16-23.334 16-38.001-5.333-27.167-16-37.5-23.667-15.5-39-15.5c-14.667 0-27.667 5.333-39 16s-17 23-17 37z"/><glyph glyph-name="divide" unicode="÷" d="M223 491c0 15.333 5.333 28.166 16 38.499s23.667 15.5 39 15.5 28.333-5.167 39-15.5 16-23.166 16-38.499c0-14.667-5.333-27.167-16-37.5S293.333 438 278 438s-28.333 5.167-39 15.5-16 22.833-16 37.5zM56 281v68h447v-68H56zm167-146c0 15.333 5.333 28 16 38s23.667 15 39 15 28.333-5 39-15 16-22.667 16-38c0-14.667-5.333-27.167-16-37.5S293.333 82 278 82s-28.333 5.167-39 15.5-16 22.833-16 37.5z"/><glyph glyph-name="oslash" unicode="ø" horiz-adv-x="620" d="m572 458-59-60.001c34.667-44.667 52-96.334 52-155.001 1.333-68.667-23.834-128.5-75.501-179.5s-111.834-75.833-180.501-74.5c-58 0-109.333 17.333-154 52l-58-60-48 48 59 59c-34.667 44.667-52 96.334-52 155.001-1.333 70 23.334 130.333 74.001 181s110.667 75.334 180 74.001c58.667 0 110.334-17.333 155.001-52l59 58zM130 242.999c0-40.667 10-76.333 30-107l258 260c-32.667 22.667-68.667 34-108 34-52 0-95-17.833-129-53.5s-51-80.167-51-133.5zM491 243c0 40.667-10 76.333-30 107L202 91c30-24 65.667-36 107-36 50.667 0 93.667 18.167 129 54.5s53 80.833 53 133.5z"/><glyph glyph-name="ugrave" unicode="ù" d="m79 194-.002 293.001h76v-298c0-38.667 11.833-69.834 35.5-93.501S244.332 60 280.999 60c36 0 65.667 12 89 36s35 55 35 93v298h77V194c0-60.667-19.167-110-57.5-148S338.333-11 281-11c-58 0-106.167 19-144.5 57S79 133.333 79 194zm170.998 372.001-120 200v14h94l85-214h-59z"/><glyph glyph-name="uacute" unicode="ú" d="m79 194-.002 293.001h76v-298c0-38.667 11.833-69.834 35.5-93.501S244.332 60 280.999 60c36 0 65.667 12 89 36s35 55 35 93v298h77V194c0-60.667-19.167-110-57.5-148S338.333-11 281-11c-58 0-106.167 19-144.5 57S79 133.333 79 194zm172.998 372.001 85 214h94v-14l-120-200h-59z"/><glyph glyph-name="ucircumflex" unicode="û" d="m79 194-.002 293.001h76v-298c0-38.667 11.833-69.834 35.5-93.501S244.332 60 280.999 60c36 0 65.667 12 89 36s35 55 35 93v298h77V194c0-60.667-19.167-110-57.5-148S338.333-11 281-11c-58 0-106.167 19-144.5 57S79 133.333 79 194zm359.998 372.001h-58l-100 128-101-128h-59l136 214h47z"/><glyph glyph-name="udieresis" unicode="ü" d="m79 194-.002 293.001h76v-298c0-38.667 11.833-69.834 35.5-93.501S244.332 60 280.999 60c36 0 65.667 12 89 36s35 55 35 93v298h77V194c0-60.667-19.167-110-57.5-148S338.333-11 281-11c-58 0-106.167 19-144.5 57S79 133.333 79 194zm38.998 479.001c0 14 5.667 26.501 17 37.501s24 16.5 38 16.5c15.333 0 28.5-5.333 39.5-16s16.5-23.334 16.5-38.001-5.5-27.167-16.5-37.5-24.167-15.5-39.5-15.5c-14 0-26.667 5.333-38 16s-17 23-17 37zm212 .001c0 14.667 5.667 27.334 17 38.001s24.333 16 39 16c15.333 0 28.333-5.333 39-16s16-23.334 16-38.001-5.333-27.167-16-37.5-23.667-15.5-39-15.5c-14.667 0-27.667 5.333-39 16s-17 23-17 37z"/><glyph glyph-name="yacute" unicode="ý" horiz-adv-x="539" d="m431 487 82-.001-240-555c-36-82-91-123-165-123-26 0-51 3.333-75 10v65c28-3.333 47.667-5 59-5 26.667 0 48.667 5.833 66 17.5S190-71.667 202-43l26 58L26 487h83L270 99zm-192 78.999 85 214h94v-14l-120-200h-59z"/><glyph glyph-name="thorn" unicode="þ" horiz-adv-x="632" d="M582 244c0-72-23.167-132.5-69.5-181.5S409-11 341-11c-76.667 0-136.334 27-179.001 81v-250h-77v930h77V416c19.333 25.333 44.833 45.333 76.5 60S304.333 498 341 498c69.333 0 126.833-24.333 172.5-73S582 316 582 244zm-79-1c0 52.667-16.5 96.499-49.5 131.499s-74.167 52.5-123.5 52.5c-46.667 0-86.5-16-119.5-48s-49.5-77-49.5-135c0-59.333 16.167-104.833 48.5-136.5s72.5-47.5 120.5-47.5c49.333 0 90.5 17.333 123.5 52S503 190.333 503 243z"/><glyph glyph-name="ydieresis" unicode="ÿ" horiz-adv-x="539" d="m431 487 82-.001-240-555c-36-82-91-123-165-123-26 0-51 3.333-75 10v65c28-3.333 47.667-5 59-5 26.667 0 48.667 5.833 66 17.5S190-71.667 202-43l26 58L26 487h83L270 99zM105 672.999c0 14 5.667 26.501 17 37.501s24 16.5 38 16.5c15.333 0 28.5-5.333 39.5-16s16.5-23.334 16.5-38.001-5.5-27.167-16.5-37.5-24.167-15.5-39.5-15.5c-14 0-26.667 5.333-38 16s-17 23-17 37zM317 673c0 14.667 5.667 27.334 17 38.001s24.333 16 39 16c15.333 0 28.333-5.333 39-16s16-23.334 16-38.001-5.333-27.167-16-37.5-23.667-15.5-39-15.5c-14.667 0-27.667 5.333-39 16s-17 23-17 37z"/><glyph glyph-name="Amacron" unicode="Ā" horiz-adv-x="663" d="m549 0-56 134H169L113 0H31l286 671h29L632 0h-83zm-86 204L331 529 199 204h264zM185 770v63h295v-63H185z"/><glyph glyph-name="amacron" unicode="ā" horiz-adv-x="528" d="M450 300V0h-72v63c-37.333-49.333-92-74-164-74-50.667 0-91.667 12.5-123 37.5S44 84.667 44 126s16 74.333 48 99 74.333 37 127 37h154v42c0 39.333-10.5 69.666-31.5 90.999s-49.833 32-86.5 32c-54.667 0-102-26-142-78l-51 42c43.333 71.333 109.333 107 198 107 58.667 0 105-17.167 139-51.5S450 363.333 450 300zm-77-113v12H228c-70 0-105-23-105-69 0-24 9.5-42.833 28.5-56.5S194.667 53 224 53c40.667 0 75.667 13 105 39s44 57.667 44 95zM122 642v62h275v-62H122z"/><glyph glyph-name="Abreve" unicode="Ă" horiz-adv-x="663" d="m549 0-56 134H169L113 0H31l286 671h29L632 0h-83zm-86 204L331 529 199 204h264zM180 885v24.998h63v-24c0-30 8-54 24-72s37.333-27 64-27c27.333 0 49 8.833 65 26.5s24 41.834 24 72.501v24h63v-25c0-47.333-14.167-85.666-42.5-114.999s-64.833-44-109.5-44c-45.333 0-81.833 14.5-109.5 43.5S180 837 180 885z"/><glyph glyph-name="abreve" unicode="ă" horiz-adv-x="528" d="M450 300V0h-72v63c-37.333-49.333-92-74-164-74-50.667 0-91.667 12.5-123 37.5S44 84.667 44 126s16 74.333 48 99 74.333 37 127 37h154v42c0 39.333-10.5 69.666-31.5 90.999s-49.833 32-86.5 32c-54.667 0-102-26-142-78l-51 42c43.333 71.333 109.333 107 198 107 58.667 0 105-17.167 139-51.5S450 363.333 450 300zm-77-113v12H228c-70 0-105-23-105-69 0-24 9.5-42.833 28.5-56.5S194.667 53 224 53c40.667 0 75.667 13 105 39s44 57.667 44 95zM107 731v31h63v-29c0-30.667 8-54.834 24-72.501s37.333-26.5 64-26.5c27.333 0 49 8.833 65 26.5s24 41.834 24 72.501v29h63v-31c0-47.333-14-85.5-42-114.5S303.333 573 258 573c-44.667 0-81 14.667-109 44s-42 67.333-42 114z"/><glyph glyph-name="Aogonek" unicode="Ą" horiz-adv-x="663" d="m549 0-56 134H169L113 0H31l286 671h29L632 0h-83zm-86 204L331 529 199 204h264zm-9-308c0 24.667 10.667 47 32 67 21.333 19.333 60 43.333 116 72l31-35-50-33c-22-14.667-36.167-25.5-42.5-32.5S531-81.333 531-92c0-24.667 16-37 48-37 15.333 0 33.333 2.333 54 7v-58c-24-7.333-48-11-72-11-32 0-57.833 8-77.5 24S454-130 454-104z"/><glyph glyph-name="aogonek" unicode="ą" horiz-adv-x="528" d="M450 300V0h-72v63c-37.333-49.333-92-74-164-74-50.667 0-91.667 12.5-123 37.5S44 84.667 44 126s16 74.333 48 99 74.333 37 127 37h154v42c0 39.333-10.5 69.666-31.5 90.999s-49.833 32-86.5 32c-54.667 0-102-26-142-78l-51 42c43.333 71.333 109.333 107 198 107 58.667 0 105-17.167 139-51.5S450 363.333 450 300zm-77-113v12H228c-70 0-105-23-105-69 0-24 9.5-42.833 28.5-56.5S194.667 53 224 53c40.667 0 75.667 13 105 39s44 57.667 44 95zM271-104c0 24.667 10.667 47.001 32 67.001 21.333 19.333 60 43.333 116 72l31-35-50-33C384.667-43.666 374.167-51.333 368.5-56S358-66 354-72s-6-12.667-6-20c0-24.667 16-37 48-37 15.333 0 33.333 2.333 54 7v-58c-24-7.333-48-11-72-11-32 0-57.833 8-77.5 24S271-130 271-104z"/><glyph glyph-name="Cacute" unicode="Ć" horiz-adv-x="715" d="M48 330c-2 94 31.167 174.667 99.5 242S297 672.333 391 671c58 0 111.167-12.667 159.5-38S637 573 665 529l-58-46c-54 77.333-125.667 116-215 116-74.667 0-137.167-25.667-187.5-77S129 406.667 129 330s25.167-140.667 75.5-192S317.333 61 392 61c89.333 0 161 38.667 215 116l58-46c-28-44-66.167-78.667-114.5-104S449-11 391-11c-94-1.333-175.167 31.667-243.5 99S46 236 48 330zm314 394 85 186h94v-14L421 724h-59z"/><glyph glyph-name="cacute" unicode="ć" horiz-adv-x="551" d="M50 244c-1.333 69.333 23.333 129.332 74 179.999S235 499.333 305 498c42 0 80.333-9.333 115-28s63.334-44.667 86.001-78l-55-44c-38.667 52.667-87 79-145 79-50 0-92-17.833-126-53.5s-51-78.834-51-129.501c0-51.333 17-94.833 51-130.5s76-53.5 126-53.5c57.333 0 105.333 26 144 78l55-43c-48-70.667-114.667-106-200-106-70.667 0-130.834 24.833-180.501 74.5S50 173.333 50 244zm226.999 321.999 85 214h94v-14l-120-200h-59z"/><glyph glyph-name="Ccircumflex" unicode="Ĉ" horiz-adv-x="715" d="M48 330c-2 94 31.167 174.667 99.5 242S297 672.333 391 671c58 0 111.167-12.667 159.5-38S637 573 665 529l-58-46c-54 77.333-125.667 116-215 116-74.667 0-137.167-25.667-187.5-77S129 406.667 129 330s25.167-140.667 75.5-192S317.333 61 392 61c89.333 0 161 38.667 215 116l58-46c-28-44-66.167-78.667-114.5-104S449-11 391-11c-94-1.333-175.167 31.667-243.5 99S46 236 48 330zm513 394h-60L391 832 280 724h-60l147 186h47z"/><glyph glyph-name="ccircumflex" unicode="ĉ" horiz-adv-x="551" d="M50 244c-1.333 69.333 23.333 129.332 74 179.999S235 499.333 305 498c42 0 80.333-9.333 115-28s63.334-44.667 86.001-78l-55-44c-38.667 52.667-87 79-145 79-50 0-92-17.833-126-53.5s-51-78.834-51-129.501c0-51.333 17-94.833 51-130.5s76-53.5 126-53.5c57.333 0 105.333 26 144 78l55-43c-48-70.667-114.667-106-200-106-70.667 0-130.834 24.833-180.501 74.5S50 173.333 50 244zm412.999 321.999h-58l-100 128-101-128h-59l136 214h47z"/><glyph glyph-name="Cdotaccent" unicode="Ċ" horiz-adv-x="715" d="M48 330c-2 94 31.167 174.667 99.5 242S297 672.333 391 671c58 0 111.167-12.667 159.5-38S637 573 665 529l-58-46c-54 77.333-125.667 116-215 116-74.667 0-137.167-25.667-187.5-77S129 406.667 129 330s25.167-140.667 75.5-192S317.333 61 392 61c89.333 0 161 38.667 215 116l58-46c-28-44-66.167-78.667-114.5-104S449-11 391-11c-94-1.333-175.167 31.667-243.5 99S46 236 48 330zm285 480c0 15.333 5.668 28.5 17.001 39.5s25 16.5 41 16.5c15.333 0 28.666-5.5 39.999-16.5s17-24.167 17-39.5c0-16-5.5-29.333-16.5-40S407 754 391 754s-29.667 5.333-41 16-17 24-17 40z"/><glyph glyph-name="cdotaccent" unicode="ċ" horiz-adv-x="551" d="M50 244c-1.333 69.333 23.333 129.332 74 179.999S235 499.333 305 498c42 0 80.333-9.333 115-28s63.334-44.667 86.001-78l-55-44c-38.667 52.667-87 79-145 79-50 0-92-17.833-126-53.5s-51-78.834-51-129.501c0-51.333 17-94.833 51-130.5s76-53.5 126-53.5c57.333 0 105.333 26 144 78l55-43c-48-70.667-114.667-106-200-106-70.667 0-130.834 24.833-180.501 74.5S50 173.333 50 244zm195.999 428.999c0 15.333 5.668 28.5 17.001 39.5s25 16.5 41 16.5c15.333 0 28.666-5.5 39.999-16.5s17-24.167 17-39.5c0-16-5.5-29.333-16.5-40s-24.5-16-40.5-16-29.667 5.333-41 16-17 24-17 40z"/><glyph glyph-name="Ccaron" unicode="Č" horiz-adv-x="715" d="M48 330c-2 94 31.167 174.667 99.5 242S297 672.333 391 671c58 0 111.167-12.667 159.5-38S637 573 665 529l-58-46c-54 77.333-125.667 116-215 116-74.667 0-137.167-25.667-187.5-77S129 406.667 129 330s25.167-140.667 75.5-192S317.333 61 392 61c89.333 0 161 38.667 215 116l58-46c-28-44-66.167-78.667-114.5-104S449-11 391-11c-94-1.333-175.167 31.667-243.5 99S46 236 48 330zm453 580h60L414 724h-47L220 910h60l111-108z"/><glyph glyph-name="ccaron" unicode="č" horiz-adv-x="551" d="M50 244c-1.333 69.333 23.333 129.332 74 179.999S235 499.333 305 498c42 0 80.333-9.333 115-28s63.334-44.667 86.001-78l-55-44c-38.667 52.667-87 79-145 79-50 0-92-17.833-126-53.5s-51-78.834-51-129.501c0-51.333 17-94.833 51-130.5s76-53.5 126-53.5c57.333 0 105.333 26 144 78l55-43c-48-70.667-114.667-106-200-106-70.667 0-130.834 24.833-180.501 74.5S50 173.333 50 244zm354.999 535.999h58l-135-214h-47l-136 214h59l101-128z"/><glyph glyph-name="Dcaron" unicode="Ď" horiz-adv-x="694" d="M91 0v660h196c109.333 0 196.5-30.5 261.5-91.5S646 428.333 646 331c0-96.667-32.667-176-98-238S395.667 0 287 0H91zm78 70 117.001-.001c85.333 0 153.166 24.333 203.499 73S565 254.333 565 331c0 77.333-25 139.833-75 187.5S372 590 286 590H169V70zm226.001 839.999h60l-147-186h-47l-147 186h60l111-108z"/><glyph glyph-name="dcaron" unicode="ď" horiz-adv-x="744" d="M471 750h77V0h-73v77c-18.667-27.333-44.5-48.833-77.5-64.5S329-11 291-11c-68.667 0-126 24.5-172 73.5S50 171.667 50 243c0 72 23.167 132.5 69.5 181.5S223 498 291 498c36.667 0 71-7.333 103-22s57.667-35 77-61v335zm1-507c0 58.667-16.5 104.001-49.5 136.001s-73.167 48-120.5 48c-49.333 0-90.5-17.333-123.5-52S129 296.667 129 244s16.5-96.5 49.5-131.5S252.667 60 302 60c47.333 0 87.5 16 120.5 48S472 185 472 243zm176 296.001 13 211h83l-39-211h-57z"/><glyph glyph-name="Dcroat" unicode="Đ" horiz-adv-x="694" d="M646 331c0-96.667-32.667-176-98-238S395.667 0 287 0H91v274H-4v66h95v320h196c109.333 0 196.5-30.5 261.5-91.5S646 428.333 646 331zm-81 0c0 77.333-24.999 139.832-74.999 187.499s-118 71.5-204 71.5h-117v-250h130v-66h-130v-204h117c85.333 0 153.166 24.333 203.499 73S565 254.333 565 331z"/><glyph glyph-name="dslash" unicode="đ" horiz-adv-x="634" d="m629 645 .001-64h-83V0h-72v79c-19.333-28-45.833-50-79.5-66s-69.5-24-107.5-24c-66.667 0-123 23.833-169 71.5s-69 106.167-69 175.5c0 70.667 22.833 129.667 68.5 177s102.167 71 169.5 71c37.333 0 72.166-7.5 104.499-22.5S450 425.667 470 399v182H251v64h219v105h76V645h83zM470.001 236c0 57.333-16.333 101.5-49 132.5s-72.667 46.5-120 46.5c-50 0-91.333-16.833-124-50.5s-49-76.5-49-128.5c0-50.667 16.5-93 49.5-127s74.167-51 123.5-51c47.333 0 87.333 15.333 120 46s49 74.667 49 132z"/><glyph glyph-name="Emacron" unicode="Ē" horiz-adv-x="566" d="M91 0v660h423v-70H169V388h264v-70H169V70h357V0H91zm65 770v63h295v-63H156z"/><glyph glyph-name="emacron" unicode="ē" horiz-adv-x="571" d="m515 220-384.997-.001c4.667-48 23.667-86.667 57-116s74-44 122-44c55.333 0 105 22 149 66l45-52c-54.667-56.667-119.667-85-195-85-72.667 0-133.834 24.5-183.501 73.5s-74.5 109.167-74.5 180.5c0 70.667 24.167 130.834 72.5 180.501S229.668 498 299.001 498c63.333 0 116.166-20.667 158.499-62S521 342 521 278c0-18.667-2-38-6-58zm-381.997 67.999h308.999c-.667 42.667-14.667 76.667-42 102s-61.666 38-102.999 38c-40.667 0-76-12.833-106-38.5s-49.333-59.5-58-101.5zm26.999 354v62h275v-62h-275z"/><glyph glyph-name="Ebreve" unicode="Ĕ" horiz-adv-x="566" d="M91 0v660h423v-70H169V388h264v-70H169V70h357V0H91zm60 885v24.998h63v-24c0-30 8-54 24-72s37.333-27 64-27c27.333 0 49 8.833 65 26.5s24 41.834 24 72.501v24h63v-25c0-47.333-14.167-85.666-42.5-114.999s-64.833-44-109.5-44c-45.333 0-81.833 14.5-109.5 43.5S151 837 151 885z"/><glyph glyph-name="ebreve" unicode="ĕ" horiz-adv-x="571" d="m515 220-384.997-.001c4.667-48 23.667-86.667 57-116s74-44 122-44c55.333 0 105 22 149 66l45-52c-54.667-56.667-119.667-85-195-85-72.667 0-133.834 24.5-183.501 73.5s-74.5 109.167-74.5 180.5c0 70.667 24.167 130.834 72.5 180.501S229.668 498 299.001 498c63.333 0 116.166-20.667 158.499-62S521 342 521 278c0-18.667-2-38-6-58zm-381.997 67.999h308.999c-.667 42.667-14.667 76.667-42 102s-61.666 38-102.999 38c-40.667 0-76-12.833-106-38.5s-49.333-59.5-58-101.5zm11.999 443v31h63v-29c0-30.667 8-54.834 24-72.501s37.333-26.5 64-26.5c27.333 0 49 8.833 65 26.5s24 41.834 24 72.501v29h63v-31c0-47.333-14-85.5-42-114.5s-64.667-43.5-110-43.5c-44.667 0-81 14.667-109 44s-42 67.333-42 114z"/><glyph glyph-name="Edotaccent" unicode="Ė" horiz-adv-x="566" d="M91 0v660h423v-70H169V388h264v-70H169V70h357V0H91zm154 810c0 15.333 5.668 28.5 17.001 39.5s25 16.5 41 16.5c15.333 0 28.666-5.5 39.999-16.5s17-24.167 17-39.5c0-16-5.5-29.333-16.5-40S319 754 303 754s-29.667 5.333-41 16-17 24-17 40z"/><glyph glyph-name="edotaccent" unicode="ė" horiz-adv-x="571" d="m515 220-384.997-.001c4.667-48 23.667-86.667 57-116s74-44 122-44c55.333 0 105 22 149 66l45-52c-54.667-56.667-119.667-85-195-85-72.667 0-133.834 24.5-183.501 73.5s-74.5 109.167-74.5 180.5c0 70.667 24.167 130.834 72.5 180.501S229.668 498 299.001 498c63.333 0 116.166-20.667 158.499-62S521 342 521 278c0-18.667-2-38-6-58zm-381.997 67.999h308.999c-.667 42.667-14.667 76.667-42 102s-61.666 38-102.999 38c-40.667 0-76-12.833-106-38.5s-49.333-59.5-58-101.5zm105.999 385c0 15.333 5.668 28.5 17.001 39.5s25 16.5 41 16.5c15.333 0 28.666-5.5 39.999-16.5s17-24.167 17-39.5c0-16-5.5-29.333-16.5-40s-24.5-16-40.5-16-29.667 5.333-41 16-17 24-17 40z"/><glyph glyph-name="Eogonek" unicode="Ę" horiz-adv-x="566" d="M91 0v660h423v-70H169V388h264v-70H169V70h357V0H91zm256-104c0 24.667 10.667 47 32 67 21.333 19.333 60 43.333 116 72l31-35-50-33c-21.333-14.667-35.333-25.5-42-32.5S424-81.333 424-92c0-24.667 16-37 48-37 15.333 0 33.333 2.333 54 7v-58c-24-7.333-48-11-72-11-32 0-57.833 8-77.5 24S347-130 347-104z"/><glyph glyph-name="eogonek" unicode="ę" horiz-adv-x="571" d="m515 220-384.997-.001c4.667-48 23.667-86.667 57-116s74-44 122-44c55.333 0 105 22 149 66l45-52c-54.667-56.667-119.667-85-195-85-72.667 0-133.834 24.5-183.501 73.5s-74.5 109.167-74.5 180.5c0 70.667 24.167 130.834 72.5 180.501S229.668 498 299.001 498c63.333 0 116.166-20.667 158.499-62S521 342 521 278c0-18.667-2-38-6-58zm-381.997 67.999h308.999c-.667 42.667-14.667 76.667-42 102s-61.666 38-102.999 38c-40.667 0-76-12.833-106-38.5s-49.333-59.5-58-101.5zm161.999-392c1.333 27.333 9 50.832 23 70.499s48.667 55.5 104 107.5h80l-92-98c-14.667-16.667-24.5-29.167-29.5-37.5s-7.5-18.5-7.5-30.5c0-24.667 15.667-37 47-37 15.333 0 33.333 2.333 54 7v-58c-24-7.333-48-11-72-11-32 0-57.833 7.833-77.5 23.5s-29.5 36.834-29.5 63.501z"/><glyph glyph-name="Ecaron" unicode="Ě" horiz-adv-x="566" d="M91 0v660h423v-70H169V388h264v-70H169V70h357V0H91zm322 910h60L326 724h-47L132 910h60l111-108z"/><glyph glyph-name="ecaron" unicode="ě" horiz-adv-x="571" d="m515 220-384.997-.001c4.667-48 23.667-86.667 57-116s74-44 122-44c55.333 0 105 22 149 66l45-52c-54.667-56.667-119.667-85-195-85-72.667 0-133.834 24.5-183.501 73.5s-74.5 109.167-74.5 180.5c0 70.667 24.167 130.834 72.5 180.501S229.668 498 299.001 498c63.333 0 116.166-20.667 158.499-62S521 342 521 278c0-18.667-2-38-6-58zm-381.997 67.999h308.999c-.667 42.667-14.667 76.667-42 102s-61.666 38-102.999 38c-40.667 0-76-12.833-106-38.5s-49.333-59.5-58-101.5zm264.999 492h58l-135-214h-47l-136 214h59l101-128z"/><glyph glyph-name="Gcircumflex" unicode="Ĝ" horiz-adv-x="746" d="M48 330c-1.333 94.667 31.835 175.503 99.502 242.503s148.834 99.833 243.501 98.5c55.333 0 106.333-11.833 153-35.5s85.334-56.834 116.001-99.501l-59-46c-54 72.667-124 109-210 109-74.667 1.333-137.334-24.334-188.001-77.001S127.669 405.667 129.002 331c-1.333-76 23.834-140.667 75.501-194s115.167-79.333 190.5-78c47.333 0 90.166 10.5 128.499 31.5s68.833 49.833 91.5 86.5v89h-225v70h303V160c-29.333-52-71-93.667-125-125-52.667-30.667-111.667-46-177-46-94.667-1.333-175.834 31.5-243.501 98.5S46.667 235.333 48 330zm515.001 394.003h-60l-110 108-111-108h-60l147 186h47z"/><glyph glyph-name="gcircumflex" unicode="ĝ" horiz-adv-x="637" d="m480 487 72.998-.002v-440c0-73.333-21.333-131.333-64-174s-100.334-64-173.001-64c-90 0-166.333 31.333-229 94l45 54c58.667-51.333 119.334-77 182.001-77 50.667 0 90.334 14.167 119.001 42.5s43 68.5 43 120.5v43c-19.333-25.333-45.166-45.166-77.499-59.499s-66.833-21.5-103.5-21.5c-68.667 0-125.667 23.333-171 70S56 180.333 56 251c0 70 22.833 128.667 68.5 176S227 498 295 498c38.667 0 74.5-7.833 107.5-23.5S461.333 437 480 409v78zm-3.002-236.002c0 55.333-16.5 98.166-49.5 128.499s-73.167 45.5-120.5 45.5c-50 0-91.333-16.5-124-49.5s-49-74.833-49-125.5c0-51.333 16.333-93.166 49-125.499s74-48.5 124-48.5c48 0 88.333 15.167 121 45.5s49 73.5 49 129.5zm-7 315h-58l-100 128-101-128h-59l136 214h47z"/><glyph glyph-name="Gbreve" unicode="Ğ" horiz-adv-x="746" d="M48 330c-1.333 94.667 31.835 175.503 99.502 242.503s148.834 99.833 243.501 98.5c55.333 0 106.333-11.833 153-35.5s85.334-56.834 116.001-99.501l-59-46c-54 72.667-124 109-210 109-74.667 1.333-137.334-24.334-188.001-77.001S127.669 405.667 129.002 331c-1.333-76 23.834-140.667 75.501-194s115.167-79.333 190.5-78c47.333 0 90.166 10.5 128.499 31.5s68.833 49.833 91.5 86.5v89h-225v70h303V160c-29.333-52-71-93.667-125-125-52.667-30.667-111.667-46-177-46-94.667-1.333-175.834 31.5-243.501 98.5S46.667 235.333 48 330zm193.001 555.003v24.998h63v-24c0-30 8-54 24-72s37.333-27 64-27c27.333 0 49 8.833 65 26.5s24 41.834 24 72.501v24h63v-25c0-47.333-14.167-85.666-42.5-114.999s-64.833-44-109.5-44c-45.333 0-81.833 14.5-109.5 43.5s-41.5 67.5-41.5 115.5z"/><glyph glyph-name="gbreve" unicode="ğ" horiz-adv-x="637" d="m480 487 72.998-.002v-440c0-73.333-21.333-131.333-64-174s-100.334-64-173.001-64c-90 0-166.333 31.333-229 94l45 54c58.667-51.333 119.334-77 182.001-77 50.667 0 90.334 14.167 119.001 42.5s43 68.5 43 120.5v43c-19.333-25.333-45.166-45.166-77.499-59.499s-66.833-21.5-103.5-21.5c-68.667 0-125.667 23.333-171 70S56 180.333 56 251c0 70 22.833 128.667 68.5 176S227 498 295 498c38.667 0 74.5-7.833 107.5-23.5S461.333 437 480 409v78zm-3.002-236.002c0 55.333-16.5 98.166-49.5 128.499s-73.167 45.5-120.5 45.5c-50 0-91.333-16.5-124-49.5s-49-74.833-49-125.5c0-51.333 16.333-93.166 49-125.499s74-48.5 124-48.5c48 0 88.333 15.167 121 45.5s49 73.5 49 129.5zm-318 480v31h63v-29c0-30.667 8-54.834 24-72.501s37.333-26.5 64-26.5c27.333 0 49 8.833 65 26.5s24 41.834 24 72.501v29h63v-31c0-47.333-14-85.5-42-114.5s-64.667-43.5-110-43.5c-44.667 0-81 14.667-109 44s-42 67.333-42 114z"/><glyph glyph-name="Gdotaccent" unicode="Ġ" horiz-adv-x="746" d="M48 330c-1.333 94.667 31.835 175.503 99.502 242.503s148.834 99.833 243.501 98.5c55.333 0 106.333-11.833 153-35.5s85.334-56.834 116.001-99.501l-59-46c-54 72.667-124 109-210 109-74.667 1.333-137.334-24.334-188.001-77.001S127.669 405.667 129.002 331c-1.333-76 23.834-140.667 75.501-194s115.167-79.333 190.5-78c47.333 0 90.166 10.5 128.499 31.5s68.833 49.833 91.5 86.5v89h-225v70h303V160c-29.333-52-71-93.667-125-125-52.667-30.667-111.667-46-177-46-94.667-1.333-175.834 31.5-243.501 98.5S46.667 235.333 48 330zm287.001 480.003c0 15.333 5.668 28.5 17.001 39.5s25 16.5 41 16.5c15.333 0 28.666-5.5 39.999-16.5s17-24.167 17-39.5c0-16-5.5-29.333-16.5-40s-24.5-16-40.5-16-29.667 5.333-41 16-17 24-17 40z"/><glyph glyph-name="gdotaccent" unicode="ġ" horiz-adv-x="637" d="m480 487 72.998-.002v-440c0-73.333-21.333-131.333-64-174s-100.334-64-173.001-64c-90 0-166.333 31.333-229 94l45 54c58.667-51.333 119.334-77 182.001-77 50.667 0 90.334 14.167 119.001 42.5s43 68.5 43 120.5v43c-19.333-25.333-45.166-45.166-77.499-59.499s-66.833-21.5-103.5-21.5c-68.667 0-125.667 23.333-171 70S56 180.333 56 251c0 70 22.833 128.667 68.5 176S227 498 295 498c38.667 0 74.5-7.833 107.5-23.5S461.333 437 480 409v78zm-3.002-236.002c0 55.333-16.5 98.166-49.5 128.499s-73.167 45.5-120.5 45.5c-50 0-91.333-16.5-124-49.5s-49-74.833-49-125.5c0-51.333 16.333-93.166 49-125.499s74-48.5 124-48.5c48 0 88.333 15.167 121 45.5s49 73.5 49 129.5zm-224 422c0 15.333 5.668 28.5 17.001 39.5s25 16.5 41 16.5c15.333 0 28.666-5.5 39.999-16.5s17-24.167 17-39.5c0-16-5.5-29.333-16.5-40s-24.5-16-40.5-16-29.667 5.333-41 16-17 24-17 40z"/><glyph glyph-name="uni0122" unicode="Ģ" horiz-adv-x="746" d="M48 330c-1.333 94.667 31.835 175.503 99.502 242.503s148.834 99.833 243.501 98.5c55.333 0 106.333-11.833 153-35.5s85.334-56.834 116.001-99.501l-59-46c-54 72.667-124 109-210 109-74.667 1.333-137.334-24.334-188.001-77.001S127.669 405.667 129.002 331c-1.333-76 23.834-140.667 75.501-194s115.167-79.333 190.5-78c47.333 0 90.166 10.5 128.499 31.5s68.833 49.833 91.5 86.5v89h-225v70h303V160c-29.333-52-71-93.667-125-125-52.667-30.667-111.667-46-177-46-94.667-1.333-175.834 31.5-243.501 98.5S46.667 235.333 48 330zm297.001-549.997 9 171h76l-25-171h-60z"/><glyph glyph-name="uni0123" unicode="ģ" horiz-adv-x="637" d="m480 487 72.998-.002v-440c0-73.333-21.333-131.333-64-174s-100.334-64-173.001-64c-90 0-166.333 31.333-229 94l45 54c58.667-51.333 119.334-77 182.001-77 50.667 0 90.334 14.167 119.001 42.5s43 68.5 43 120.5v43c-19.333-25.333-45.166-45.166-77.499-59.499s-66.833-21.5-103.5-21.5c-68.667 0-125.667 23.333-171 70S56 180.333 56 251c0 70 22.833 128.667 68.5 176S227 498 295 498c38.667 0 74.5-7.833 107.5-23.5S461.333 437 480 409v78zm-3.002-236.002c0 55.333-16.5 98.166-49.5 128.499s-73.167 45.5-120.5 45.5c-50 0-91.333-16.5-124-49.5s-49-74.833-49-125.5c0-51.333 16.333-93.166 49-125.499s74-48.5 124-48.5c48 0 88.333 15.167 121 45.5s49 73.5 49 129.5zm-204 315 32 214h58l-14-214h-76z"/><glyph glyph-name="Hcircumflex" unicode="Ĥ" horiz-adv-x="708" d="M91 0v660h78V388h370v272h78V0h-78v318H169V0H91zm433 724h-60L354 832 243 724h-60l147 186h47z"/><glyph glyph-name="hcircumflex" unicode="ĥ" horiz-adv-x="566" d="m488 306 .001-306h-77v296c0 40-10.833 71.833-32.5 95.5s-51.167 35.5-88.5 35.5-68-12.333-92-37-36-56-36-94V0h-77v750h77V432c35.333 44 84 66 146 66 55.333 0 99.166-17.5 131.499-52.5S488 364 488 306zM332.001 814h-60l-110 108-111-108h-60l147 186h47z"/><glyph glyph-name="Hbar" unicode="Ħ" horiz-adv-x="719" d="M95 0v460H-4v66h99v134h78V526h371v134h78V526h100v-66H622V0h-78v253H173V0H95zm78 324h371v136H173V324z"/><glyph glyph-name="hbar" unicode="ħ" horiz-adv-x="570" d="M492 293V-.002h-77v284c0 38.667-11 69.834-33 93.501s-51.333 35.5-88 35.5c-38 0-69.167-12.167-93.5-36.5S164 321.333 164 284V0H88v579H5v68h83v103h76V647h202v-68H164V417c34 44.667 83 67 147 67 55.333 0 99.333-17.333 132-52s49-81 49-139z"/><glyph glyph-name="Itilde" unicode="Ĩ" horiz-adv-x="259" d="M91 0v660h78V0H91zm47 766-33 20c-20 13.333-34.333 20-43 20-9.333 0-16.666-3.667-21.999-11s-8-16.333-8-27v-16h-64c-1.333 12-2 20.333-2 25 0 29.333 8 53.5 24 72.5s37 28.5 63 28.5c22 0 45.333-7.667 70-23l34-22c19.333-13.333 34-20 44-20 9.333 0 16.666 3.5 21.999 10.5s8 15.833 8 26.5v18h64c.667-3.333 1-12 1-26 0-28.667-7.833-52.5-23.5-71.5S236.333 742 211 742c-22.667 0-47 8-73 24z"/><glyph glyph-name="itilde" unicode="ĩ" horiz-adv-x="246" d="M85 0v487h77V0H85zm39 626-18.999 18c-15.333 15.333-27.333 23-36 23-18 0-27-13.667-27-41v-17h-64c-1.333 9.333-2 17.333-2 24 0 30.667 7.667 55.834 23 75.501s35.666 29.5 60.999 29.5c24 0 45.667-9.667 65-29l19-19c15.333-15.333 27.333-23 36-23 17.333 0 26 13.667 26 41v17h63c1.333-9.333 2-17.333 2-24 0-30.667-7.333-55.834-22-75.501S214.333 596 189 596c-22 0-43.667 10-65 30z"/><glyph glyph-name="Imacron" unicode="Ī" horiz-adv-x="259" d="M91 0v660h78V0H91zM-16 770v63h295v-63H-16z"/><glyph glyph-name="imacron" unicode="ī" horiz-adv-x="246" d="M85 0v487h77V0H85zM14 641v64h220v-64H14z"/><glyph glyph-name="Ibreve" unicode="Ĭ" horiz-adv-x="259" d="M91 0v660h78V0H91zM-21 885v24.998h63v-24c0-30 8-54 24-72s37.333-27 64-27c27.333 0 49 8.833 65 26.5s24 41.834 24 72.501v24h63v-25c0-47.333-14.167-85.666-42.5-114.999s-64.833-44-109.5-44c-45.333 0-81.833 14.5-109.5 43.5S-21 837-21 885z"/><glyph glyph-name="ibreve" unicode="ĭ" horiz-adv-x="246" d="M85 0v487h77V0H85zM-28 731v31h63v-29c0-30.667 8-54.834 24-72.501s37.333-26.5 64-26.5c27.333 0 49 8.833 65 26.5s24 41.834 24 72.501v29h63v-31c0-47.333-14-85.5-42-114.5S168.333 573 123 573c-44.667 0-81 14.667-109 44s-42 67.333-42 114z"/><glyph glyph-name="Iogonek" unicode="Į" horiz-adv-x="259" d="M91 0v660h78V0H91zM-10-104C-10-79.333.667-57 22-37 43.333-17.667 82 6.333 138 35l31-35-50-33C97-47.667 82.833-58.5 76.5-65.5S67-81.333 67-92c0-24.667 16-37 48-37 15.333 0 33.333 2.333 54 7v-58c-24-7.333-48-11-72-11-32 0-57.833 8-77.5 24S-10-130-10-104z"/><glyph glyph-name="iogonek" unicode="į" horiz-adv-x="246" d="M85 0v487h77V0H85zM66 673c0 15.333 5.668 28.5 17.001 39.5s25 16.5 41 16.5c15.333 0 28.666-5.5 39.999-16.5s17-24.167 17-39.5c0-16-5.5-29.333-16.5-40S140 617 124 617s-29.667 5.333-41 16-17 24-17 40zm-82.999-777c0 24.667 10.667 47 32 67 21.333 19.333 60 43.333 116 72l31-35-50-33c-21.333-14.667-35.333-25.5-42-32.5s-10-15.833-10-26.5c0-24.667 16-37 48-37 15.333 0 33.333 2.333 54 7v-58c-24-7.333-48-11-72-11-32 0-57.833 8-77.5 24s-29.5 37-29.5 63z"/><glyph glyph-name="Idot" unicode="İ" horiz-adv-x="259" d="M91 0v660h78V0H91zM73 810c0 15.333 5.668 28.5 17.001 39.5s25 16.5 41 16.5c15.333 0 28.666-5.5 39.999-16.5s17-24.167 17-39.5c0-16-5.5-29.333-16.5-40S147 754 131 754s-29.667 5.333-41 16-17 24-17 40z"/><glyph glyph-name="dotlessi" unicode="ı" horiz-adv-x="246" d="M85 0v487h77V0H85z"/><glyph glyph-name="IJ" unicode="Ĳ" horiz-adv-x="633" d="M91 0v660h78V0H91zm192 0v67c27.333-4 51.333-6 72-6 37.333 0 64.833 7.5 82.5 22.5S464 124 464 160v500h78V153c0-54.667-15-95.667-45-123s-72.333-41-127-41c-24.667 0-53.667 3.667-87 11z"/><glyph glyph-name="ij" unicode="ĳ" horiz-adv-x="492" d="M85 0v487h77V0H85zM66 673c0 15.333 5.668 28.5 17.001 39.5s25 16.5 41 16.5c15.333 0 28.666-5.5 39.999-16.5s17-24.167 17-39.5c0-16-5.5-29.333-16.5-40S140 617 124 617s-29.667 5.333-41 16-17 24-17 40zm120.001-856v64.999c17.333-2 32.333-3 45-3 33.333 0 58.333 7.333 75 22s25 38.334 25 71.001v515h77V-33c0-52-14.167-91.333-42.5-118s-67.5-40-117.5-40c-21.333 0-42 2.667-62 8zm126 855.999c0 15.333 5.668 28.5 17.001 39.5s25 16.5 41 16.5c15.333 0 28.666-5.5 39.999-16.5s17-24.167 17-39.5c0-16-5.5-29.333-16.5-40s-24.5-16-40.5-16-29.667 5.333-41 16-17 24-17 40z"/><glyph glyph-name="Jcircumflex" unicode="Ĵ" horiz-adv-x="373" d="M24 0v67c26.667-4 50.667-6 72-6 37.333 0 64.833 7.5 82.5 22.5S205 124 205 160v500h78V153c0-54.667-15-95.667-45-123s-72.333-41-127-41C86.333-11 57.333-7.333 24 0zm381 724h-60L235 832 124 724H64l147 186h47z"/><glyph glyph-name="jcircumflex" unicode="ĵ" horiz-adv-x="246" d="M-60-183v64.999c17.333-2 32.333-3 45-3 33.333 0 58.333 7.333 75 22S85-60.667 85-28v515h77V-33c0-52-14.167-91.333-42.5-118S52-191 2-191c-21.333 0-42 2.667-62 8zm343 748.999h-58l-100 128-101-128h-59l136 214h47z"/><glyph glyph-name="uni0136" unicode="Ķ" horiz-adv-x="633" d="M91 0v660h78V0H91zm189 354L602 0h-99L178 354l297 306h100zm-24-574 9 171h76l-25-171h-60z"/><glyph glyph-name="uni0137" unicode="ķ" horiz-adv-x="506" d="M85 0v750h77V0H85zm178 273L493 0h-99L170 274l203 213h101zm-57-493 9 171h76l-25-171h-60z"/><glyph glyph-name="Lacute" unicode="Ĺ" horiz-adv-x="506" d="M91 0v660h78V70h313V0H91zm9 724 85 186h94v-14L159 724h-59z"/><glyph glyph-name="lacute" unicode="ĺ" horiz-adv-x="246" d="M85 0v750h77V0H85zm9 814 85 186h94v-14L153 814H94z"/><glyph glyph-name="uni013B" unicode="Ļ" horiz-adv-x="506" d="M91 0v660h78V70h313V0H91zm140-220 9 171h76l-25-171h-60z"/><glyph glyph-name="uni013C" unicode="ļ" horiz-adv-x="246" d="M85 0v750h77V0H85zm-9-220 9 171h76l-25-171H76z"/><glyph glyph-name="Lcaron" unicode="Ľ" horiz-adv-x="506" d="M91 0v660h78V70h313V0H91zm272 509 13 211h83l-39-211h-57z"/><glyph glyph-name="lcaron" unicode="ľ" horiz-adv-x="358" d="M85 0v750h77V0H85zm177 539 13 211h83l-39-211h-57z"/><glyph glyph-name="Ldot" unicode="Ŀ" horiz-adv-x="506" d="M91 0v660h78V70h313V0H91zm234 368c0 18 6.167 33 18.5 45s27.166 18 44.499 18 32.166-6 44.499-18 18.5-27 18.5-45-6.167-33-18.5-45-27.166-18-44.499-18-32.166 6-44.499 18-18.5 27-18.5 45z"/><glyph glyph-name="ldot" unicode="ŀ" horiz-adv-x="299" d="M85 0v750h77V0H85zm128 314c0 18 6.167 33 18.5 45s27.166 18 44.499 18 32.166-6 44.499-18 18.5-27 18.5-45-6.167-33-18.5-45-27.166-18-44.499-18-32.166 6-44.499 18-18.5 27-18.5 45z"/><glyph glyph-name="Lslash" unicode="Ł" horiz-adv-x="506" d="M169 70h313V0H91v254l-79-35v72l79 35v334h78V356l220 101v-74L169 283V70z"/><glyph glyph-name="lslash" unicode="ł" horiz-adv-x="360" d="M298 450v-73l-87-40V0h-77v310l-78-36v73l78 37v366h77V410z"/><glyph glyph-name="Nacute" unicode="Ń" horiz-adv-x="708" d="M539 660h78V-11h-28L169 495V0H91v671h28l420-507v496zm-214 64 85 186h94v-14L384 724h-59z"/><glyph glyph-name="nacute" unicode="ń" horiz-adv-x="566" d="M488 306V0h-77v297c0 38.667-10.833 70-32.5 94s-51.167 36-88.5 36-68-12.167-92-36.5-36-55.5-36-93.5V0H85v487h72v-52c38 42 88 63 150 63 56 0 100.167-17.5 132.5-52.5S488 364 488 306zM258 566l85 214h94v-14L317 566h-59z"/><glyph glyph-name="uni0145" unicode="Ņ" horiz-adv-x="708" d="M539 660h78V-11h-28L169 495V0H91v671h28l420-507v496zM306-220l9 171h76l-25-171h-60z"/><glyph glyph-name="uni0146" unicode="ņ" horiz-adv-x="566" d="M488 306V0h-77v297c0 38.667-10.833 70-32.5 94s-51.167 36-88.5 36-68-12.167-92-36.5-36-55.5-36-93.5V0H85v487h72v-52c38 42 88 63 150 63 56 0 100.167-17.5 132.5-52.5S488 364 488 306zM237-220l9 171h76l-25-171h-60z"/><glyph glyph-name="Ncaron" unicode="Ň" horiz-adv-x="708" d="M539 660h78V-11h-28L169 495V0H91v671h28l420-507v496zm-75 250h60L377 724h-47L183 910h60l111-108z"/><glyph glyph-name="ncaron" unicode="ň" horiz-adv-x="566" d="M488 306V0h-77v297c0 38.667-10.833 70-32.5 94s-51.167 36-88.5 36-68-12.167-92-36.5-36-55.5-36-93.5V0H85v487h72v-52c38 42 88 63 150 63 56 0 100.167-17.5 132.5-52.5S488 364 488 306zM386 780h58L309 566h-47L126 780h59l101-128z"/><glyph glyph-name="Eng" unicode="Ŋ" horiz-adv-x="708" d="m539 660 78 .001v-693c0-52.667-14-92.167-42-118.5s-67.333-39.5-118-39.5c-20.667 0-41 2.667-61 8v65c17.333-2 32.333-3 45-3 33.333 0 58 7.167 74 21.5S539-61.333 539-28v41L169 487V0H91v671h28l420-540v529z"/><glyph glyph-name="eng" unicode="ŋ" horiz-adv-x="566" d="M488 306V-32.999c0-52-14.167-91.333-42.5-118s-67.5-40-117.5-40c-21.333 0-42 2.667-62 8v65c17.333-2 32-3 44-3 34 0 59.333 7.167 76 21.5S411-61.333 411-28v324c0 40-10.833 71.833-32.5 95.5S327.333 427 290 427s-68-12.333-92-37-36-56-36-94V0H85v487h72v-52c38 42 88 63 150 63 56 0 100.167-17.5 132.5-52.5S488 364 488 306z"/><glyph glyph-name="Omacron" unicode="Ō" horiz-adv-x="781" d="M48 330c-2 94 30.999 174.667 98.999 242s149 100.333 243 99c93.333 1.333 174.333-31.667 243-99s102-148 100-242c2-94-31.333-174.667-100-242s-149.667-100.333-243-99C296.666-13 215.833 20 147.5 88S46 236.667 48 330zm603.999 1c1.333 74.667-23.667 138.333-75 191s-113.333 78.334-186 77.001c-74.667 0-137-25.5-187-76.5s-75-114.833-75-191.5 25-140.834 75-192.501 112.333-77.5 187-77.5c72.667-1.333 134.667 24.5 186 77.5s76.333 117.167 75 192.5zm-408 438.999v63h295v-63h-295z"/><glyph glyph-name="omacron" unicode="ō" horiz-adv-x="610" d="M50 244c-1.333 69.333 23.499 129.333 74.499 180s111.167 75.334 180.5 74.001c70 1.333 130.333-23.334 181-74.001S561.333 313.333 560 244c1.333-68.667-23.667-128.5-75-179.5S373.334-11.333 304.001-10c-69.333-1.333-129.333 23.5-180 74.5S48.667 175.333 50 244zm430.999-1c0 52-16.832 95.667-50.499 131S355 427 305 427s-91.833-17.5-125.5-52.5S129 295.667 129 243c0-51.333 16.833-94.5 50.5-129.5S254.667 61 304 61s91.166 17.667 125.499 53 51.5 78.333 51.5 129zM168 642v62h275v-62H168z"/><glyph glyph-name="Obreve" unicode="Ŏ" horiz-adv-x="781" d="M48 330c-2 94 30.999 174.667 98.999 242s149 100.333 243 99c93.333 1.333 174.333-31.667 243-99s102-148 100-242c2-94-31.333-174.667-100-242s-149.667-100.333-243-99C296.666-13 215.833 20 147.5 88S46 236.667 48 330zm603.999 1c1.333 74.667-23.667 138.333-75 191s-113.333 78.334-186 77.001c-74.667 0-137-25.5-187-76.5s-75-114.833-75-191.5 25-140.834 75-192.501 112.333-77.5 187-77.5c72.667-1.333 134.667 24.5 186 77.5s76.333 117.167 75 192.5zm-413 553.999v24.998h63v-24c0-30 8-54 24-72s37.333-27 64-27c27.333 0 49 8.833 65 26.5s24 41.834 24 72.501v24h63v-25c0-47.333-14.167-85.666-42.5-114.999s-64.833-44-109.5-44c-45.333 0-81.833 14.5-109.5 43.5s-41.5 67.5-41.5 115.5z"/><glyph glyph-name="obreve" unicode="ŏ" horiz-adv-x="610" d="M50 244c-1.333 69.333 23.499 129.333 74.499 180s111.167 75.334 180.5 74.001c70 1.333 130.333-23.334 181-74.001S561.333 313.333 560 244c1.333-68.667-23.667-128.5-75-179.5S373.334-11.333 304.001-10c-69.333-1.333-129.333 23.5-180 74.5S48.667 175.333 50 244zm430.999-1c0 52-16.832 95.667-50.499 131S355 427 305 427s-91.833-17.5-125.5-52.5S129 295.667 129 243c0-51.333 16.833-94.5 50.5-129.5S254.667 61 304 61s91.166 17.667 125.499 53 51.5 78.333 51.5 129zM153 731v31h63v-29c0-30.667 8-54.834 24-72.501s37.333-26.5 64-26.5c27.333 0 49 8.833 65 26.5s24 41.834 24 72.501v29h63v-31c0-47.333-14-85.5-42-114.5S349.333 573 304 573c-44.667 0-81 14.667-109 44s-42 67.333-42 114z"/><glyph glyph-name="Ohungarumlaut" unicode="Ő" horiz-adv-x="781" d="M48 330c-2 94 30.999 174.667 98.999 242s149 100.333 243 99c93.333 1.333 174.333-31.667 243-99s102-148 100-242c2-94-31.333-174.667-100-242s-149.667-100.333-243-99C296.666-13 215.833 20 147.5 88S46 236.667 48 330zm603.999 1c1.333 74.667-23.667 138.333-75 191s-113.333 78.334-186 77.001c-74.667 0-137-25.5-187-76.5s-75-114.833-75-191.5 25-140.834 75-192.501 112.333-77.5 187-77.5c72.667-1.333 134.667 24.5 186 77.5s76.333 117.167 75 192.5zm-410 392.999 86 186h83v-14l-114-172h-55zm219 0 86 186h83v-14l-114-172h-55z"/><glyph glyph-name="ohungarumlaut" unicode="ő" horiz-adv-x="610" d="M50 244c-1.333 69.333 23.499 129.333 74.499 180s111.167 75.334 180.5 74.001c70 1.333 130.333-23.334 181-74.001S561.333 313.333 560 244c1.333-68.667-23.667-128.5-75-179.5S373.334-11.333 304.001-10c-69.333-1.333-129.333 23.5-180 74.5S48.667 175.333 50 244zm430.999-1c0 52-16.832 95.667-50.499 131S355 427 305 427s-91.833-17.5-125.5-52.5S129 295.667 129 243c0-51.333 16.833-94.5 50.5-129.5S254.667 61 304 61s91.166 17.667 125.499 53 51.5 78.333 51.5 129zM173 566l86 214h83v-14L228 566h-55zm199 0 86 214h83v-14L427 566h-55z"/><glyph glyph-name="OE" unicode="Œ" horiz-adv-x="1127" d="M730 70h356.998V0h-435v125c-27.333-42.667-64.166-76-110.499-100S444.333-11 389-11c-94.667-1.333-175.5 31.5-242.5 98.5S46.667 235.333 48 330c-1.333 94 31.834 174.667 99.501 242s148.5 100.333 242.5 99c55.333 0 106.166-12 152.499-36s82.833-57 109.5-99v124h423v-70H730V388h264v-70H730V70zm-78.002 260c0 76-25.167 139.833-75.5 191.5s-112.5 77.5-186.5 77.5c-74.667 0-136.834-25.667-186.501-77s-74.5-115.333-74.5-192 24.833-140.667 74.5-192 111.834-77 186.501-77c74 0 136.167 25.833 186.5 77.5s75.5 115.5 75.5 191.5z"/><glyph glyph-name="oe" unicode="œ" horiz-adv-x="981" d="m925 219-377.998.001c4.667-48 23-86.5 55-115.5s71.667-43.5 119-43.5c54.667 0 103 21.667 145 65l47-51c-52.667-56.667-117.334-85-194.001-85-44 0-84.833 10.833-122.5 32.5s-67.167 51.5-88.5 89.5c-20.667-38.667-48.834-68.667-84.501-90s-76.167-32-121.5-32c-68.667-1.333-128.167 23.334-178.5 74.001s-74.833 110.667-73.5 180c0 71.333 24.667 131.666 74 180.999s109 74 179 74c44.667 0 85-10.833 121-32.5s64-51.834 84-90.501c22 38 50.833 67.833 86.5 89.5S669.667 497 713 497c60.667 0 112.167-20.833 154.5-62.5S931 340.333 931 277c0-18.667-2-38-6-58zm-453.998 24.001c0 52.667-15.668 96.5-47.001 131.5s-71.666 52.5-120.999 52.5c-50 0-91.5-17.667-124.5-53s-49.5-79-49.5-131 16.5-95.5 49.5-130.5 74.167-52.5 123.5-52.5 89.833 17.5 121.5 52.5 47.5 78.5 47.5 130.5zm78.999 44h302c-.667 42.667-14.5 76.667-41.5 102s-61.167 38-102.5 38c-39.333 0-73.5-12.667-102.5-38s-47.5-59.333-55.5-102z"/><glyph glyph-name="Racute" unicode="Ŕ" horiz-adv-x="622" d="M606 0h-91L310 277H169V0H91v660h232c63.333 0 114.333-17.833 153-53.5S534 525 534 469c0-44.667-12.333-83.167-37-115.5s-58.667-54.833-102-67.5zM169 590V347h151c42 0 74.667 10.833 98 32.5s35 51.167 35 88.5c0 36.667-11.833 66.167-35.5 88.5S361.333 590 320 590H169zm64 134 85 186h94v-14L292 724h-59z"/><glyph glyph-name="racute" unicode="ŕ" horiz-adv-x="362" d="m344 487 .001-68h-29c-42.667 0-78.834-13-108.501-39S162 319.333 162 276V0H85v487h72v-69c36 48.667 86.333 73 151 73 12.667 0 24.667-1.333 36-4zm-197.999 79 85 214h94v-14l-120-200h-59z"/><glyph glyph-name="uni0156" unicode="Ŗ" horiz-adv-x="622" d="M606 0h-91L310 277H169V0H91v660h232c63.333 0 114.333-17.833 153-53.5S534 525 534 469c0-44.667-12.333-83.167-37-115.5s-58.667-54.833-102-67.5zM169 590V347h151c42 0 74.667 10.833 98 32.5s35 51.167 35 88.5c0 36.667-11.833 66.167-35.5 88.5S361.333 590 320 590H169zm95-810 9 171h76l-25-171h-60z"/><glyph glyph-name="uni0157" unicode="ŗ" horiz-adv-x="362" d="m344 487 .001-68h-29c-42.667 0-78.834-13-108.501-39S162 319.333 162 276V0H85v487h72v-69c36 48.667 86.333 73 151 73 12.667 0 24.667-1.333 36-4zM75.001-220l9 171h76l-25-171h-60z"/><glyph glyph-name="Rcaron" unicode="Ř" horiz-adv-x="622" d="M606 0h-91L310 277H169V0H91v660h232c63.333 0 114.333-17.833 153-53.5S534 525 534 469c0-44.667-12.333-83.167-37-115.5s-58.667-54.833-102-67.5zM169 590V347h151c42 0 74.667 10.833 98 32.5s35 51.167 35 88.5c0 36.667-11.833 66.167-35.5 88.5S361.333 590 320 590H169zm203 320h60L285 724h-47L91 910h60l111-108z"/><glyph glyph-name="rcaron" unicode="ř" horiz-adv-x="362" d="m344 487 .001-68h-29c-42.667 0-78.834-13-108.501-39S162 319.333 162 276V0H85v487h72v-69c36 48.667 86.333 73 151 73 12.667 0 24.667-1.333 36-4zm-69.999 293h58l-135-214h-47l-136 214h59l101-128z"/><glyph glyph-name="Sacute" unicode="Ś" horiz-adv-x="558" d="m41 131 58 42.998c49.333-75.333 110.666-113 183.999-113 40 0 72.167 10 96.5 30s36.5 46.667 36.5 80c0 28-7.833 49.167-23.5 63.5s-44.5 31.833-86.5 52.5l-74 35c-50 23.333-87.333 48.333-112 75s-37 60.667-37 102c0 50.667 19.333 92 58 124s85.667 48 141 48c43.333 0 83.166-10.167 119.499-30.5s65.5-47.5 87.5-81.5l-57-43c-37.333 55.333-87.666 83-150.999 83-33.333 0-61.166-8.667-83.499-26S164 532.332 164 502.999c0-19.333 4.333-35.333 13-48 8-12 18.333-22 31-30s33.334-19 62.001-33l73-35c54-26.667 93.167-53.667 117.5-81s36.5-61.666 36.5-102.999c0-54-20-98.167-60-132.5s-91-51.5-153-51.5C233.334-11 186.667 1.5 144 26.5S67 86.333 41 131zm213 592.998 85 186h94v-14l-120-172h-59z"/><glyph glyph-name="sacute" unicode="ś" horiz-adv-x="454" d="m39 84 49.001 51.002c25.333-26 48.5-45 69.5-57s44.5-18 70.5-18c27.333 0 49.666 6.167 66.999 18.5s26 29.166 26 50.499c0 18.667-6.167 33.167-18.5 43.5s-34.5 21.833-66.5 34.5l-47 20c-42 17.333-72.667 36.333-92 57s-29 46.667-29 78c0 41.333 15.5 74.333 46.5 99s70.167 37 117.5 37c66 0 120.333-25.667 163-77l-47-48c-36 36-76 54-120 54-24.667 0-44.334-5.333-59.001-16s-22-25.667-22-45c0-15.333 5.5-27.833 16.5-37.5s31.833-20.834 62.5-33.501l45-19c46.667-20 79.834-40.833 99.501-62.5s29.5-48.834 29.5-81.501C400 86.666 383.333 51.333 350 26c-32.667-24.667-73-37-121-37-78 0-141.333 31.667-190 95zm164.001 482.002 85 214h94v-14l-120-200h-59z"/><glyph glyph-name="Scircumflex" unicode="Ŝ" horiz-adv-x="558" d="m41 131 58 42.998c49.333-75.333 110.666-113 183.999-113 40 0 72.167 10 96.5 30s36.5 46.667 36.5 80c0 28-7.833 49.167-23.5 63.5s-44.5 31.833-86.5 52.5l-74 35c-50 23.333-87.333 48.333-112 75s-37 60.667-37 102c0 50.667 19.333 92 58 124s85.667 48 141 48c43.333 0 83.166-10.167 119.499-30.5s65.5-47.5 87.5-81.5l-57-43c-37.333 55.333-87.666 83-150.999 83-33.333 0-61.166-8.667-83.499-26S164 532.332 164 502.999c0-19.333 4.333-35.333 13-48 8-12 18.333-22 31-30s33.334-19 62.001-33l73-35c54-26.667 93.167-53.667 117.5-81s36.5-61.666 36.5-102.999c0-54-20-98.167-60-132.5s-91-51.5-153-51.5C233.334-11 186.667 1.5 144 26.5S67 86.333 41 131zm412 592.998h-60l-110 108-111-108h-60l147 186h47z"/><glyph glyph-name="scircumflex" unicode="ŝ" horiz-adv-x="454" d="m39 84 49.001 51.002c25.333-26 48.5-45 69.5-57s44.5-18 70.5-18c27.333 0 49.666 6.167 66.999 18.5s26 29.166 26 50.499c0 18.667-6.167 33.167-18.5 43.5s-34.5 21.833-66.5 34.5l-47 20c-42 17.333-72.667 36.333-92 57s-29 46.667-29 78c0 41.333 15.5 74.333 46.5 99s70.167 37 117.5 37c66 0 120.333-25.667 163-77l-47-48c-36 36-76 54-120 54-24.667 0-44.334-5.333-59.001-16s-22-25.667-22-45c0-15.333 5.5-27.833 16.5-37.5s31.833-20.834 62.5-33.501l45-19c46.667-20 79.834-40.833 99.501-62.5s29.5-48.834 29.5-81.501C400 86.666 383.333 51.333 350 26c-32.667-24.667-73-37-121-37-78 0-141.333 31.667-190 95zm350.001 482.002h-58l-100 128-101-128h-59l136 214h47z"/><glyph glyph-name="Scedilla" unicode="Ş" horiz-adv-x="558" d="m41 131 58 42.998c49.333-75.333 110.666-113 183.999-113 40 0 72.167 10 96.5 30s36.5 46.667 36.5 80c0 28-7.833 49.167-23.5 63.5s-44.5 31.833-86.5 52.5l-74 35c-50 23.333-87.333 48.333-112 75s-37 60.667-37 102c0 50.667 19.333 92 58 124s85.667 48 141 48c43.333 0 83.166-10.167 119.499-30.5s65.5-47.5 87.5-81.5l-57-43c-37.333 55.333-87.666 83-150.999 83-33.333 0-61.166-8.667-83.499-26S164 532.332 164 502.999c0-19.333 4.333-35.333 13-48 8-12 18.333-22 31-30s33.334-19 62.001-33l73-35c54-26.667 93.167-53.667 117.5-81s36.5-61.666 36.5-102.999c0-54-20-98.167-60-132.5s-91-51.5-153-51.5C233.334-11 186.667 1.5 144 26.5S67 86.333 41 131zm121-312.002-.001 54.999c18.667-2.667 37.334-4 56.001-4 52 0 78 21.667 78 65 0 26.667-11.333 51.334-34 74.001l33 17c44.667-22.667 67-56.667 67-102 0-33.333-12-60.833-36-82.5s-56-32.5-96-32.5c-23.333 0-46 3.333-68 10z"/><glyph glyph-name="scedilla" unicode="ş" horiz-adv-x="454" d="m39 84 49.001 51.002c25.333-26 48.5-45 69.5-57s44.5-18 70.5-18c27.333 0 49.666 6.167 66.999 18.5s26 29.166 26 50.499c0 18.667-6.167 33.167-18.5 43.5s-34.5 21.833-66.5 34.5l-47 20c-42 17.333-72.667 36.333-92 57s-29 46.667-29 78c0 41.333 15.5 74.333 46.5 99s70.167 37 117.5 37c66 0 120.333-25.667 163-77l-47-48c-36 36-76 54-120 54-24.667 0-44.334-5.333-59.001-16s-22-25.667-22-45c0-15.333 5.5-27.833 16.5-37.5s31.833-20.834 62.5-33.501l45-19c46.667-20 79.834-40.833 99.501-62.5s29.5-48.834 29.5-81.501C400 86.666 383.333 51.333 350 26c-32.667-24.667-73-37-121-37-78 0-141.333 31.667-190 95zm73.001-264.998L112-125.999c18.667-2.667 37.334-4 56.001-4 52 0 78 21.667 78 65 0 26.667-11.333 51.334-34 74.001l33 17c44.667-22.667 67-56.667 67-102 0-33.333-12-60.833-36-82.5s-56-32.5-96-32.5c-23.333 0-46 3.333-68 10z"/><glyph glyph-name="Scaron" unicode="Š" horiz-adv-x="558" d="m41 131 58 42.998c49.333-75.333 110.666-113 183.999-113 40 0 72.167 10 96.5 30s36.5 46.667 36.5 80c0 28-7.833 49.167-23.5 63.5s-44.5 31.833-86.5 52.5l-74 35c-50 23.333-87.333 48.333-112 75s-37 60.667-37 102c0 50.667 19.333 92 58 124s85.667 48 141 48c43.333 0 83.166-10.167 119.499-30.5s65.5-47.5 87.5-81.5l-57-43c-37.333 55.333-87.666 83-150.999 83-33.333 0-61.166-8.667-83.499-26S164 532.332 164 502.999c0-19.333 4.333-35.333 13-48 8-12 18.333-22 31-30s33.334-19 62.001-33l73-35c54-26.667 93.167-53.667 117.5-81s36.5-61.666 36.5-102.999c0-54-20-98.167-60-132.5s-91-51.5-153-51.5C233.334-11 186.667 1.5 144 26.5S67 86.333 41 131zm352 778.998h60l-147-186h-47l-147 186h60l111-108z"/><glyph glyph-name="scaron" unicode="š" horiz-adv-x="454" d="m39 84 49.001 51.002c25.333-26 48.5-45 69.5-57s44.5-18 70.5-18c27.333 0 49.666 6.167 66.999 18.5s26 29.166 26 50.499c0 18.667-6.167 33.167-18.5 43.5s-34.5 21.833-66.5 34.5l-47 20c-42 17.333-72.667 36.333-92 57s-29 46.667-29 78c0 41.333 15.5 74.333 46.5 99s70.167 37 117.5 37c66 0 120.333-25.667 163-77l-47-48c-36 36-76 54-120 54-24.667 0-44.334-5.333-59.001-16s-22-25.667-22-45c0-15.333 5.5-27.833 16.5-37.5s31.833-20.834 62.5-33.501l45-19c46.667-20 79.834-40.833 99.501-62.5s29.5-48.834 29.5-81.501C400 86.666 383.333 51.333 350 26c-32.667-24.667-73-37-121-37-78 0-141.333 31.667-190 95zm292.001 696.002h58l-135-214h-47l-136 214h59l101-128z"/><glyph glyph-name="uni0162" unicode="Ţ" horiz-adv-x="581" d="M251 0v590H19v70h543v-70H329V0h-78zm-90-181-.001 54.999c18.667-2.667 37.334-4 56.001-4 52 0 78 21.667 78 65C295-38.334 283.667-13.667 261 9l33 17c44.667-22.667 67-56.667 67-102 0-33.333-12-60.833-36-82.5S269-191 229-191c-23.333 0-46 3.333-68 10z"/><glyph glyph-name="uni0163" unicode="ţ" horiz-adv-x="381" d="m351 65-.001-65.001c-32.667-7.333-59.667-11-81-11-52 0-92.333 13.333-121 40s-43 66-43 118v271h-82v69h82v133h77v-133h152v-69h-152v-266c0-33.333 8.5-57.166 25.5-71.499s42.833-21.5 77.5-21.5c18.667 0 40.334 2 65.001 6zM92.999-181.001l-.001 54.999c18.667-2.667 37.334-4 56.001-4 52 0 78 21.667 78 65 0 26.667-11.333 51.334-34 74.001l33 17c44.667-22.667 67-56.667 67-102 0-33.333-12-60.833-36-82.5s-56-32.5-96-32.5c-23.333 0-46 3.333-68 10z"/><glyph glyph-name="Tcaron" unicode="Ť" horiz-adv-x="581" d="M251 0v590H19v70h543v-70H329V0h-78zm150 910h60L314 724h-47L120 910h60l111-108z"/><glyph glyph-name="tcaron" unicode="ť" horiz-adv-x="381" d="m351 65-.001-65.001c-32.667-7.333-59.667-11-81-11-52 0-92.333 13.333-121 40s-43 66-43 118v271h-82v69h82v133h77v-133h152v-69h-152v-266c0-33.333 8.5-57.166 25.5-71.499s42.833-21.5 77.5-21.5c18.667 0 40.334 2 65.001 6zm-73.001 473.999 13 211h83l-39-211h-57z"/><glyph glyph-name="Tbar" unicode="Ŧ" horiz-adv-x="581" d="M251 0v260H56v66h195v264H19v70h543v-70H329V326h196v-66H329V0h-78z"/><glyph glyph-name="tbar" unicode="ŧ" horiz-adv-x="394" d="m360 65 .001-64.999c-30.667-7.333-57.667-11-81-11-51.333 0-91.333 13.333-120 40s-43 66-43 118v72h-83v66h83v135h-83v67h83v133h76v-133h152v-67h-152v-135h152v-66h-152v-67c0-32.667 8.5-56.334 25.5-71.001s42.167-22 75.5-22c19.333 0 41.666 2 66.999 6z"/><glyph glyph-name="Utilde" unicode="Ũ" horiz-adv-x="689" d="M82 262v398h78V257c0-62.667 16.833-111 50.5-145S289 61 345 61c55.333 0 99.666 17 132.999 51s50 82.333 50 145v403h78V262c0-84.667-24.167-151.334-72.5-200.001s-111.166-73-188.499-73c-78.667 0-142.167 24.333-190.5 73S82 177.333 82 262zm269 504-33 20c-20 13.333-34.333 20-43 20-9.333 0-16.666-3.667-21.999-11s-8-16.333-8-27v-16h-64c-1.333 12-2 20.333-2 25 0 29.333 8 53.5 24 72.5s37 28.5 63 28.5c22 0 45.333-7.667 70-23l34-22c19.333-13.333 34-20 44-20 9.333 0 16.666 3.5 21.999 10.5s8 15.833 8 26.5v18h64c.667-3.333 1-12 1-26 0-28.667-7.833-52.5-23.5-71.5S449.333 742 424 742c-22.667 0-47 8-73 24z"/><glyph glyph-name="utilde" unicode="ũ" d="m79 194-.002 293.001h76v-298c0-38.667 11.833-69.834 35.5-93.501S244.332 60 280.999 60c36 0 65.667 12 89 36s35 55 35 93v298h77V194c0-60.667-19.167-110-57.5-148S338.333-11 281-11c-58 0-106.167 19-144.5 57S79 133.333 79 194zm204.998 428.001-26 22c-.667.667-3.667 3-9 7s-9 6.667-11 8-5.167 3-9.5 5-8.5 3-12.5 3c-18.667 0-28-13.667-28-41v-17h-64c-.667 4-1 12.333-1 25 0 30.667 7.833 55.667 23.5 75s36.167 29 61.5 29c24 0 46.667-8.667 68-26l26-22c17.333-15.333 31.333-23 42-23 18.667 0 28 13.667 28 41v17h64c.667-4 1-12.333 1-25 0-30.667-7.833-55.667-23.5-75s-36.167-29-61.5-29c-24 0-46.667 8.667-68 26z"/><glyph glyph-name="Umacron" unicode="Ū" horiz-adv-x="689" d="M82 262v398h78V257c0-62.667 16.833-111 50.5-145S289 61 345 61c55.333 0 99.666 17 132.999 51s50 82.333 50 145v403h78V262c0-84.667-24.167-151.334-72.5-200.001s-111.166-73-188.499-73c-78.667 0-142.167 24.333-190.5 73S82 177.333 82 262zm115 508v63h295v-63H197z"/><glyph glyph-name="umacron" unicode="ū" d="m79 194-.002 293.001h76v-298c0-38.667 11.833-69.834 35.5-93.501S244.332 60 280.999 60c36 0 65.667 12 89 36s35 55 35 93v298h77V194c0-60.667-19.167-110-57.5-148S338.333-11 281-11c-58 0-106.167 19-144.5 57S79 133.333 79 194zm63.998 448.001v62h275v-62h-275z"/><glyph glyph-name="Ubreve" unicode="Ŭ" horiz-adv-x="689" d="M82 262v398h78V257c0-62.667 16.833-111 50.5-145S289 61 345 61c55.333 0 99.666 17 132.999 51s50 82.333 50 145v403h78V262c0-84.667-24.167-151.334-72.5-200.001s-111.166-73-188.499-73c-78.667 0-142.167 24.333-190.5 73S82 177.333 82 262zm110 623v24.998h63v-24c0-30 8-54 24-72s37.333-27 64-27c27.333 0 49 8.833 65 26.5s24 41.834 24 72.501v24h63v-25c0-47.333-14.167-85.666-42.5-114.999s-64.833-44-109.5-44c-45.333 0-81.833 14.5-109.5 43.5S192 837 192 885z"/><glyph glyph-name="ubreve" unicode="ŭ" d="m79 194-.002 293.001h76v-298c0-38.667 11.833-69.834 35.5-93.501S244.332 60 280.999 60c36 0 65.667 12 89 36s35 55 35 93v298h77V194c0-60.667-19.167-110-57.5-148S338.333-11 281-11c-58 0-106.167 19-144.5 57S79 133.333 79 194zm48.998 537.001v31h63v-29c0-30.667 8-54.834 24-72.501s37.333-26.5 64-26.5c27.333 0 49 8.833 65 26.5s24 41.834 24 72.501v29h63v-31c0-47.333-14-85.5-42-114.5s-64.667-43.5-110-43.5c-44.667 0-81 14.667-109 44s-42 67.333-42 114z"/><glyph glyph-name="Uring" unicode="Ů" horiz-adv-x="689" d="M82 262v398h78V257c0-62.667 16.833-111 50.5-145S289 61 345 61c55.333 0 99.666 17 132.999 51s50 82.333 50 145v403h78V262c0-84.667-24.167-151.334-72.5-200.001s-111.166-73-188.499-73c-78.667 0-142.167 24.333-190.5 73S82 177.333 82 262zm151 544c0 30 10.5 55.5 31.5 76.5S311.667 914 343 914c32 0 58.5-10.5 79.5-31.5S454 836 454 806s-10.5-55.5-31.5-76.5S375 698 343 698c-31.333 0-57.5 10.5-78.5 31.5S233 776 233 806zm161 0c0 14.667-4.832 26.834-14.499 36.501s-21.5 14.5-35.5 14.5c-14.667 0-26.834-4.833-36.501-14.5S293 820.667 293 806c0-14 5-25.833 15-35.5s22-14.5 36-14.5 25.833 4.833 35.5 14.5S394 792 394 806z"/><glyph glyph-name="uring" unicode="ů" d="m79 194-.002 293.001h76v-298c0-38.667 11.833-69.834 35.5-93.501S244.332 60 280.999 60c36 0 65.667 12 89 36s35 55 35 93v298h77V194c0-60.667-19.167-110-57.5-148S338.333-11 281-11c-58 0-106.167 19-144.5 57S79 133.333 79 194zm89.998 474.001c0 30.667 10.5 56.334 31.5 77.001s47.167 31 78.5 31 57.666-10.333 78.999-31 32-46.334 32-77.001-10.667-56.5-32-77.5-47.666-31.5-78.999-31.5c-30.667 0-56.667 10.5-78 31.5s-32 46.833-32 77.5zm161 0c0 14.667-5.001 27-15.001 37s-21.667 15-35 15c-14 0-26-5-36-15s-15-22.333-15-37 4.833-26.667 14.5-36 21.834-14 36.501-14c14 0 25.833 4.667 35.5 14s14.5 21.333 14.5 36z"/><glyph glyph-name="Uhungarumlaut" unicode="Ű" horiz-adv-x="689" d="M82 262v398h78V257c0-62.667 16.833-111 50.5-145S289 61 345 61c55.333 0 99.666 17 132.999 51s50 82.333 50 145v403h78V262c0-84.667-24.167-151.334-72.5-200.001s-111.166-73-188.499-73c-78.667 0-142.167 24.333-190.5 73S82 177.333 82 262zm113 462 86 186h83v-14L250 724h-55zm219 0 86 186h83v-14L469 724h-55z"/><glyph glyph-name="uhungarumlaut" unicode="ű" d="m79 194-.002 293.001h76v-298c0-38.667 11.833-69.834 35.5-93.501S244.332 60 280.999 60c36 0 65.667 12 89 36s35 55 35 93v298h77V194c0-60.667-19.167-110-57.5-148S338.333-11 281-11c-58 0-106.167 19-144.5 57S79 133.333 79 194zm68.998 372.001 86 214h83v-14l-114-200h-55zm199 0 86 214h83v-14l-114-200h-55z"/><glyph glyph-name="Uogonek" unicode="Ų" horiz-adv-x="689" d="M82 262v398h78V257c0-62.667 16.833-111 50.5-145S289 61 345 61c55.333 0 99.666 17 132.999 51s50 82.333 50 145v403h78V262c0-84.667-24.167-151.334-72.5-200.001s-111.166-73-188.499-73c-78.667 0-142.167 24.333-190.5 73S82 177.333 82 262zm254-366c1.333 27.333 9 50.832 23 70.499s48.667 55.5 104 107.5h80l-92-98c-14.667-16.667-24.5-29.167-29.5-37.5s-7.5-18.5-7.5-30.5c0-24.667 15.667-37 47-37 15.333 0 33.333 2.333 54 7v-58c-24-7.333-48-11-72-11-32 0-57.833 7.833-77.5 23.5S336-130.667 336-104z"/><glyph glyph-name="uogonek" unicode="ų" d="m405 487 76.999.001v-293c0-33.333-5-61.333-15-84-8-21.333-19.667-40-35-56-12-13.333-37-36.666-75-69.999-18.667-17.333-31.5-31-38.5-41s-10.5-21-10.5-33c0-28 17.333-42 52-42 16 0 33.667 2.333 53 7v-53c-26-8.667-50.667-13-74-13-32 0-57.333 7.167-76 21.5s-28 35.166-28 62.499c0 35.333 19 67.333 57 96h-11c-58 0-106.167 19-144.5 57s-57.5 87.333-57.5 148v293h76v-298c0-38.667 11.833-69.834 35.5-93.501S244.333 60 281 60c36 0 65.667 12 89 36s35 55 35 93v298z"/><glyph glyph-name="Wcircumflex" unicode="Ŵ" horiz-adv-x="1066" d="M935 660h85L770-11h-28L533 513 324-11h-28L45 660h86l182-503 206 514h28l206-513zm-232 64h-60L533 832 422 724h-60l147 186h47z"/><glyph glyph-name="wcircumflex" unicode="ŵ" horiz-adv-x="851" d="M742 487h82L619-11h-28L425 357 260-11h-27L26 487h82l141-361 162 372h29l164-369zm-160 79h-58L424 694 323 566h-59l136 214h47z"/><glyph glyph-name="Ycircumflex" unicode="Ŷ" horiz-adv-x="616" d="M576 660 347 273V0h-78v273L40 660h88l180-310 181 310h87zm-101 64h-60L305 832 194 724h-60l147 186h47z"/><glyph glyph-name="ycircumflex" unicode="ŷ" horiz-adv-x="539" d="m431 487 82-.001-240-555c-36-82-91-123-165-123-26 0-51 3.333-75 10v65c28-3.333 47.667-5 59-5 26.667 0 48.667 5.833 66 17.5S190-71.667 202-43l26 58L26 487h83L270 99zm-5 78.999h-58l-100 128-101-128h-59l136 214h47z"/><glyph glyph-name="Ydieresis" unicode="Ÿ" horiz-adv-x="616" d="M576 660 347 273V0h-78v273L40 660h88l180-310 181 310h87zM133 810c0 14.667 5.5 27.167 16.5 37.5S173.333 863 188 863c15.333 0 28.333-5.167 39-15.5s16-22.833 16-37.5-5.333-27.167-16-37.5-23.667-15.5-39-15.5c-14.667 0-27.5 5.167-38.5 15.5S133 795.333 133 810zm233-1c0 14.667 5.5 27.334 16.5 38.001s23.833 16 38.5 16c15.333 0 28.333-5.333 39-16s16-23.334 16-38.001-5.333-27.167-16-37.5-23.667-15.5-39-15.5c-14.667 0-27.5 5.167-38.5 15.5S366 794.333 366 809z"/><glyph glyph-name="Zacute" unicode="Ź" horiz-adv-x="589" d="M154 70h401V0H32v23l398 567H75v70h479v-23zm117 654 85 186h94v-14L330 724h-59z"/><glyph glyph-name="zacute" unicode="ź" horiz-adv-x="454" d="M145 68h282V0H27v23l278 395H50v69h374v-23zm65 498 85 214h94v-14L269 566h-59z"/><glyph glyph-name="Zdotaccent" unicode="Ż" horiz-adv-x="589" d="M154 70h401V0H32v23l398 567H75v70h479v-23zm88 740c0 15.333 5.668 28.5 17.001 39.5s25 16.5 41 16.5c15.333 0 28.666-5.5 39.999-16.5s17-24.167 17-39.5c0-16-5.5-29.333-16.5-40S316 754 300 754s-29.667 5.333-41 16-17 24-17 40z"/><glyph glyph-name="zdotaccent" unicode="ż" horiz-adv-x="454" d="M145 68h282V0H27v23l278 395H50v69h374v-23zm34 605c0 15.333 5.668 28.5 17.001 39.5s25 16.5 41 16.5c15.333 0 28.666-5.5 39.999-16.5s17-24.167 17-39.5c0-16-5.5-29.333-16.5-40S253 617 237 617s-29.667 5.333-41 16-17 24-17 40z"/><glyph glyph-name="Zcaron" unicode="Ž" horiz-adv-x="589" d="M154 70h401V0H32v23l398 567H75v70h479v-23zm256 840h60L323 724h-47L129 910h60l111-108z"/><glyph glyph-name="zcaron" unicode="ž" horiz-adv-x="454" d="M145 68h282V0H27v23l278 395H50v69h374v-23zm193 712h58L261 566h-47L78 780h59l101-128z"/><glyph glyph-name="uni018F" unicode="Ə" horiz-adv-x="731" d="M683 332c1.333-94.667-29.835-175.831-93.502-243.498s-141.167-100.834-232.5-99.501c-86 0-159 27.333-219 82s-90 125-90 211c0 19.333 2 43 6 71h547c-4 72-28.333 131-73 177s-100.667 69-168 69c-96 0-171-37-225-111l-54 45c66.667 92 160 138 280 138 90.667 1.333 167.334-31.334 230.001-98.001S684.333 426 683 332zm-84.001-48.997H125.998c-2-66 19.833-119.5 65.5-160.5s101.834-61.5 168.501-61.5c63.333 0 116.333 20.333 159 61 43.333 41.333 70 95 80 161z"/><glyph glyph-name="florin" unicode="ƒ" horiz-adv-x="443" d="m437 663 .001-64c-6 0-12.5.167-19.5.5s-12.333.666-16 .999-6.5.5-8.5.5c-32.667 0-57-7.167-73-21.5s-26.333-38.166-31-71.499l-13-109h104v-69h-113l-37-306c-12.667-104.667-68-157-166-157-20.667 0-40.334 2.333-59.001 7v65c16.667-2 31.334-3 44.001-3 32.667 0 57.167 7.333 73.5 22s26.833 38.667 31.5 72l37 300h-98v69h106l14 114C226.334 618.333 281.667 671 379 671c20.667 0 40-2.667 58-8z"/><glyph glyph-name="uni01D4" unicode="ǔ" d="m79 194-.002 293.001h76v-298c0-38.667 11.833-69.834 35.5-93.501S244.332 60 280.999 60c36 0 65.667 12 89 36s35 55 35 93v298h77V194c0-60.667-19.167-110-57.5-148S338.333-11 281-11c-58 0-106.167 19-144.5 57S79 133.333 79 194zm301.998 586.001h58l-135-214h-47l-136 214h59l101-128z"/><glyph glyph-name="AEacute" unicode="Ǽ" horiz-adv-x="821" d="M535 70h246V0H467l-23 134H168L97 0H13l344 660h412v-70H447l34-202h208v-70H493zM377 541 205 204h227zm11 183 85 186h94v-14L447 724h-59z"/><glyph glyph-name="aeacute" unicode="ǽ" horiz-adv-x="895" d="m837 211-382 .001c6.667-46 26.167-82.667 58.5-110s71.833-41 118.5-41c54.667 0 103.667 21.667 147 65l46-51c-50.667-56.667-115.334-85-194.001-85-44.667 0-85.834 10.5-123.501 31.5s-67.5 49.833-89.5 86.5c-17.333-37.333-43.833-66.333-79.5-87s-76.5-31-122.5-31c-51.333 0-92.833 12.833-124.5 38.5s-47.5 59.834-47.5 102.501c0 43.333 16 78.166 48 104.499s74.333 39.5 127 39.5h154v30c0 39.333-10.5 69.666-31.5 90.999s-49.5 32-85.5 32c-54 0-101-26-141-78l-51 42c21.333 34.667 49.333 61.167 84 79.5S220.332 498 260.999 498c82.667 0 138.334-34 167.001-102 22 32 50.167 57 84.5 75S584 498 624 498c62 0 114.167-20.833 156.5-62.5S844 341 844 277c0-30-2.333-52-7-66zm-382 63.001h308.999c2.667 46-10 83.167-38 111.5s-63.333 42.5-106 42.5c-43.333 0-80.166-14.167-110.499-42.5s-48.5-65.5-54.5-111.5zm-82.001-88V211h-145c-70 0-105-24.333-105-73 0-26 9.5-46.5 28.5-61.5s43.5-22.5 73.5-22.5c39.333 0 73.833 12.833 103.5 38.5s44.5 56.834 44.5 93.501zm26 379.999 85 214h94v-14l-120-200h-59z"/><glyph glyph-name="Oslashacute" unicode="Ǿ" horiz-adv-x="781" d="m739 631-82.999-83c51.333-62.667 77-135.334 77-218.001 2-94-31.333-174.667-100-242s-149.667-100.333-243-99c-82 0-154.333 25-217 75l-83-83-48 48 83 83c-51.333 62.667-77 135.334-77 218.001-2 94 31 174.667 99 242s149 100.333 243 99c81.333 0 153.666-25.333 216.999-76l84 84zM126.001 331c0-64 17.333-119.333 52-166l379 379c-46.667 38.667-102 58-166 58-75.333 0-138.333-26-189-78s-76-116.333-76-193zm529 0c0 63.333-17.335 118.332-52.002 164.999l-379-381c46.667-38 102.334-57 167.001-57 74.667 0 137.334 26.333 188.001 79s76 117.334 76 194.001zM361.999 723.999l85 186h94v-14l-120-172h-59z"/><glyph glyph-name="oslashacute" unicode="ǿ" horiz-adv-x="620" d="m572 458-59-60.001c34.667-44.667 52-96.334 52-155.001 1.333-68.667-23.834-128.5-75.501-179.5s-111.834-75.833-180.501-74.5c-58 0-109.333 17.333-154 52l-58-60-48 48 59 59c-34.667 44.667-52 96.334-52 155.001-1.333 70 23.334 130.333 74.001 181s110.667 75.334 180 74.001c58.667 0 110.334-17.333 155.001-52l59 58zM130 242.999c0-40.667 10-76.333 30-107l258 260c-32.667 22.667-68.667 34-108 34-52 0-95-17.833-129-53.5s-51-80.167-51-133.5zM491 243c0 40.667-10 76.333-30 107L202 91c30-24 65.667-36 107-36 50.667 0 93.667 18.167 129 54.5s53 80.833 53 133.5zM284 565.999l85 214h94v-14l-120-200h-59z"/><glyph glyph-name="uni0218" unicode="Ș" horiz-adv-x="558" d="m41 131 58 42.998c49.333-75.333 110.666-113 183.999-113 40 0 72.167 10 96.5 30s36.5 46.667 36.5 80c0 28-7.833 49.167-23.5 63.5s-44.5 31.833-86.5 52.5l-74 35c-50 23.333-87.333 48.333-112 75s-37 60.667-37 102c0 50.667 19.333 92 58 124s85.667 48 141 48c43.333 0 83.166-10.167 119.499-30.5s65.5-47.5 87.5-81.5l-57-43c-37.333 55.333-87.666 83-150.999 83-33.333 0-61.166-8.667-83.499-26S164 532.332 164 502.999c0-19.333 4.333-35.333 13-48 8-12 18.333-22 31-30s33.334-19 62.001-33l73-35c54-26.667 93.167-53.667 117.5-81s36.5-61.666 36.5-102.999c0-54-20-98.167-60-132.5s-91-51.5-153-51.5C233.334-11 186.667 1.5 144 26.5S67 86.333 41 131zm203-351.002 9 171h76l-25-171h-60z"/><glyph glyph-name="uni0219" unicode="ș" horiz-adv-x="454" d="m39 84 49.001 51.002c25.333-26 48.5-45 69.5-57s44.5-18 70.5-18c27.333 0 49.666 6.167 66.999 18.5s26 29.166 26 50.499c0 18.667-6.167 33.167-18.5 43.5s-34.5 21.833-66.5 34.5l-47 20c-42 17.333-72.667 36.333-92 57s-29 46.667-29 78c0 41.333 15.5 74.333 46.5 99s70.167 37 117.5 37c66 0 120.333-25.667 163-77l-47-48c-36 36-76 54-120 54-24.667 0-44.334-5.333-59.001-16s-22-25.667-22-45c0-15.333 5.5-27.833 16.5-37.5s31.833-20.834 62.5-33.501l45-19c46.667-20 79.834-40.833 99.501-62.5s29.5-48.834 29.5-81.501C400 86.666 383.333 51.333 350 26c-32.667-24.667-73-37-121-37-78 0-141.333 31.667-190 95zm155.001-303.998 9 171h76l-25-171h-60z"/><glyph glyph-name="uni021A" unicode="Ț" horiz-adv-x="581" d="M251 0v590H19v70h543v-70H329V0h-78zm-8-220 9 171h76l-25-171h-60z"/><glyph glyph-name="uni021B" unicode="ț" horiz-adv-x="381" d="m351 65-.001-65.001c-32.667-7.333-59.667-11-81-11-52 0-92.333 13.333-121 40s-43 66-43 118v271h-82v69h82v133h77v-133h152v-69h-152v-266c0-33.333 8.5-57.166 25.5-71.499s42.833-21.5 77.5-21.5c18.667 0 40.334 2 65.001 6zM173.999-220.001l9 171h76l-25-171h-60z"/><glyph glyph-name="uni0237" unicode="ȷ" horiz-adv-x="246" d="M-60-183v64.999c17.333-2 32.333-3 45-3 33.333 0 58.333 7.333 75 22S85-60.667 85-28v515h77V-33c0-52-14.167-91.333-42.5-118S52-191 2-191c-21.333 0-42 2.667-62 8z"/><glyph glyph-name="uni0259" unicode="ə" horiz-adv-x="571" d="M521 244c0-72-22.833-132.5-68.5-181.5S349-11 279-11c-64.667 0-119 20.667-163 62s-66 94-66 158c0 18.667 2 38 6 58h385c-4.667 48.667-22.5 87.5-53.5 116.5S317 427 269 427c-60 0-112-22-156-66l-45 52c52.667 56.667 120 85 202 85 72.667 0 132.667-24.333 180-73s71-109 71-181zm-83-45H130.001c1.333-42.667 16.166-76.834 44.499-102.501s63.833-38.5 106.5-38.5c41.333 0 76 12.833 104 38.5S430.667 156.333 438 199z"/><glyph glyph-name="circumflex" unicode="ˆ" horiz-adv-x="600" d="M459 566h-58L301 694 200 566h-59l136 214h47z"/><glyph glyph-name="caron" unicode="ˇ" horiz-adv-x="600" d="M401 780h58L324 566h-47L141 780h59l101-128z"/><glyph glyph-name="breve" unicode="˘" horiz-adv-x="600" d="M148 731v31h63v-29c0-30.667 8-54.834 24-72.501s37.333-26.5 64-26.5c27.333 0 49 8.833 65 26.5s24 41.834 24 72.501v29h63v-31c0-47.333-14-85.5-42-114.5S344.333 573 299 573c-44.667 0-81 14.667-109 44s-42 67.333-42 114z"/><glyph glyph-name="dotaccent" unicode="˙" horiz-adv-x="600" d="M242 673c0 15.333 5.668 28.5 17.001 39.5s25 16.5 41 16.5c15.333 0 28.666-5.5 39.999-16.5s17-24.167 17-39.5c0-16-5.5-29.333-16.5-40S316 617 300 617s-29.667 5.333-41 16-17 24-17 40z"/><glyph glyph-name="ring" unicode="˚" horiz-adv-x="600" d="M189 668c0 30.667 10.5 56.334 31.5 77.001s47.167 31 78.5 31 57.666-10.333 78.999-31 32-46.334 32-77.001-10.667-56.5-32-77.5S330.333 559 299 559c-30.667 0-56.667 10.5-78 31.5s-32 46.833-32 77.5zm161 0c0 14.667-5.001 27-15.001 37s-21.667 15-35 15c-14 0-26-5-36-15s-15-22.333-15-37 4.833-26.667 14.5-36 21.834-14 36.501-14c14 0 25.833 4.667 35.5 14s14.5 21.333 14.5 36z"/><glyph glyph-name="ogonek" unicode="˛" horiz-adv-x="600" d="M211-104c0 24.667 10.667 47.001 32 67.001 21.333 19.333 60 43.333 116 72l31-35-50-33C324.667-43.666 314.167-51.333 308.5-56S298-66 294-72s-6-12.667-6-20c0-24.667 16-37 48-37 15.333 0 33.333 2.333 54 7v-58c-24-7.333-48-11-72-11-32 0-57.833 8-77.5 24S211-130 211-104z"/><glyph glyph-name="tilde" unicode="˜" horiz-adv-x="600" d="m304 622-26 22c-.667.667-3.667 3-9 7s-9 6.667-11 8-5.167 3-9.5 5-8.5 3-12.5 3c-18.667 0-28-13.667-28-41v-17h-64c-.667 4-1 12.333-1 25 0 30.667 7.833 55.667 23.5 75s36.167 29 61.5 29c24 0 46.667-8.667 68-26l26-22c17.333-15.333 31.333-23 42-23 18.667 0 28 13.667 28 41v17h64c.667-4 1-12.333 1-25 0-30.667-7.833-55.667-23.5-75s-36.167-29-61.5-29c-23.333 0-46 8.667-68 26z"/><glyph glyph-name="hungarumlaut" unicode="˝" horiz-adv-x="600" d="m116 566 86 214h83v-14L171 566h-55zm199 0 86 214h83v-14L370 566h-55z"/><glyph glyph-name="gravecomb" unicode="̀" horiz-adv-x="0" d="m-220 566-120 200v14h94l85-214h-59z"/><glyph glyph-name="acutecomb" unicode="́" horiz-adv-x="0" d="m-340 566 85 214h94v-14l-120-200h-59z"/><glyph glyph-name="uni0302" unicode="̂" horiz-adv-x="0" d="M-91 566h-58l-100 128-101-128h-59l136 214h47z"/><glyph glyph-name="tildecomb" unicode="̃" horiz-adv-x="0" d="m-246 622-26 22c-.667.667-3.667 3-9 7s-9 6.667-11 8-5.167 3-9.5 5-8.5 3-12.5 3c-18.667 0-28-13.667-28-41v-17h-64c-.667 4-1 12.333-1 25 0 30.667 7.833 55.667 23.5 75s36.167 29 61.5 29c24 0 46.667-8.667 68-26l26-22c17.333-15.333 31.333-23 42-23 18.667 0 28 13.667 28 41v17h64c.667-4 1-12.333 1-25 0-30.667-7.833-55.667-23.5-75s-36.167-29-61.5-29c-24 0-46.667 8.667-68 26z"/><glyph glyph-name="uni0304" unicode="̄" horiz-adv-x="0" d="M-387 642v62h275v-62h-275z"/><glyph glyph-name="uni0306" unicode="̆" horiz-adv-x="0" d="M-402 731v31h63v-29c0-30.667 8-54.834 24-72.501s37.333-26.5 64-26.5c27.333 0 49 8.833 65 26.5s24 41.834 24 72.501v29h63v-31c0-47.333-14-85.5-42-114.5S-205.667 573-251 573c-44.667 0-81 14.667-109 44s-42 67.333-42 114z"/><glyph glyph-name="uni0307" unicode="̇" horiz-adv-x="0" d="M-308 673c0 15.333 5.668 28.5 17.001 39.5s25 16.5 41 16.5c15.333 0 28.666-5.5 39.999-16.5s17-24.167 17-39.5c0-16-5.5-29.333-16.5-40s-24.5-16-40.5-16-29.667 5.333-41 16-17 24-17 40z"/><glyph glyph-name="uni0308" unicode="̈" horiz-adv-x="0" d="M-412 673c0 14 5.667 26.501 17 37.501s24 16.5 38 16.5c15.333 0 28.5-5.333 39.5-16S-301 687.667-301 673s-5.5-27.167-16.5-37.5S-341.667 620-357 620c-14 0-26.667 5.333-38 16s-17 23-17 37zm212 .001c0 14.667 5.667 27.334 17 38.001s24.333 16 39 16c15.333 0 28.333-5.333 39-16s16-23.334 16-38.001-5.333-27.167-16-37.5-23.667-15.5-39-15.5c-14.667 0-27.667 5.333-39 16s-17 23-17 37z"/><glyph glyph-name="uni030A" unicode="̊" horiz-adv-x="0" d="M-361 668c0 30.667 10.5 56.334 31.5 77.001s47.167 31 78.5 31 57.666-10.333 78.999-31 32-46.334 32-77.001-10.667-56.5-32-77.5S-219.667 559-251 559c-30.667 0-56.667 10.5-78 31.5s-32 46.833-32 77.5zm161 0c0 14.667-5.001 27-15.001 37s-21.667 15-35 15c-14 0-26-5-36-15s-15-22.333-15-37 4.833-26.667 14.5-36 21.834-14 36.501-14c14 0 25.833 4.667 35.5 14s14.5 21.333 14.5 36z"/><glyph glyph-name="uni030B" unicode="̋" horiz-adv-x="0" d="m-434 566 86 214h83v-14l-114-200h-55zm199 0 86 214h83v-14l-114-200h-55z"/><glyph glyph-name="uni030C" unicode="̌" horiz-adv-x="0" d="M-149 780h58l-135-214h-47l-136 214h59l101-128z"/><glyph glyph-name="uni0326" unicode="̦" horiz-adv-x="0" d="m-293-220 9 171h76l-25-171h-60z"/><glyph glyph-name="uni0327" unicode="̧" horiz-adv-x="0" d="m-350-181-.001 54.999c18.667-2.667 37.334-4 56.001-4 52 0 78 21.667 78 65 0 26.667-11.333 51.334-34 74.001l33 17c44.667-22.667 67-56.667 67-102 0-33.333-12-60.833-36-82.5s-56-32.5-96-32.5c-23.333 0-46 3.333-68 10z"/><glyph glyph-name="uni0328" unicode="̨" horiz-adv-x="0" d="M-339-104c0 24.667 11 47 33 67 20 19.333 58.333 43.333 115 72l31-35-50-33c-21.333-14.667-35.333-25.5-42-32.5s-10-15.833-10-26.5c0-24.667 16-37 48-37 15.333 0 33.333 2.333 54 7v-58c-24-7.333-48-11-72-11-32 0-57.833 8-77.5 24s-29.5 37-29.5 63z"/><glyph glyph-name="tonos" unicode="΄" horiz-adv-x="500" d="m188 566 30 214h93v-14l-63-200h-60z"/><glyph glyph-name="dieresistonos" unicode="΅" horiz-adv-x="500" d="m190 566 39 214h93v-14l-74-200h-58zM43 673c0 14 5.667 26.499 17 37.499s24 16.5 38 16.5c15.333 0 28.333-5.167 39-15.5s16-23.166 16-38.499c0-14.667-5.333-27.167-16-37.5S113.333 620 98 620c-14 0-26.667 5.333-38 16s-17 23-17 37zm303-.001c0 14.667 5.333 27.334 16 38.001s23.667 16 39 16 28.333-5.333 39-16 16-23.334 16-38.001-5.333-27.167-16-37.5-23.667-15.5-39-15.5-28.333 5.167-39 15.5-16 22.833-16 37.5z"/><glyph glyph-name="Alphatonos" unicode="Ά" horiz-adv-x="663" d="m549 0-56 134H169L113 0H31l286 671h29L632 0h-83zm-86 204L331 529 199 204h264zM36 449l13 211h83L93 449H36z"/><glyph glyph-name="anoteleia" unicode="·" horiz-adv-x="280" d="M77 314c0 18 6.167 33 18.5 45s27.166 18 44.499 18 32.166-6 44.499-18 18.5-27 18.5-45-6.167-33-18.5-45-27.166-18-44.499-18-32.166 6-44.499 18S77 296 77 314z"/><glyph glyph-name="Epsilontonos" unicode="Έ" horiz-adv-x="566" d="M91 0v660h423v-70H169V388h264v-70H169V70h357V0H91zM-96 449l13 211H0l-39-211h-57z"/><glyph glyph-name="Etatonos" unicode="Ή" horiz-adv-x="708" d="M91 0v660h78V388h370v272h78V0h-78v318H169V0H91zM-96 449l13 211H0l-39-211h-57z"/><glyph glyph-name="Iotatonos" unicode="Ί" horiz-adv-x="259" d="M91 0v660h78V0H91zM-96 449l13 211H0l-39-211h-57z"/><glyph glyph-name="Omicrontonos" unicode="Ό" horiz-adv-x="781" d="M48 330c-2 94 30.999 174.667 98.999 242s149 100.333 243 99c93.333 1.333 174.333-31.667 243-99s102-148 100-242c2-94-31.333-174.667-100-242s-149.667-100.333-243-99C296.666-13 215.833 20 147.5 88S46 236.667 48 330zm603.999 1c1.333 74.667-23.667 138.333-75 191s-113.333 78.334-186 77.001c-74.667 0-137-25.5-187-76.5s-75-114.833-75-191.5 25-140.834 75-192.501 112.333-77.5 187-77.5c72.667-1.333 134.667 24.5 186 77.5s76.333 117.167 75 192.5zm-700 117.999 13 211h83l-39-211h-57z"/><glyph glyph-name="Upsilontonos" unicode="Ύ" horiz-adv-x="616" d="M576 660 347 273V0h-78v273L40 660h88l180-310 181 310h87zm-693-211 13 211h83l-39-211h-57z"/><glyph glyph-name="Omegatonos" unicode="Ώ" horiz-adv-x="791" d="m576 70 151.997.003v-70h-269v70c132 61.333 198 151.333 198 270 0 74.667-24.833 136.5-74.5 185.5s-112.167 73.5-187.5 73.5-137.666-24.333-186.999-73-74-110.334-74-185.001c0-117.333 66-207.666 198-271v-70h-269v70h150c-106.667 70.668-160 161.668-160 273-1.333 91.334 31.5 169.167 98.5 233.5s148.167 95.833 243.5 94.5c94.667 1.333 175.834-30.334 243.501-95.001S739.333 433.667 738 343c0-106.667-54-197.667-162-273zM-48.003 449.003l13 211h83l-39-211h-57z"/><glyph glyph-name="iotadieresistonos" unicode="ΐ" horiz-adv-x="311" d="M82 143v344.001h77v-335c0-32.667 6.5-56.334 19.5-71.001s33.833-22 62.5-22c18 0 39.667 2 65 6V0c-32.667-7.333-59.667-11-81-11-95.333 0-143 51.333-143 154zM68 566.001l39 214h93v-14l-74-200H68zm-147 107c0 14 5.667 26.499 17 37.499S-38 727-24 727c15.333 0 28.333-5.167 39-15.5s16-23.166 16-38.499c0-14.667-5.333-27.167-16-37.5s-23.667-15.5-39-15.5c-14 0-26.667 5.333-38 16s-17 23-17 37zM224 673c0 14.667 5.333 27.334 16 38.001s23.667 16 39 16 28.333-5.333 39-16 16-23.334 16-38.001-5.333-27.167-16-37.5-23.667-15.5-39-15.5-28.333 5.167-39 15.5-16 22.833-16 37.5z"/><glyph glyph-name="Alpha" unicode="Α" horiz-adv-x="663" d="m549 0-56 134H169L113 0H31l286 671h29L632 0h-83zm-86 204L331 529 199 204h264z"/><glyph glyph-name="Beta" unicode="Β" horiz-adv-x="616" d="M572 190c0-56-19.002-101.667-57.002-137s-88.667-53-152-53h-272v660h227c56.667 0 102.334-15.667 137.001-47 34-31.333 51-71.333 51-120 0-54-21-97.333-63-130 40.667-12 72.334-33.167 95.001-63.5s34-66.833 34-109.5zM309.998 590h-141V385h141c37.333 0 66 9.167 86 27.5s30 43.5 30 75.5-10 57-30 75-48.667 27-86 27zm182-398c0 37.333-12.167 67-36.5 89s-57.833 33-100.5 33h-186V70h186c42.667 0 76.167 11 100.5 33s36.5 51.667 36.5 89z"/><glyph glyph-name="Gamma" unicode="Γ" horiz-adv-x="506" d="M91 0v660h391v-70H169V0H91z"/><glyph glyph-name="uni0394" unicode="Δ" horiz-adv-x="663" d="M346 671 623 23V0H40v23l277 648h29zM520 70 331 517 143 70h377z"/><glyph glyph-name="Epsilon" unicode="Ε" horiz-adv-x="566" d="M91 0v660h423v-70H169V388h264v-70H169V70h357V0H91z"/><glyph glyph-name="Zeta" unicode="Ζ" horiz-adv-x="589" d="M154 70h401V0H32v23l398 567H75v70h479v-23z"/><glyph glyph-name="Eta" unicode="Η" horiz-adv-x="708" d="M91 0v660h78V388h370v272h78V0h-78v318H169V0H91z"/><glyph glyph-name="Theta" unicode="Θ" horiz-adv-x="781" d="M48 330c-2 94 30.999 174.667 98.999 242s149 100.333 243 99c93.333 1.333 174.333-31.667 243-99s102-148 100-242c2-94-31.333-174.667-100-242s-149.667-100.333-243-99C296.666-13 215.833 20 147.5 88S46 236.667 48 330zm607.999 0c1.333 75.333-24 139.831-76 193.498s-115.333 79.834-190 78.501c-75.333 0-138.166-26-188.499-78s-75.5-116.667-75.5-194 25.167-142 75.5-194 113.166-78 188.499-78c74.667-1.333 138 24.834 190 78.501s77.333 118.167 76 193.5zm-424-37.002v70h317v-70h-317z"/><glyph glyph-name="Iota" unicode="Ι" horiz-adv-x="259" d="M91 0v660h78V0H91z"/><glyph glyph-name="Kappa" unicode="Κ" horiz-adv-x="633" d="M91 0v660h78V0H91zm189 354L602 0h-99L178 354l297 306h100z"/><glyph glyph-name="Lambda" unicode="Λ" horiz-adv-x="663" d="M632 0h-83L331 518 113 0H31l286 671h29z"/><glyph glyph-name="Mu" unicode="Μ" horiz-adv-x="789" d="M671 671h27V0h-78v473L409 187h-28L169 475V0H91v671h28l275-381z"/><glyph glyph-name="Nu" unicode="Ν" horiz-adv-x="708" d="M539 660h78V-11h-28L169 495V0H91v671h28l420-507v496z"/><glyph glyph-name="Xi" unicode="Ξ" horiz-adv-x="615" d="M40 590v70h535v-70H40zm68-292v70h401v-70H108zM40 0v70h535V0H40z"/><glyph glyph-name="Omicron" unicode="Ο" horiz-adv-x="781" d="M48 330c-2 94 30.999 174.667 98.999 242s149 100.333 243 99c93.333 1.333 174.333-31.667 243-99s102-148 100-242c2-94-31.333-174.667-100-242s-149.667-100.333-243-99C296.666-13 215.833 20 147.5 88S46 236.667 48 330zm603.999 1c1.333 74.667-23.667 138.333-75 191s-113.333 78.334-186 77.001c-74.667 0-137-25.5-187-76.5s-75-114.833-75-191.5 25-140.834 75-192.501 112.333-77.5 187-77.5c72.667-1.333 134.667 24.5 186 77.5s76.333 117.167 75 192.5z"/><glyph glyph-name="Pi" unicode="Π" horiz-adv-x="682" d="M91 0v660h500V0h-78v590H169V0H91z"/><glyph glyph-name="Rho" unicode="Ρ" horiz-adv-x="573" d="M91 0v660h232c63.333 0 114.333-17.833 153-53.5S534 525 534 469c0-56.667-19.333-103-58-139s-89.667-54-153-54H169V0H91zm78 346h152c41.333 0 73.666 11 96.999 33s35 51.667 35 89c0 36.667-11.667 66.167-35 88.5S362.333 590 321 590H169V346z"/><glyph glyph-name="Sigma" unicode="Σ" horiz-adv-x="574" d="M186 70h348V0H65v23l236 315L65 637v23h457v-70H189l192-243v-16z"/><glyph glyph-name="Tau" unicode="Τ" horiz-adv-x="581" d="M251 0v590H19v70h543v-70H329V0h-78z"/><glyph glyph-name="Upsilon" unicode="Υ" horiz-adv-x="616" d="M576 660 347 273V0h-78v273L40 660h88l180-310 181 310h87z"/><glyph glyph-name="Phi" unicode="Φ" horiz-adv-x="799" d="m438 19 .002-60.999h-78v61c-89.333 0-163.666 29.667-222.999 89s-89 133.666-89 222.999c-1.333 87.333 28.167 161 88.5 221s134.833 89.667 223.5 89v60h78v-60c89.333.667 164.166-28.833 224.499-88.5s89.833-133.5 88.5-221.5c1.333-88.667-28.334-163.167-89.001-223.5S526.667 17.667 438 19zm-77.998 70.001v481.001c-67.333 0-122.666-22.667-165.999-68s-65-103-65-173c0-70.667 21.667-128.334 65-173.001s98.666-67 165.999-67zm310 240.001c0 70-21.833 127.668-65.5 173.001s-99.167 68-166.5 68v-481c66.667 0 122 22.667 166 68s66 102.666 66 171.999z"/><glyph glyph-name="Chi" unicode="Χ" horiz-adv-x="599" d="M569 0h-91L300 271 121 0H30l227 338L46 660h90l164-257 163 257h90L345 337z"/><glyph glyph-name="Psi" unicode="Ψ" horiz-adv-x="760" d="m341 0 .001 152c-87.333 10.667-155.333 42.334-204 95.001s-73 122.667-73 210v203h78v-207c0-66 18-119.333 54-160 37.333-41.333 85.666-64 144.999-68v435h78v-435c60 4 108 26.667 144 68 36.667 40.667 55 94 55 160v207h78v-203c0-87.333-24.333-157.333-73-210S506.333 162.667 419 152V0h-78z"/><glyph glyph-name="uni03A9" unicode="Ω" horiz-adv-x="791" d="m576 70 151.997.003v-70h-269v70c132 61.333 198 151.333 198 270 0 74.667-24.833 136.5-74.5 185.5s-112.167 73.5-187.5 73.5-137.666-24.333-186.999-73-74-110.334-74-185.001c0-117.333 66-207.666 198-271v-70h-269v70h150c-106.667 70.668-160 161.668-160 273-1.333 91.334 31.5 169.167 98.5 233.5s148.167 95.833 243.5 94.5c94.667 1.333 175.834-30.334 243.501-95.001S739.333 433.667 738 343c0-106.667-54-197.667-162-273z"/><glyph glyph-name="Iotadieresis" unicode="Ϊ" horiz-adv-x="259" d="M91 0v660h78V0H91zM-41 810c0 14.667 5.5 27.167 16.5 37.5S-.667 863 14 863c15.333 0 28.333-5.167 39-15.5s16-22.833 16-37.5-5.333-27.167-16-37.5S29.333 757 14 757c-14.667 0-27.5 5.167-38.5 15.5S-41 795.333-41 810zm233-1c0 14.667 5.5 27.334 16.5 38.001s23.833 16 38.5 16c15.333 0 28.333-5.333 39-16s16-23.334 16-38.001-5.333-27.167-16-37.5-23.667-15.5-39-15.5c-14.667 0-27.5 5.167-38.5 15.5S192 794.333 192 809z"/><glyph glyph-name="Upsilondieresis" unicode="Ϋ" horiz-adv-x="616" d="M576 660 347 273V0h-78v273L40 660h88l180-310 181 310h87zM136 810c0 14.667 5.5 27.167 16.5 37.5S176.333 863 191 863c15.333 0 28.333-5.167 39-15.5s16-22.833 16-37.5-5.333-27.167-16-37.5-23.667-15.5-39-15.5c-14.667 0-27.5 5.167-38.5 15.5S136 795.333 136 810zm233-1c0 14.667 5.5 27.334 16.5 38.001s23.833 16 38.5 16c15.333 0 28.333-5.333 39-16s16-23.334 16-38.001-5.333-27.167-16-37.5-23.667-15.5-39-15.5c-14.667 0-27.5 5.167-38.5 15.5S369 794.333 369 809z"/><glyph glyph-name="alphatonos" unicode="ά" horiz-adv-x="644" d="m623 65 .001-65C604.334-4.667 586.667-7 570-7c-57.333 0-91.333 28.333-102 85-18.667-28-44-49.833-76-65.5S325-11 287-11c-66.667-1.333-123.167 23.167-169.5 73.5S48.667 173.333 50 244c0 72 22.5 132.333 67.5 181S219 498 287 498c38.667 0 74.5-8.5 107.5-25.5s58.833-40.167 77.5-69.5l5 84h73c-6.667-96-10-173.333-10-232V133c0-47.333 17.667-71 53-71 6 0 16 1 30 3zM464.001 243c0 57.333-16.001 102.334-48.001 135.001s-71.667 49-119 49c-48 0-88-17.5-120-52.5s-48-78.5-48-130.5c0-52.667 15.833-96.5 47.5-131.5s71.834-52.5 120.501-52.5c46 0 85.333 16.167 118 48.5s49 77.166 49 134.499zM252 566.001l30 214h93v-14l-63-200h-60z"/><glyph glyph-name="epsilontonos" unicode="έ" horiz-adv-x="508" d="m410 129 52.001-45.999c-44.667-62.667-114.334-94-209.001-94-134.667 0-202 46-202 138 0 31.333 8.167 57.666 24.5 78.999s39.5 36 69.5 44c-48 20.667-72 58-72 112 0 42.667 16.167 76 48.5 100S199 498 257 498c90.667 0 156.334-28.333 197.001-85l-52-46c-34 40-80.667 60-140 60-73.333 0-110-26-110-78 0-46.667 32-70 96-70h101v-68h-99c-42 0-72.5-5.833-91.5-17.5s-28.5-29.834-28.5-54.501c0-28 9.167-48.167 27.5-60.5s50.166-18.5 95.499-18.5c37.333 0 67.833 5.333 91.5 16S390 104.333 410 129zM217.001 566.001l30 214h93v-14l-63-200h-60z"/><glyph glyph-name="etatonos" unicode="ή" horiz-adv-x="586" d="M508 306v-485.999h-77v476c0 39.333-11.167 71-33.5 95s-51.5 36-87.5 36c-38 0-69-12.333-93-37s-36-56-36-94v-296h-76v354c0 46-18.333 69-55 69l-29-1v65c18 4.667 36 7 54 7 48 0 79.667-21.667 95-65 37.333 46 89.333 69 156 69 55.333 0 99.5-17.333 132.5-52S508 364.667 508 306zM269 566.001l30 214h93v-14l-63-200h-60z"/><glyph glyph-name="iotatonos" unicode="ί" horiz-adv-x="311" d="M82 143v344.001h77v-335c0-32.667 6.5-56.334 19.5-71.001s33.833-22 62.5-22c18 0 39.667 2 65 6V0c-32.667-7.333-59.667-11-81-11-95.333 0-143 51.333-143 154zm-1 423.001 30 214h93v-14l-63-200H81z"/><glyph glyph-name="upsilondieresistonos" unicode="ΰ" horiz-adv-x="567" d="M79 200v287h77V196c0-41.333 11.667-74.5 35-99.5S245.333 59 284 59c38 0 68.833 12.667 92.5 38s35.5 58.333 35.5 99v291h77V200c0-64-18.667-115.167-56-153.5S346-11 284-11c-62.667 0-112.5 19.167-149.5 57.5S79 136 79 200zm146 366 39 214h93v-14l-74-200h-58zM78 673c0 14 5.667 26.499 17 37.499s24 16.5 38 16.5c15.333 0 28.333-5.167 39-15.5s16-23.166 16-38.499c0-14.667-5.333-27.167-16-37.5S148.333 620 133 620c-14 0-26.667 5.333-38 16s-17 23-17 37zm303-.001c0 14.667 5.333 27.334 16 38.001s23.667 16 39 16 28.333-5.333 39-16 16-23.334 16-38.001-5.333-27.167-16-37.5-23.667-15.5-39-15.5-28.333 5.167-39 15.5-16 22.833-16 37.5z"/><glyph glyph-name="alpha" unicode="α" horiz-adv-x="644" d="m623 65 .001-65C604.334-4.667 586.667-7 570-7c-57.333 0-91.333 28.333-102 85-18.667-28-44-49.833-76-65.5S325-11 287-11c-66.667-1.333-123.167 23.167-169.5 73.5S48.667 173.333 50 244c0 72 22.5 132.333 67.5 181S219 498 287 498c38.667 0 74.5-8.5 107.5-25.5s58.833-40.167 77.5-69.5l5 84h73c-6.667-96-10-173.333-10-232V133c0-47.333 17.667-71 53-71 6 0 16 1 30 3zM464.001 243c0 57.333-16.001 102.334-48.001 135.001s-71.667 49-119 49c-48 0-88-17.5-120-52.5s-48-78.5-48-130.5c0-52.667 15.833-96.5 47.5-131.5s71.834-52.5 120.501-52.5c46 0 85.333 16.167 118 48.5s49 77.166 49 134.499z"/><glyph glyph-name="beta" unicode="β" horiz-adv-x="610" d="M560 215c0-65.333-22-119.333-66-162s-99.667-64-167-64c-64 0-119 20-165 60v-229H85v734c0 60.667 20.167 110.667 60.5 150s92.166 59 155.499 59c58.667 0 106.834-17.333 144.501-52S502 632 502 578c0-72-30-124.333-90-157 46-14.667 82.167-40.167 108.5-76.5S560 265 560 215zm-79 2c0 47.333-15.333 85.5-46 114.5S364 375 314 375h-62v68h47c38 0 68.167 11.5 90.5 34.5S423 531.667 423 571c0 35.333-11.667 64.333-35 87s-53 34-89 34c-40.667 0-73.667-13.333-99-40s-38-60.667-38-102V131c42-47.333 94.333-71 157-71 48 0 87 14.5 117 43.5s45 66.833 45 113.5z"/><glyph glyph-name="gamma" unicode="γ" horiz-adv-x="557" d="M531 487 317-19v-161h-76v161L26 487h82L279 81l170 406h82z"/><glyph glyph-name="delta" unicode="δ" horiz-adv-x="596" d="M546 237c1.333-67.333-23.001-125.832-73.001-175.499S364.332-12.333 296.999-11c-68-1.333-126.5 22.667-175.5 72s-72.833 108-71.5 176C48.666 303.667 72.333 361.167 121 409.5s106.667 71.833 174 70.5h10L61 727v23h445v-73H216l217-220c40.667-42.667 69.667-80.5 87-113.5S546 275 546 237zm-79.001-3.999c0 51.333-16.334 93.832-49.001 127.499s-73.667 50.5-123 50.5-89.333-16.333-120-49-46-75-46-127c0-52.667 15.5-95 46.5-127s71.833-48 122.5-48 91.334 16 122.001 48c31.333 32.667 47 74.334 47 125.001z"/><glyph glyph-name="epsilon" unicode="ε" horiz-adv-x="508" d="m410 129 52.001-45.999c-44.667-62.667-114.334-94-209.001-94-134.667 0-202 46-202 138 0 31.333 8.167 57.666 24.5 78.999s39.5 36 69.5 44c-48 20.667-72 58-72 112 0 42.667 16.167 76 48.5 100S199 498 257 498c90.667 0 156.334-28.333 197.001-85l-52-46c-34 40-80.667 60-140 60-73.333 0-110-26-110-78 0-46.667 32-70 96-70h101v-68h-99c-42 0-72.5-5.833-91.5-17.5s-28.5-29.834-28.5-54.501c0-28 9.167-48.167 27.5-60.5s50.166-18.5 95.499-18.5c37.333 0 67.833 5.333 91.5 16S390 104.333 410 129z"/><glyph glyph-name="zeta" unicode="ζ" horiz-adv-x="455" d="M455 727 255.998 442.999c-46.667-66-80-117-100-153-18.667-33.333-28-64-28-92 0-34.667 10.833-62.167 32.5-82.5s56.167-35.833 103.5-46.5l39-8c42-8.667 74-25.5 96-50.5s33-56.5 33-94.5c0-33.333-8-65.333-24-96h-77c15.333 28.667 23 56.334 23 83.001 0 27.333-7.5 48.333-22.5 63s-38.5 25-70.5 31l-40 8c-55.333 11.333-97.666 33.333-126.999 66s-44 73.334-44 122.001c0 24 4.667 49 14 75 10 25.333 24.667 53.666 44 84.999 18.667 29.333 48.334 73 89.001 131l136 194H53v72h402v-23z"/><glyph glyph-name="eta" unicode="η" horiz-adv-x="586" d="M508 306v-485.999h-77v476c0 39.333-11.167 71-33.5 95s-51.5 36-87.5 36c-38 0-69-12.333-93-37s-36-56-36-94v-296h-76v354c0 46-18.333 69-55 69l-29-1v65c18 4.667 36 7 54 7 48 0 79.667-21.667 95-65 37.333 46 89.333 69 156 69 55.333 0 99.5-17.333 132.5-52S508 364.667 508 306z"/><glyph glyph-name="theta" unicode="θ" horiz-adv-x="617" d="M567 376c0-124-22.83-219.5-68.496-286.5S389.67-11 309.003-11 165.169 22.5 119.502 89.5 51.002 252 51.002 376s22.667 219.167 68 285.5S227.668 761 309 761 453.667 727.833 499 661.5 567 500 567 376zm-435.996 39h356c-4 89.333-21.667 157.5-53 204.5s-73 70.5-125 70.5c-52.667 0-94.5-23.5-125.5-70.5s-48.5-115.167-52.5-204.5zm356-73H131.005c3.333-91.333 20.666-161.333 51.999-210s73.333-73 126-73c52 0 93.833 24.333 125.5 73s49.167 118.667 52.5 210z"/><glyph glyph-name="iota" unicode="ι" horiz-adv-x="311" d="M82 143v344.001h77v-335c0-32.667 6.5-56.334 19.5-71.001s33.833-22 62.5-22c18 0 39.667 2 65 6V0c-32.667-7.333-59.667-11-81-11-95.333 0-143 51.333-143 154z"/><glyph glyph-name="kappa" unicode="κ" horiz-adv-x="508" d="M85 0v487h77V0H85zm183 265L495 0h-97L172 264l210 223h99z"/><glyph glyph-name="lambda" unicode="λ" horiz-adv-x="548" d="M513 64h22.001V0c-12.667-4-25.667-6-39-6-24.667 0-44.667 6.667-60 20s-28.333 35.333-39 66l-122 329-176-409h-82l222 500-37 106c-12 30.667-24.833 52.5-38.5 65.5s-32.167 19.5-55.5 19.5c-12 0-28-1-48-3v65c19.333 5.333 39.666 8 60.999 8 35.333 0 64.5-10 87.5-30s43.167-52.667 60.5-98l193-520c12-32.667 29-49 51-49z"/><glyph glyph-name="uni03BC" unicode="μ" horiz-adv-x="592" d="M571 65V0c-18.667-4.667-36-7-52-7-46.667 0-78 19.667-94 59-32.667-42-77.334-63-134.001-63-53.333 0-96.333 19-129 57v-226h-77v667h77V196c0-39.333 11.5-71.833 34.5-97.5s52.833-38.5 89.5-38.5 66.667 12.833 90 38.5 35 58.167 35 97.5v291h77V136c0-49.333 18-74 54-74 6.667 0 16.334 1 29.001 3z"/><glyph glyph-name="nu" unicode="ν" horiz-adv-x="539" d="M431 487h82L284-11h-28L26 487h82l162-367z"/><glyph glyph-name="xi" unicode="ξ" horiz-adv-x="471" d="M169 550c0-34 11-64.001 33-90.001 22-25.333 51.667-38 89-38h119v-70H291c-46 0-83-12.833-111-38.5s-42-60.5-42-104.5c0-76 48.333-123.667 145-143l41-8c84.667-16.667 127-64 127-142 0-33.333-8-65.333-24-96h-76c14.667 30 22 57.333 22 82 0 28-7 49.167-21 63.5s-37 23.833-69 28.5l-43 7C184 9.666 139.833 31.833 107.5 67.5S59 147.334 59 200.001c0 45.333 11.333 84.5 34 117.5s55 57.167 97 72.5c-31.333 14-55.5 34-72.5 60s-25.5 54.667-25.5 86c0 61.333 22.333 108.666 67 141.999H65v72h386v-72H303c-41.333 0-74-12.333-98-37s-36-55-36-91z"/><glyph glyph-name="omicron" unicode="ο" horiz-adv-x="610" d="M50 244c-1.333 69.333 23.499 129.333 74.499 180s111.167 75.334 180.5 74.001c70 1.333 130.333-23.334 181-74.001S561.333 313.333 560 244c1.333-68.667-23.667-128.5-75-179.5S373.334-11.333 304.001-10c-69.333-1.333-129.333 23.5-180 74.5S48.667 175.333 50 244zm430.999-1c0 52-16.832 95.667-50.499 131S355 427 305 427s-91.833-17.5-125.5-52.5S129 295.667 129 243c0-51.333 16.833-94.5 50.5-129.5S254.667 61 304 61s91.166 17.667 125.499 53 51.5 78.333 51.5 129z"/><glyph glyph-name="pi" unicode="π" horiz-adv-x="592" d="M102 0v414H23v73h545v-73h-78V0h-76v414H179V0h-77z"/><glyph glyph-name="rho" unicode="ρ" horiz-adv-x="621" d="M571 244c0-72-22.834-132.5-68.501-181.5S400.332-11 332.999-11c-36.667 0-70.667 7.333-102 22S174.333 45.667 155 71v-251H79v421c0 76 22.333 137.833 67 185.5S249 498 321 498c72.667 0 132.5-24 179.5-72S571 317.333 571 244zm-79.001-1c0 52.667-16.331 96.5-48.998 131.5s-73.667 52.5-123 52.5c-50.667 0-91-16.833-121-50.5s-45-78.5-45-134.5c0-54.667 15.333-98.667 46-132C231.334 76.667 271.667 60 321 60s90.166 17.5 122.499 52.5 48.5 78.5 48.5 130.5z"/><glyph glyph-name="uni03C2" unicode="ς" horiz-adv-x="526" d="M373-98c0 25.333-6.499 44.833-19.499 58.5s-34.5 24.5-64.5 32.5l-51 13c-61.333 16-108 44.5-140 85.5s-48 91.833-48 152.5c0 74 22.833 134.833 68.5 182.5s104.167 71.5 175.5 71.5c91.333 0 160-36.333 206-109l-55-44c-40.667 54.667-90.334 82-149.001 82-48 0-87.833-17.167-119.5-51.5S129 298.334 129 247.001c0-92.667 50-151.667 150-177l52-13c80.667-20 121-67 121-141 0-32-8-64-24-96h-76c14 29.333 21 56.666 21 81.999z"/><glyph glyph-name="sigma" unicode="σ" horiz-adv-x="634" d="m620 487 .001-73h-147c53.333-44.667 80-103.667 80-177 1.333-68.667-23-127.5-73-176.5s-109.667-72.833-179-71.5c-70.667 0-130.167 24.333-178.5 73s-72.5 108.667-72.5 180c0 70.667 24.167 129.167 72.5 175.5S231.667 487 305 487h315zM474.001 243c0 50.667-16.167 92.333-48.5 125s-73.5 49-123.5 49c-50.667 0-92.167-16.333-124.5-49s-48.5-74.667-48.5-126 16.5-94.5 49.5-129.5S252.334 60 301.001 60c49.333 0 90.5 17.5 123.5 52.5s49.5 78.5 49.5 130.5z"/><glyph glyph-name="tau" unicode="τ" horiz-adv-x="478" d="M448 414H258.001V152c0-62 33.333-93 100-93 20 0 42.333 2 67 6V0C394.334-7.333 367.667-11 345-11c-52.667 0-93 13.667-121 41s-42 66.333-42 117v267H17v73h431v-73z"/><glyph glyph-name="upsilon" unicode="υ" horiz-adv-x="567" d="M79 200v287h77V196c0-41.333 11.667-74.5 35-99.5S245.333 59 284 59c38 0 68.833 12.667 92.5 38s35.5 58.333 35.5 99v291h77V200c0-64-18.667-115.167-56-153.5S346-11 284-11c-62.667 0-112.5 19.167-149.5 57.5S79 136 79 200z"/><glyph glyph-name="phi" unicode="φ" horiz-adv-x="747" d="m411-11 .001-169.001h-77v170c-80.667 3.333-148.334 28.333-203.001 75s-81.667 106-81 178c0 72.667 26.833 131.834 80.5 177.501S252 491 334 495v165h77V496c82-4 150.167-29.167 204.5-75.5S697 315 697 243c0-72.667-27.167-132.167-81.5-178.5S493-7 411-11zm210.001 252.999c0 54.667-20.001 98.666-60.001 131.999-40 32.667-90.667 50.667-152 54v-371c60.667 2.667 111.334 20.334 152.001 53.001 40 33.333 60 77.333 60 132zM336 56.998v371.001c-60-2.667-110-21-150-55-39.333-33.333-59-77-59-131 0-54.667 19.667-98.667 59-132 39.333-32.667 89.333-50.334 150-53.001z"/><glyph glyph-name="chi" unicode="χ" horiz-adv-x="488" d="m482-116-.002-64c-15.333-4-30.666-6-45.999-6-47.333 0-82.666 26.333-105.999 79L237 89 110-180H25l168 344-96 213c-8 16.667-16.333 28.5-25 35.5S51.333 423 36 423s-25.666-.333-30.999-1v65c16 4 32.333 6 49 6 27.333 0 48.333-6 63-18s28.667-32.667 42-62l80-180 123 254h84l-165-329 109-229c9.333-18.667 18.166-31 26.499-37s20.833-9 37.5-9c14.667 0 24 .333 28 1z"/><glyph glyph-name="psi" unicode="ψ" horiz-adv-x="739" d="m331-180 .001 169c-74 0-134.5 23.833-181.5 71.5s-70.5 108.834-70.5 183.501v243h76v-237c0-54 17-99.333 51-136s75.667-55 125-55v601h77v-601c49.333 0 91.166 18.333 125.499 55s51.5 82 51.5 136v237h76v-243c0-74.667-23.5-135.834-70.5-183.501S482.667-11 408-11v-169h-77z"/><glyph glyph-name="omega" unicode="ω" horiz-adv-x="784" d="M734 233c0-74.667-17.999-134.004-53.999-178.004-34.667-44-83-66-145-66-67.333 0-115 27.333-143 82-26-54.667-73.667-82-143-82-61.333 0-110 22-146 66-35.333 44.667-53 104-53 178 0 64.667 14.5 119.334 43.5 164.001s70.833 76.667 125.5 96l28-68c-79.333-38-119-102.333-119-193 0-52.667 11.167-94.5 33.5-125.5s52.166-46.5 89.499-46.5c32.667 0 58.334 11.333 77.001 34s28 53.334 28 92.001v138h73v-138c0-39.333 9.167-70.166 27.5-92.499s43.833-33.5 76.5-33.5c37.333 0 67.166 15.333 89.499 46S656 178.333 656 231c0 92.667-39.333 157.334-118 194.001l27 68c54.667-19.333 96.5-51.333 125.5-96S734 297.667 734 233z"/><glyph glyph-name="iotadieresis" unicode="ϊ" horiz-adv-x="311" d="M82 143v344.001h77v-335c0-32.667 6.5-56.334 19.5-71.001s33.833-22 62.5-22c18 0 39.667 2 65 6V0c-32.667-7.333-59.667-11-81-11-95.333 0-143 51.333-143 154zM-26 673.001c0 14.667 5.5 27.334 16.5 38.001s23.833 16 38.5 16c15.333 0 28.5-5.333 39.5-16S85 687.668 85 673.001s-5.5-27.167-16.5-37.5-24.167-15.5-39.5-15.5c-14.667 0-27.5 5.167-38.5 15.5s-16.5 22.833-16.5 37.5zm182 0c0 14.667 5.667 27.334 17 38.001s24.333 16 39 16c15.333 0 28.333-5.333 39-16s16-23.334 16-38.001-5.333-27.167-16-37.5-23.667-15.5-39-15.5c-14.667 0-27.667 5.333-39 16s-17 23-17 37z"/><glyph glyph-name="upsilondieresis" unicode="ϋ" horiz-adv-x="567" d="M79 200v287h77V196c0-41.333 11.667-74.5 35-99.5S245.333 59 284 59c38 0 68.833 12.667 92.5 38s35.5 58.333 35.5 99v291h77V200c0-64-18.667-115.167-56-153.5S346-11 284-11c-62.667 0-112.5 19.167-149.5 57.5S79 136 79 200zm36 473c0 14 5.667 26.501 17 37.501s24 16.5 38 16.5c15.333 0 28.5-5.333 39.5-16S226 687.667 226 673s-5.5-27.167-16.5-37.5S185.333 620 170 620c-14 0-26.667 5.333-38 16s-17 23-17 37zm212 .001c0 14.667 5.667 27.334 17 38.001s24.333 16 39 16c15.333 0 28.333-5.333 39-16s16-23.334 16-38.001-5.333-27.167-16-37.5-23.667-15.5-39-15.5c-14.667 0-27.667 5.333-39 16s-17 23-17 37z"/><glyph glyph-name="omicrontonos" unicode="ό" horiz-adv-x="610" d="M50 244c-1.333 69.333 23.499 129.333 74.499 180s111.167 75.334 180.5 74.001c70 1.333 130.333-23.334 181-74.001S561.333 313.333 560 244c1.333-68.667-23.667-128.5-75-179.5S373.334-11.333 304.001-10c-69.333-1.333-129.333 23.5-180 74.5S48.667 175.333 50 244zm430.999-1c0 52-16.832 95.667-50.499 131S355 427 305 427s-91.833-17.5-125.5-52.5S129 295.667 129 243c0-51.333 16.833-94.5 50.5-129.5S254.667 61 304 61s91.166 17.667 125.499 53 51.5 78.333 51.5 129zM265 566l30 214h93v-14l-63-200h-60z"/><glyph glyph-name="upsilontonos" unicode="ύ" horiz-adv-x="567" d="M79 200v287h77V196c0-41.333 11.667-74.5 35-99.5S245.333 59 284 59c38 0 68.833 12.667 92.5 38s35.5 58.333 35.5 99v291h77V200c0-64-18.667-115.167-56-153.5S346-11 284-11c-62.667 0-112.5 19.167-149.5 57.5S79 136 79 200zm158 366 30 214h93v-14l-63-200h-60z"/><glyph glyph-name="omegatonos" unicode="ώ" horiz-adv-x="784" d="M734 233c0-74.667-17.999-134.004-53.999-178.004-34.667-44-83-66-145-66-67.333 0-115 27.333-143 82-26-54.667-73.667-82-143-82-61.333 0-110 22-146 66-35.333 44.667-53 104-53 178 0 64.667 14.5 119.334 43.5 164.001s70.833 76.667 125.5 96l28-68c-79.333-38-119-102.333-119-193 0-52.667 11.167-94.5 33.5-125.5s52.166-46.5 89.499-46.5c32.667 0 58.334 11.333 77.001 34s28 53.334 28 92.001v138h73v-138c0-39.333 9.167-70.166 27.5-92.499s43.833-33.5 76.5-33.5c37.333 0 67.166 15.333 89.499 46S656 178.333 656 231c0 92.667-39.333 157.334-118 194.001l27 68c54.667-19.333 96.5-51.333 125.5-96S734 297.667 734 233zM353.001 565.996l30 214h93v-14l-63-200h-60z"/><glyph glyph-name="uni0400" unicode="Ѐ" horiz-adv-x="566" d="M91 0v660h423v-70H169V388h264v-70H169V70h357V0H91zm183 724L154 896v14h94l85-186h-59z"/><glyph glyph-name="uni0401" unicode="Ё" horiz-adv-x="566" d="M91 0v660h423v-70H169V388h264v-70H169V70h357V0H91zm40 810c0 14.667 5.5 27.167 16.5 37.5S171.333 863 186 863c15.333 0 28.333-5.167 39-15.5s16-22.833 16-37.5-5.333-27.167-16-37.5-23.667-15.5-39-15.5c-14.667 0-27.5 5.167-38.5 15.5S131 795.333 131 810zm233-1c0 14.667 5.5 27.334 16.5 38.001s23.833 16 38.5 16c15.333 0 28.333-5.333 39-16s16-23.334 16-38.001-5.333-27.167-16-37.5-23.667-15.5-39-15.5c-14.667 0-27.5 5.167-38.5 15.5S364 794.333 364 809z"/><glyph glyph-name="uni0402" unicode="Ђ" horiz-adv-x="732" d="m465-11-14 70.001c100 12.667 150 59.334 150 140.001 0 40.667-13.833 72-41.5 94s-64.834 33-111.501 33c-55.333 0-104.666-8.333-147.999-25v-301h-78v590H19v70h523v-70H300v-218c46 16 96.333 24 151 24 70 0 125.667-17.333 167-52 42.667-34.667 64-83.334 64-146.001s-20.667-111.667-62-147C578.667 16.334 527-4.333 465-11z"/><glyph glyph-name="uni0403" unicode="Ѓ" horiz-adv-x="506" d="M91 0v660h391v-70H169V0H91zm143 724 85 186h94v-14L293 724h-59z"/><glyph glyph-name="uni0404" unicode="Є" horiz-adv-x="715" d="m607 177 57.999-46c-28-44-66.167-78.667-114.5-104s-101.5-38-159.5-38c-94-1.333-175.167 31.667-243.5 99s-101.5 148-99.5 242c-2 94 31.167 174.667 99.5 242s149.5 100.333 243.5 99c58 0 111.167-12.667 159.5-38s86.5-60 114.5-104l-58-46c-54 77.333-125.667 116-215 116-67.333 0-125.166-21.333-173.499-64s-77.166-97.334-86.499-164.001h317v-70h-319C137.334 231.666 165.667 174.333 215 129s108.333-68 177-68c89.333 0 161 38.667 215 116z"/><glyph glyph-name="uni0405" unicode="Ѕ" horiz-adv-x="558" d="m41 131 58 42.998c49.333-75.333 110.666-113 183.999-113 40 0 72.167 10 96.5 30s36.5 46.667 36.5 80c0 28-7.833 49.167-23.5 63.5s-44.5 31.833-86.5 52.5l-74 35c-50 23.333-87.333 48.333-112 75s-37 60.667-37 102c0 50.667 19.333 92 58 124s85.667 48 141 48c43.333 0 83.166-10.167 119.499-30.5s65.5-47.5 87.5-81.5l-57-43c-37.333 55.333-87.666 83-150.999 83-33.333 0-61.166-8.667-83.499-26S164 532.332 164 502.999c0-19.333 4.333-35.333 13-48 8-12 18.333-22 31-30s33.334-19 62.001-33l73-35c54-26.667 93.167-53.667 117.5-81s36.5-61.666 36.5-102.999c0-54-20-98.167-60-132.5s-91-51.5-153-51.5C233.334-11 186.667 1.5 144 26.5S67 86.333 41 131z"/><glyph glyph-name="uni0406" unicode="І" horiz-adv-x="259" d="M91 0v660h78V0H91z"/><glyph glyph-name="uni0407" unicode="Ї" horiz-adv-x="259" d="M91 0v660h78V0H91zM-42 810c0 14.667 5.5 27.167 16.5 37.5S-1.667 863 13 863c15.333 0 28.333-5.167 39-15.5s16-22.833 16-37.5-5.333-27.167-16-37.5S28.333 757 13 757c-14.667 0-27.5 5.167-38.5 15.5S-42 795.333-42 810zm233-1c0 14.667 5.5 27.334 16.5 38.001s23.833 16 38.5 16c15.333 0 28.333-5.333 39-16s16-23.334 16-38.001-5.333-27.167-16-37.5-23.667-15.5-39-15.5c-14.667 0-27.5 5.167-38.5 15.5S191 794.333 191 809z"/><glyph glyph-name="uni0408" unicode="Ј" horiz-adv-x="373" d="M24 0v67c26.667-4 50.667-6 72-6 37.333 0 64.833 7.5 82.5 22.5S205 124 205 160v500h78V153c0-54.667-15-95.667-45-123s-72.333-41-127-41C86.333-11 57.333-7.333 24 0z"/><glyph glyph-name="uni0409" unicode="Љ" horiz-adv-x="965" d="M915 200c0-59.333-20-107.5-60-144.5S761.667 0 695 0H471v590H243c-5.333-154-14.833-272.5-28.5-355.5S180.5 91 153.5 53 88.667-5 40-7C24-7 11-4.667 1 0v68c6-2 15-3 27-3 47.333 0 81.5 39.667 102.5 119S164 389 168 561l2 99h379V400h146c66.667 0 120-18.5 160-55.5s60-85.167 60-144.5zm-81-1c0 39.333-12.333 70.832-37 94.499s-59 35.5-103 35.5H549v-259h145c44 0 78.333 11.833 103 35.5s37 54.834 37 93.501z"/><glyph glyph-name="uni040A" unicode="Њ" horiz-adv-x="965" d="M91 0v660h78V400h303v260h78V400h145c66.667 0 120.167-18.5 160.5-55.5S916 259.333 916 200 895.833 92.5 855.5 55.5 761.667 0 695 0H472v330H169V0H91zm459 70 144-.001c44 0 78.5 11.833 103.5 35.5S835 160.333 835 199c0 39.333-12.5 71-37.5 95S738 330 694 330H550V70z"/><glyph glyph-name="uni040B" unicode="Ћ" horiz-adv-x="771" d="m692 147-.001-147h-78v141c0 58.667-15 104.167-45 136.5s-70.333 48.5-121 48.5c-55.333 0-104.666-8.333-147.999-25V0h-78v590H19v70h523v-70H300V371c44 16.667 94.333 25 151 25 72 0 130.333-21.667 175-65 44-42.667 66-104 66-184z"/><glyph glyph-name="uni040C" unicode="Ќ" horiz-adv-x="633" d="M91 0v660h78V0H91zm189 354L602 0h-99L178 354l297 306h100zm7 370 85 186h94v-14L346 724h-59z"/><glyph glyph-name="uni040D" unicode="Ѝ" horiz-adv-x="718" d="M599 671h28V0h-78v512L119-11H91v671h78V148zm-269 53L210 896v14h94l85-186h-59z"/><glyph glyph-name="uni040E" unicode="Ў" horiz-adv-x="659" d="M550 660h78.999l-237-505c-28.667-60.667-56-103-82-127C282.666 2.667 247.333-10 204-10c-18.667 0-36.667 3.333-54 10v68c18-4 35.333-6 52-6 22.667 0 41.667 5.5 57 16.5s30 29.833 44 56.5L40 660h88l218-435zM193.999 885l.001 25h65v-26c0-31.333 7.5-55.833 22.5-73.5S317.667 784 345 784s48.666 8.667 63.999 26 23 42 23 74v26h65v-25c0-48-13.833-86.5-41.5-115.5s-64.5-43.5-110.5-43.5c-45.333 0-81.833 14.5-109.5 43.5s-41.5 67.5-41.5 115.5z"/><glyph glyph-name="uni040F" unicode="Џ" horiz-adv-x="698" d="M607 660V0H388v-141h-78V0H91v660h78V70h360v590h78z"/><glyph glyph-name="uni0410" unicode="А" horiz-adv-x="663" d="m549 0-56 134H169L113 0H31l286 671h29L632 0h-83zm-86 204L331 529 199 204h264z"/><glyph glyph-name="uni0411" unicode="Б" horiz-adv-x="578" d="M91 0v660h391v-70H169V390h145c66.667 0 120-18.167 160-54.5s60-82.833 60-139.5c0-58-20-105.167-60-141.5S380.667 0 314 0H91zm78 70h144c43.333 0 77.5 11.5 102.5 34.5S453 157.667 453 195s-12.5 67.5-37.5 90.5S356.333 320 313 320H169V70z"/><glyph glyph-name="uni0412" unicode="В" horiz-adv-x="616" d="M572 190c0-56-19.002-101.667-57.002-137s-88.667-53-152-53h-272v660h227c56.667 0 102.334-15.667 137.001-47 34-31.333 51-71.333 51-120 0-54-21-97.333-63-130 40.667-12 72.334-33.167 95.001-63.5s34-66.833 34-109.5zM309.998 590h-141V385h141c37.333 0 66 9.167 86 27.5s30 43.5 30 75.5-10 57-30 75-48.667 27-86 27zm182-398c0 37.333-12.167 67-36.5 89s-57.833 33-100.5 33h-186V70h186c42.667 0 76.167 11 100.5 33s36.5 51.667 36.5 89z"/><glyph glyph-name="uni0413" unicode="Г" horiz-adv-x="506" d="M91 0v660h391v-70H169V0H91z"/><glyph glyph-name="uni0414" unicode="Д" horiz-adv-x="675" d="M565 70h80v-211h-78V0H88v-141H10V70h51c35.333 33.333 61.333 89.333 78 168s25 191.667 25 339l1 83h400V70zm-417 0h339v520H236c-.667-270-30-443.333-88-520z"/><glyph glyph-name="uni0415" unicode="Е" horiz-adv-x="566" d="M91 0v660h423v-70H169V388h264v-70H169V70h357V0H91z"/><glyph glyph-name="uni0416" unicode="Ж" horiz-adv-x="966" d="M57 660h101l277-306L130 0H30l305 354zM444 0v660h78V0h-78zm187 354L935 0h-99L531 354l277 306h101z"/><glyph glyph-name="uni0417" unicode="З" horiz-adv-x="583" d="M535 192c0-58-22.668-106.335-68.001-145.002s-101.333-58-168-58c-53.333 0-101.666 12.833-144.999 38.5s-78.333 61.167-105 106.5l57 42c50.667-76.667 114.667-115 192-115 45.333 0 82.666 12.333 111.999 37 30 25.333 45 57.333 45 96 0 36.667-13.167 65.834-39.5 87.501s-64.5 32.5-114.5 32.5h-78v71h82c36.667 0 64.834 9.5 84.501 28.5s29.5 44.5 29.5 76.5c0 33.333-10.333 59.833-31 79.5s-50.334 29.5-89.001 29.5c-66 0-119.667-30-161-90l-56 42c48 80 120.333 120 217 120 60.667 0 109.334-16.667 146.001-50S500 545.333 500 494c0-59.333-26.333-105-79-137 36-14 64-35.5 84-64.5S535 230 535 192z"/><glyph glyph-name="uni0418" unicode="И" horiz-adv-x="718" d="M599 671h28V0h-78v512L119-11H91v671h78V148z"/><glyph glyph-name="uni0419" unicode="Й" horiz-adv-x="718" d="M599 671h28V0h-78v512L119-11H91v671h78V148zM207 885l.001 25h65v-26c0-31.333 7.5-55.833 22.5-73.5s36.167-26.5 63.5-26.5 48.666 8.667 63.999 26 23 42 23 74v26h65v-25c0-48-13.833-86.5-41.5-115.5S404 726 358 726c-45.333 0-81.833 14.5-109.5 43.5S207 837 207 885z"/><glyph glyph-name="uni041A" unicode="К" horiz-adv-x="633" d="M91 0v660h78V0H91zm189 354L602 0h-99L178 354l297 306h100z"/><glyph glyph-name="uni041B" unicode="Л" horiz-adv-x="669" d="M170 660h409.001V0h-78v590h-258c-5.333-156-15-274.667-29-356-14.667-84.667-35.834-146-63.501-184S86-7 40-7C24-7 11-4.667 1 0v68c6-2 15-3 27-3 47.333 0 81.5 39.667 102.5 119S164 389 168 561z"/><glyph glyph-name="uni041C" unicode="М" horiz-adv-x="789" d="M671 671h27V0h-78v473L409 187h-28L169 475V0H91v671h28l275-381z"/><glyph glyph-name="uni041D" unicode="Н" horiz-adv-x="708" d="M91 0v660h78V388h370v272h78V0h-78v318H169V0H91z"/><glyph glyph-name="uni041E" unicode="О" horiz-adv-x="781" d="M48 330c-2 94 30.999 174.667 98.999 242s149 100.333 243 99c93.333 1.333 174.333-31.667 243-99s102-148 100-242c2-94-31.333-174.667-100-242s-149.667-100.333-243-99C296.666-13 215.833 20 147.5 88S46 236.667 48 330zm603.999 1c1.333 74.667-23.667 138.333-75 191s-113.333 78.334-186 77.001c-74.667 0-137-25.5-187-76.5s-75-114.833-75-191.5 25-140.834 75-192.501 112.333-77.5 187-77.5c72.667-1.333 134.667 24.5 186 77.5s76.333 117.167 75 192.5z"/><glyph glyph-name="uni041F" unicode="П" horiz-adv-x="698" d="M91 0v660h516V0h-78v590H169V0H91z"/><glyph glyph-name="uni0420" unicode="Р" horiz-adv-x="573" d="M91 0v660h232c63.333 0 114.333-17.833 153-53.5S534 525 534 469c0-56.667-19.333-103-58-139s-89.667-54-153-54H169V0H91zm78 346h152c41.333 0 73.666 11 96.999 33s35 51.667 35 89c0 36.667-11.667 66.167-35 88.5S362.333 590 321 590H169V346z"/><glyph glyph-name="uni0421" unicode="С" horiz-adv-x="715" d="M48 330c-2 94 31.167 174.667 99.5 242S297 672.333 391 671c58 0 111.167-12.667 159.5-38S637 573 665 529l-58-46c-54 77.333-125.667 116-215 116-74.667 0-137.167-25.667-187.5-77S129 406.667 129 330s25.167-140.667 75.5-192S317.333 61 392 61c89.333 0 161 38.667 215 116l58-46c-28-44-66.167-78.667-114.5-104S449-11 391-11c-94-1.333-175.167 31.667-243.5 99S46 236 48 330z"/><glyph glyph-name="uni0422" unicode="Т" horiz-adv-x="581" d="M251 0v590H19v70h543v-70H329V0h-78z"/><glyph glyph-name="uni0423" unicode="У" horiz-adv-x="659" d="M550 660h78.999l-237-505c-28.667-60.667-56-103-82-127C282.666 2.667 247.333-10 204-10c-18.667 0-36.667 3.333-54 10v68c18-4 35.333-6 52-6 22.667 0 41.667 5.5 57 16.5s30 29.833 44 56.5L40 660h88l218-435z"/><glyph glyph-name="uni0424" unicode="Ф" horiz-adv-x="797" d="M437 62v-81.999h-78v82C265.667 63.334 189.667 88.667 131 138S43 253 43 335s29.333 147.167 88 195.5 134.667 73.166 228 74.499v75h78v-75c94-1.333 170.333-26.166 229-74.499S754 417 754 335c0-82.667-29.333-148.5-88-197.5S531 63.333 437 62zm-78 71.001v401.001c-72 0-129.167-17.833-171.5-53.5S124 395.668 124 333.001c0-62 21.167-110.833 63.5-146.5s99.5-53.5 171.5-53.5zm314 200.001c0 62.667-21.333 111.833-64 147.5s-100 53.5-172 53.5v-401c70.667 0 127.667 17.667 171 53s65 84.333 65 147z"/><glyph glyph-name="uni0425" unicode="Х" horiz-adv-x="599" d="M569 0h-91L300 271 121 0H30l227 338L46 660h90l164-257 163 257h90L345 337z"/><glyph glyph-name="uni0426" unicode="Ц" horiz-adv-x="718" d="M610-141V0H91v660h78V70h360v590h78V70h81v-211h-78z"/><glyph glyph-name="uni0427" unicode="Ч" horiz-adv-x="648" d="m480 660 78.001.001v-660h-78v266c-41.333-18.667-94.333-28-159-28-83.333 0-147.5 21.167-192.5 63.5S61.001 406.667 61.001 490v170h78V495c0-124.667 61.333-187 184-187 63.333 0 115.666 9.667 156.999 29v323z"/><glyph glyph-name="uni0428" unicode="Ш" horiz-adv-x="964" d="M91 0v660h78V70h274v590h78V70h275v590h78V0H91z"/><glyph glyph-name="uni0429" unicode="Щ" horiz-adv-x="984" d="M876-141V0H91v660h78V70h274v590h78V70h275v590h78V70h80v-211h-78z"/><glyph glyph-name="uni042A" unicode="Ъ" horiz-adv-x="663" d="M170 0v590H19v70h229V400h145c66.667 0 120-18.5 160-55.5s60-85.167 60-144.5-20-107.5-60-144.5S459.667 0 393 0H170zm78 70 144-.001c44 0 78.5 11.833 103.5 35.5S533 160.333 533 199c0 39.333-12.5 70.833-37.5 94.5S436 329 392 329H248V70z"/><glyph glyph-name="uni042B" unicode="Ы" horiz-adv-x="833" d="M91 0v660h78V400h145c66.667 0 120-18.5 160-55.5s60-85.167 60-144.5-20-107.5-60-144.5S380.667 0 314 0H91zm78 70 144-.001c44 0 78.5 11.833 103.5 35.5S454 160.333 454 199c0 39.333-12.5 70.833-37.5 94.5S357 329 313 329H169V70zM665-.001v660h78v-660h-78z"/><glyph glyph-name="uni042C" unicode="Ь" horiz-adv-x="584" d="M91 0v660h78V400h145c66.667 0 120-18.5 160-55.5s60-85.167 60-144.5-20-107.5-60-144.5S380.667 0 314 0H91zm78 70 144-.001c44 0 78.5 11.833 103.5 35.5S454 160.333 454 199c0 39.333-12.5 70.833-37.5 94.5S357 329 313 329H169V70z"/><glyph glyph-name="uni042D" unicode="Э" horiz-adv-x="715" d="M666 330c2-94-31.001-174.667-99.001-242s-149-100.333-243-99c-58 0-111.333 12.667-160 38s-87 60-115 104l59 46c54-77.333 125.667-116 215-116 69.333 0 128.333 22.667 177 68s76.667 102.666 84 171.999h-309v70h307C572.666 437.666 543.833 492.333 495.5 535S389.667 599 323 599c-89.333 0-161-38.667-215-116l-59 46c28.667 44 67.167 78.667 115.5 104S266 671 324 671c94 1.333 175-31.667 243-99s101-148 99-242z"/><glyph glyph-name="uni042E" unicode="Ю" horiz-adv-x="977" d="M928 330c1.333-94.667-30.166-175.501-94.499-242.501s-142.166-99.833-233.499-98.5C511.335-12.334 435.168 19.333 371.501 84s-96.167 142.667-97.5 234h-105V0h-78v660h78V388h109c12 82 48.167 149.667 108.5 203s131.5 80 213.5 80c91.333 1.333 169.166-31.5 233.499-98.5S929.333 424.667 928 330zm-80.999.999c0 77.333-23 141.334-69 192.001s-105 76-177 76-131-25.333-177-76-69-114.667-69-192c0-78 23-142.5 69-193.5s105-76.5 177-76.5 131 25.667 177 77 69 115.666 69 192.999z"/><glyph glyph-name="uni042F" unicode="Я" horiz-adv-x="619" d="m308 660 220 .001v-660h-78v257H319l-185-257H45l192 267c-48 13.333-85.833 37.166-113.5 71.499S82 413 82 459c0 60 20.833 108.5 62.5 145.5S240.667 660 308 660zm142-331.999v262H308c-44 0-79.167-12-105.5-36s-39.5-55.667-39.5-95c0-40 13.167-71.833 39.5-95.5s61.5-35.5 105.5-35.5h142z"/><glyph glyph-name="uni0430" unicode="а" horiz-adv-x="528" d="M450 300V0h-72v63c-37.333-49.333-92-74-164-74-50.667 0-91.667 12.5-123 37.5S44 84.667 44 126s16 74.333 48 99 74.333 37 127 37h154v42c0 39.333-10.5 69.666-31.5 90.999s-49.833 32-86.5 32c-54.667 0-102-26-142-78l-51 42c43.333 71.333 109.333 107 198 107 58.667 0 105-17.167 139-51.5S450 363.333 450 300zm-77-113v12H228c-70 0-105-23-105-69 0-24 9.5-42.833 28.5-56.5S194.667 53 224 53c40.667 0 75.667 13 105 39s44 57.667 44 95z"/><glyph glyph-name="uni0431" unicode="б" horiz-adv-x="615" d="M565 235c1.333-66.667-23.331-124.5-73.998-173.5s-110.667-72.833-180-71.5c-74.667 0-135.167 25.333-181.5 76s-69.5 116.667-69.5 198v85c0 76 7.333 137.333 22 184 32 100 124.667 163 278 189 82 14.667 136.667 27.667 164 39v-74c-31.333-13.333-83-25.333-155-36-68.667-10-120.334-27.667-155.001-53S157.667 543.334 149 510.001c-9.333-34-14-76.667-14-128 20.667 30.667 47.5 54.667 80.5 72s68.5 26 106.5 26c65.333 1.333 122.5-22.834 171.5-72.501S566.333 300.333 565 235zm-78.997 0c0 48.667-16.832 89.831-50.499 123.498s-74.834 50.5-123.501 50.5c-48 0-89-17-123-51s-51-75-51-123c0-47.333 17.167-88.166 51.5-122.499s75.166-51.5 122.499-51.5c48.667 0 89.834 16.833 123.501 50.5s50.5 74.834 50.5 123.501z"/><glyph glyph-name="uni0432" unicode="в" horiz-adv-x="544" d="M484 147c0-44-15.833-79.501-47.5-106.501S363-.001 311-.001H85v487h201c48 0 86.167-11.667 114.5-35S443 397.333 443 358c0-40.667-17-72-51-94 61.333-21.333 92-60.333 92-117zM162 417.999v-130h125c53.333 0 80 22 80 66 0 42.667-26.667 64-80 64H162zm245-271c0 22.667-8.833 40.5-26.5 53.5s-42.5 19.5-74.5 19.5H162v-152h144c31.333 0 56 7.167 74 21.5s27 33.5 27 57.5z"/><glyph glyph-name="uni0433" unicode="г" horiz-adv-x="435" d="M85 0v487h328v-69H162V0H85z"/><glyph glyph-name="uni0434" unicode="д" horiz-adv-x="578" d="M463 68h79v-209h-77V0H82v-141H5V68h55c40 41.333 61.333 135.333 64 282l3 137h336V68zm-322 0h245v350H200l-3-69c-3.333-139.333-22-233-56-281z"/><glyph glyph-name="uni0435" unicode="е" horiz-adv-x="571" d="m515 220-384.997-.001c4.667-48 23.667-86.667 57-116s74-44 122-44c55.333 0 105 22 149 66l45-52c-54.667-56.667-119.667-85-195-85-72.667 0-133.834 24.5-183.501 73.5s-74.5 109.167-74.5 180.5c0 70.667 24.167 130.834 72.5 180.501S229.668 498 299.001 498c63.333 0 116.166-20.667 158.499-62S521 342 521 278c0-18.667-2-38-6-58zm-381.997 67.999h308.999c-.667 42.667-14.667 76.667-42 102s-61.666 38-102.999 38c-40.667 0-76-12.833-106-38.5s-49.333-59.5-58-101.5z"/><glyph glyph-name="uni0436" unicode="ж" horiz-adv-x="772" d="M39 487h96l201-223L114 0H20l223 264zM346 0v487h77V0h-77zm181 266L751 0h-96L433 264l201 223h95z"/><glyph glyph-name="uni0437" unicode="з" horiz-adv-x="468" d="M416 140c0-46-16.833-82.667-50.5-110S287.333-11 232-11C153.333-11 91 20.333 45 83l52 46c34.667-46 79.334-69 134.001-69 33.333 0 59.333 7.667 78 23s28 36 28 62c0 24-9.333 43.167-28 57.5s-44.667 21.5-78 21.5h-53v68h52c56.667 0 85 22.667 85 68 0 20.667-7.5 37-22.5 49s-36.5 18-64.5 18c-48.667 0-89.334-20-122.001-60l-52 46c41.333 56.667 100.333 85 177 85 48.667 0 87.5-11.833 116.5-35.5S391 406.333 391 365c0-46-19.333-81-58-105 55.333-22 83-62 83-120z"/><glyph glyph-name="uni0438" unicode="и" horiz-adv-x="571" d="M459 498h28V0h-77v344L113-11H85v498h77V142z"/><glyph glyph-name="uni0439" unicode="й" horiz-adv-x="571" d="M459 498h28V0h-77v344L113-11H85v498h77V142zM146 731v31h65v-29c0-32.667 7.5-57.834 22.5-75.501s36.167-26.5 63.5-26.5c28 0 49.5 8.833 64.5 26.5S384 700.333 384 733v29h65v-31c0-47.333-13.833-85.5-41.5-114.5S343 573 297 573c-45.333 0-81.833 14.5-109.5 43.5S146 683.667 146 731z"/><glyph glyph-name="uni043A" unicode="к" horiz-adv-x="515" d="M85 0v487h77V0H85zm181 266L495 0h-97L172 264l205 223h96z"/><glyph glyph-name="uni043B" unicode="л" horiz-adv-x="538" d="m123 487 329.998.001v-487h-77v418h-181l-2-60c-4.667-131.333-18-224-40-278s-61-82-117-84c-10 0-18.667 1.333-26 4v65c10.667-1.333 17.334-2 20.001-2 30.667 0 52.834 23.667 66.501 71S118 256.667 120 360z"/><glyph glyph-name="uni043C" unicode="м" horiz-adv-x="686" d="M85 0v498h28l231-274 230 274h27V0h-77v329L358 131h-30L162 329V0H85z"/><glyph glyph-name="uni043D" unicode="н" horiz-adv-x="562" d="M85 0v487h77V293h239v194h77V0h-77v225H162V0H85z"/><glyph glyph-name="uni043E" unicode="о" horiz-adv-x="610" d="M50 244c-1.333 69.333 23.499 129.333 74.499 180s111.167 75.334 180.5 74.001c70 1.333 130.333-23.334 181-74.001S561.333 313.333 560 244c1.333-68.667-23.667-128.5-75-179.5S373.334-11.333 304.001-10c-69.333-1.333-129.333 23.5-180 74.5S48.667 175.333 50 244zm430.999-1c0 52-16.832 95.667-50.499 131S355 427 305 427s-91.833-17.5-125.5-52.5S129 295.667 129 243c0-51.333 16.833-94.5 50.5-129.5S254.667 61 304 61s91.166 17.667 125.499 53 51.5 78.333 51.5 129z"/><glyph glyph-name="uni043F" unicode="п" horiz-adv-x="558" d="M85 0v487h389V0h-78v418H162V0H85z"/><glyph glyph-name="uni0440" unicode="р" horiz-adv-x="632" d="M582 244c0-72-23.168-132.5-69.501-181.5S408.999-11 340.999-11c-76.667 0-136.334 27-179.001 81v-250h-77v667h72v-78c18.667 28 44.334 49.833 77.001 65.5S302.333 498 341 498c69.333 0 126.833-24.333 172.5-73S582 316 582 244zm-79.001-1c0 52.667-16.5 96.499-49.5 131.499s-74.167 52.5-123.5 52.5c-46.667 0-86.5-16-119.5-48s-49.5-77-49.5-135c0-59.333 16.167-104.833 48.5-136.5s72.5-47.5 120.5-47.5c49.333 0 90.5 17.333 123.5 52s49.5 78.334 49.5 131.001z"/><glyph glyph-name="uni0441" unicode="с" horiz-adv-x="551" d="M50 244c-1.333 69.333 23.333 129.332 74 179.999S235 499.333 305 498c42 0 80.333-9.333 115-28s63.334-44.667 86.001-78l-55-44c-38.667 52.667-87 79-145 79-50 0-92-17.833-126-53.5s-51-78.834-51-129.501c0-51.333 17-94.833 51-130.5s76-53.5 126-53.5c57.333 0 105.333 26 144 78l55-43c-48-70.667-114.667-106-200-106-70.667 0-130.834 24.833-180.501 74.5S50 173.333 50 244z"/><glyph glyph-name="uni0442" unicode="т" horiz-adv-x="445" d="M184 0v418H20v69h404v-69H260V0h-76z"/><glyph glyph-name="uni0443" unicode="у" horiz-adv-x="539" d="m431 487 82-.001-240-555c-36-82-91-123-165-123-26 0-51 3.333-75 10v65c28-3.333 47.667-5 59-5 26.667 0 48.667 5.833 66 17.5S190-71.667 202-43l26 58L26 487h83L270 99z"/><glyph glyph-name="uni0444" unicode="ф" horiz-adv-x="727" d="M402-11v-169.001h-77v169c-81.333 3.333-147.5 27.833-198.5 73.5S50 168.333 50 243c0 74 25.667 133.833 77 179.5s117.333 70.167 198 73.5v254h77V496c81.333-3.333 147.5-27.833 198.5-73.5S677 316.666 677 241.999s-25.5-134.667-76.5-180S483.333-7.667 402-11zm-76 67.999v371.002c-60.667-2.667-108.667-20.334-144-53.001s-53-77-53-133c0-55.333 17.667-99.333 53-132s83.333-50.334 144-53.001zm272 186.002c0 55.333-17.667 99.331-53 131.998S461.667 425.333 401 428V57c60.667 2.667 108.667 20.334 144 53.001s53 77 53 133z"/><glyph glyph-name="uni0445" unicode="х" horiz-adv-x="497" d="M476 0h-89L248 200 110 0H20l181 254L35 487h89l124-179 125 179h89L293 254z"/><glyph glyph-name="uni0446" unicode="ц" horiz-adv-x="588" d="M475-141V0H85v487h77V68h234v419h77V68h79v-209h-77z"/><glyph glyph-name="uni0447" unicode="ч" horiz-adv-x="528" d="M366 487h77V0h-77v192c-30-14.667-71-22-123-22-59.333 0-106.333 16.5-141 49.5S50 299.333 50 360v127h77V364c0-83.333 43.667-125 131-125 40.667 0 76.667 7 108 21v227z"/><glyph glyph-name="uni0448" unicode="ш" horiz-adv-x="809" d="M85 0v487h77V68h204v419h77V68h205v419h77V0H85z"/><glyph glyph-name="uni0449" unicode="щ" horiz-adv-x="840" d="M727-141V0H85v487h77V68h204v419h77V68h205v419h77V68h79v-209h-77z"/><glyph glyph-name="uni044A" unicode="ъ" horiz-adv-x="557" d="M131 0v418H20v69h188V319h117c55.333 0 99.5-14.5 132.5-43.5S507 208 507 160s-16.5-86.667-49.5-116S380.333 0 325 0H131zm77 68h112c34 0 60.5 8.167 79.5 24.5S428 131 428 159s-9.833 50.333-29.5 67-46.167 25-79.5 25H208V68z"/><glyph glyph-name="uni044B" unicode="ы" horiz-adv-x="692" d="M85 0v487h77V319h116c54.667 0 98.667-14.5 132-43.5S460 208 460 160c0-48.667-16.5-87.5-49.5-116.5S333.333 0 278 0H85zm446 0v487h77V0h-77zM162 68h112.001c34.667 0 61.167 7.833 79.5 23.5s27.5 38.167 27.5 67.5-9.333 52-28 68-45.334 24-80.001 24H162V68z"/><glyph glyph-name="uni044C" unicode="ь" horiz-adv-x="510" d="M85 0v487h77V319h116c55.333 0 99.5-14.5 132.5-43.5S460 208 460 160s-16.5-86.667-49.5-116S333.333 0 278 0H85zm77 68h111.999c33.333 0 59.5 8.167 78.5 24.5s28.5 38.5 28.5 66.5-9.667 50.333-29 67-45.666 25-78.999 25H162V68z"/><glyph glyph-name="uni044D" unicode="э" horiz-adv-x="551" d="M501 244c0-70.667-24.831-130.832-74.498-180.499s-109.834-74.5-180.501-74.5c-85.333 0-152 35.333-200 106l54 43c38.667-52 87-78 145-78 45.333 0 84.333 14.667 117 44 32.667 28.667 52 66 58 112h-210v68h208c-8.667 42-28.834 76.333-60.501 103s-69.167 40-112.5 40c-58.667 0-107.334-26.333-146.001-79l-54 44c47.333 70.667 114.333 106 201 106 70 1.333 130.333-23.334 181-74.001S502.333 313.333 501 244z"/><glyph glyph-name="uni044E" unicode="ю" horiz-adv-x="799" d="M749 244c1.333-68.667-23.167-128.499-73.5-179.499S566-11.332 498-9.999c-66 0-122.833 22.667-170.5 68s-73.5 101-77.5 167h-88v-225H85v487h77v-194h91c11.333 59.333 40 108.333 86 147s99.333 58 160 58c68 1.333 127-23.334 177-74.001s74.333-110.667 73-180zm-79-.999c0 51.333-16.501 94.833-49.501 130.5s-73.5 53.5-121.5 53.5c-49.333 0-90.166-17.5-122.499-52.5s-48.5-78.833-48.5-131.5c0-51.333 16.333-94.5 49-129.5s73-52.5 121-52.5c48.667 0 89.5 17.5 122.5 52.5s49.5 78.167 49.5 129.5z"/><glyph glyph-name="uni044F" unicode="я" horiz-adv-x="525" d="m246 487 194 .001v-487h-77v178h-92l-134-178H47l142 188c-36 10.667-64.167 28.5-84.5 53.5S74 296.334 74 331.001c0 47.333 15.667 85.166 47 113.499S194 487 246 487zm117-240.999-.001 172h-112c-30.667 0-54.667-7.667-72-23s-26-36.333-26-63c0-26 8.833-46.833 26.5-62.5s41.834-23.5 72.501-23.5h111z"/><glyph glyph-name="uni0450" unicode="ѐ" horiz-adv-x="571" d="m515 220-384.997-.001c4.667-48 23.667-86.667 57-116s74-44 122-44c55.333 0 105 22 149 66l45-52c-54.667-56.667-119.667-85-195-85-72.667 0-133.834 24.5-183.501 73.5s-74.5 109.167-74.5 180.5c0 70.667 24.167 130.834 72.5 180.501S229.668 498 299.001 498c63.333 0 116.166-20.667 158.499-62S521 342 521 278c0-18.667-2-38-6-58zm-381.997 67.999h308.999c-.667 42.667-14.667 76.667-42 102s-61.666 38-102.999 38c-40.667 0-76-12.833-106-38.5s-49.333-59.5-58-101.5zm133.999 278-120 200v14h94l85-214h-59z"/><glyph glyph-name="uni0451" unicode="ё" horiz-adv-x="571" d="m515 220-384.997-.001c4.667-48 23.667-86.667 57-116s74-44 122-44c55.333 0 105 22 149 66l45-52c-54.667-56.667-119.667-85-195-85-72.667 0-133.834 24.5-183.501 73.5s-74.5 109.167-74.5 180.5c0 70.667 24.167 130.834 72.5 180.501S229.668 498 299.001 498c63.333 0 116.166-20.667 158.499-62S521 342 521 278c0-18.667-2-38-6-58zm-381.997 67.999h308.999c-.667 42.667-14.667 76.667-42 102s-61.666 38-102.999 38c-40.667 0-76-12.833-106-38.5s-49.333-59.5-58-101.5zm1.999 385c0 14 5.667 26.501 17 37.501s24 16.5 38 16.5c15.333 0 28.5-5.333 39.5-16s16.5-23.334 16.5-38.001-5.5-27.167-16.5-37.5-24.167-15.5-39.5-15.5c-14 0-26.667 5.333-38 16s-17 23-17 37zm212 .001c0 14.667 5.667 27.334 17 38.001s24.333 16 39 16c15.333 0 28.333-5.333 39-16s16-23.334 16-38.001-5.333-27.167-16-37.5-23.667-15.5-39-15.5c-14.667 0-27.667 5.333-39 16s-17 23-17 37z"/><glyph glyph-name="uni0452" unicode="ђ" horiz-adv-x="570" d="m492 293-.001-326.001c0-52-14.167-91.333-42.5-118s-67.833-40-118.5-40c-21.333 0-41.666 2.667-60.999 8v65c16-2 30.333-3 43-3 34 0 59.5 7.167 76.5 21.5S415-61.335 415-28.002v312c0 38.667-11 69.834-33 93.501s-51.333 35.5-88 35.5c-38 0-69.167-12.167-93.5-36.5S164 321.333 164 284V0H88v580H5v68h83v102h76V648h202v-68H164V417c34 44.667 83 67 147 67 55.333 0 99.333-17.333 132-52s49-81 49-139z"/><glyph glyph-name="uni0453" unicode="ѓ" horiz-adv-x="435" d="M85 0v487h328v-69H162V0H85zm125 566 85 214h94v-14L269 566h-59z"/><glyph glyph-name="uni0454" unicode="є" horiz-adv-x="551" d="m451 138 54.003-43.002c-48-70.667-114.667-106-200-106-70.667 0-130.834 24.833-180.501 74.5s-74.5 109.834-74.5 180.501c-1.333 69.333 23.334 129.333 74 180s111 75.334 181 74.001c42 0 80.334-9.333 115-28s63.335-44.667 86.002-78l-54-44c-38.667 52.667-87.334 79-146.001 79-43.333 0-80.833-13.333-112.5-40s-51.834-61-60.501-103h208v-68h-210c6-46 25-83.333 57-112C221.335 74.667 260.668 60 306 60 363.334 60 411.667 86 451 138z"/><glyph glyph-name="uni0455" unicode="ѕ" horiz-adv-x="454" d="m39 84 49.001 51.002c25.333-26 48.5-45 69.5-57s44.5-18 70.5-18c27.333 0 49.666 6.167 66.999 18.5s26 29.166 26 50.499c0 18.667-6.167 33.167-18.5 43.5s-34.5 21.833-66.5 34.5l-47 20c-42 17.333-72.667 36.333-92 57s-29 46.667-29 78c0 41.333 15.5 74.333 46.5 99s70.167 37 117.5 37c66 0 120.333-25.667 163-77l-47-48c-36 36-76 54-120 54-24.667 0-44.334-5.333-59.001-16s-22-25.667-22-45c0-15.333 5.5-27.833 16.5-37.5s31.833-20.834 62.5-33.501l45-19c46.667-20 79.834-40.833 99.501-62.5s29.5-48.834 29.5-81.501C400 86.666 383.333 51.333 350 26c-32.667-24.667-73-37-121-37-78 0-141.333 31.667-190 95z"/><glyph glyph-name="uni0456" unicode="і" horiz-adv-x="268" d="M77 673c0 15.333 5.501 28.5 16.501 39.5s24.833 16.5 41.5 16.5c15.333 0 28.666-5.5 39.999-16.5s17-24.167 17-39.5c0-16-5.5-29.333-16.5-40S151 617 135 617c-16.667 0-30.5 5.333-41.5 16S77 657 77 673zM96.001 0v487h77V0h-77z"/><glyph glyph-name="uni0457" unicode="ї" horiz-adv-x="247" d="M10 673c0 15.333 5.167 28.5 15.5 39.5S48.333 729 63 729c14 0 26.167-5.5 36.5-16.5S115 688.333 115 673c0-16-5.167-29.333-15.5-40S77 617 63 617c-15.333 0-28 5.333-38 16s-15 24-15 40zm122 0c0 15.333 5.167 28.5 15.5 39.5S170.333 729 185 729c14 0 26.167-5.5 36.5-16.5S237 688.333 237 673c0-16-5.167-29.333-15.5-40S199 617 185 617c-15.333 0-28 5.333-38 16s-15 24-15 40zM85 0v487h77V0H85z"/><glyph glyph-name="uni0458" unicode="ј" horiz-adv-x="246" d="M-60-183v64.999c17.333-2 32.333-3 45-3 33.333 0 58.333 7.333 75 22S85-60.667 85-28v515h77V-33c0-52-14.167-91.333-42.5-118S52-191 2-191c-21.333 0-42 2.667-62 8zM66 672.999c0 15.333 5.668 28.5 17.001 39.5s25 16.5 41 16.5c15.333 0 28.666-5.5 39.999-16.5s17-24.167 17-39.5c0-16-5.5-29.333-16.5-40s-24.5-16-40.5-16-29.667 5.333-41 16-17 24-17 40z"/><glyph glyph-name="uni0459" unicode="љ" horiz-adv-x="777" d="M726 160c0-48-16.335-86.666-49.002-115.999s-76.667-44-132-44h-193v418h-157l-2-60c-4.667-131.333-18-224-40-278s-61-82-117-84c-10 0-18.667 1.333-26 4v65c10.667-1.333 17.334-2 20.001-2 30.667 0 52.834 23.667 66.501 71S118 256.667 120 360l3 127h306V319h116c55.333 0 99.333-14.5 132-43.5S726 208 726 160zm-79.002-.999c0 28-9.668 50.333-29.001 67s-45.666 25-78.999 25h-110v-183h111c33.333 0 59.5 8.167 78.5 24.5s28.5 38.5 28.5 66.5z"/><glyph glyph-name="uni045A" unicode="њ" horiz-adv-x="803" d="M752 157c0-49.333-16.667-87.833-50-115.5S623 0 565 0H371v243H162V0H85v487h77V311h209v176h77V311h117c57.333 0 102.833-13.833 136.5-41.5S752 204.333 752 157zm-79-1c0 26-10 47-30 63s-47.667 24-83 24H448V68h112c36 0 63.833 7.667 83.5 23s29.5 37 29.5 65z"/><glyph glyph-name="uni045B" unicode="ћ" horiz-adv-x="570" d="M492 293V-.002h-77v284c0 38.667-11 69.834-33 93.501s-51.333 35.5-88 35.5c-38 0-69.167-12.167-93.5-36.5S164 321.333 164 284V0H88v579H5v68h83v103h76V647h202v-68H164V417c34 44.667 83 67 147 67 55.333 0 99.333-17.333 132-52s49-81 49-139z"/><glyph glyph-name="uni045C" unicode="ќ" horiz-adv-x="515" d="M85 0v487h77V0H85zm181 266L495 0h-97L172 264l205 223h96zm-25 300 85 214h94v-14L300 566h-59z"/><glyph glyph-name="uni045D" unicode="ѝ" horiz-adv-x="571" d="M459 498h28V0h-77v344L113-11H85v498h77V142zm-190 68L149 766v14h94l85-214h-59z"/><glyph glyph-name="uni045E" unicode="ў" horiz-adv-x="539" d="m431 487 82-.001-240-555c-36-82-91-123-165-123-26 0-51 3.333-75 10v65c28-3.333 47.667-5 59-5 26.667 0 48.667 5.833 66 17.5S190-71.667 202-43l26 58L26 487h83L270 99zM115 730.999v31h65v-29c0-32.667 7.5-57.834 22.5-75.501s36.167-26.5 63.5-26.5c28 0 49.5 8.833 64.5 26.5s22.5 42.834 22.5 75.501v29h65v-31c0-47.333-13.833-85.5-41.5-114.5s-64.5-43.5-110.5-43.5c-45.333 0-81.833 14.5-109.5 43.5s-41.5 67.167-41.5 114.5z"/><glyph glyph-name="uni045F" unicode="џ" horiz-adv-x="557" d="M473 487V0H318v-141h-77V0H85v487h77V68h234v419h77z"/><glyph glyph-name="uni0462" unicode="Ѣ" horiz-adv-x="654" d="M161 0v502H19v65h142v93h78v-93h188v-65H239V381h150c65.333 0 117.5-17.667 156.5-53S604 247 604 191c0-56.667-19.333-102.667-58-138S455 0 389 0H161zm78 70 149-.001c42.667 0 75.834 11 99.501 33s35.5 51 35.5 87c0 36.667-11.833 65.834-35.5 87.501S430.667 310 388 310H239V70z"/><glyph glyph-name="uni0463" unicode="ѣ" horiz-adv-x="569" d="M143 0v417.999H5v69h138v263h77v-263h159v-69H220v-109h117c55.333 0 99.5-14 132.5-42s49.5-65 49.5-111c0-47.333-16.5-85.166-49.5-113.499S392.333 0 337 0H143zm77 67.999 112-.001c34 0 60.5 7.833 79.5 23.5s28.5 36.834 28.5 63.501c0 26-9.833 46.833-29.5 62.5s-46.167 23.5-79.5 23.5H220v-173z"/><glyph glyph-name="uni0472" unicode="Ѳ" horiz-adv-x="781" d="M733 330c2-94-31.334-174.667-100.001-242s-149.667-100.333-243-99C296.666-13 215.833 20 147.5 88S46 236.667 48 330c-2 94 31 174.667 99 242s149 100.333 243 99c93.333 1.333 174.333-31.667 243-99s102-148 100-242zm-603.001 31c48 19.333 93.668 28.999 137.001 28.999 30.667 0 72.667-6.667 126-20 50-13.333 91.333-20 124-20 45.333 0 89 9 131 27-10 64.667-39 117.834-87 159.501S456 599 390 599c-68.667 0-127.334-22.5-176.001-67.5s-76.667-101.833-84-170.5zM651 306.999c-44-18-88.666-27.001-133.999-27.001-33.333 0-76 6.667-128 20-54.667 13.333-95.334 20-122.001 20-44 0-89.333-9.667-136-29 9.333-66.667 38-121.667 86-165s105.667-65 173-65c70.667 0 130.5 23.333 179.5 70s76.167 105.334 81.5 176.001z"/><glyph glyph-name="uni0473" unicode="ѳ" horiz-adv-x="610" d="M560 244c0-70.667-24.999-130.668-74.999-180.001s-110.333-74-181-74c-69.333-1.333-129.333 23.334-180 74.001S48.667 174.667 50 244c-1.333 69.333 23.5 129.333 74.5 180s111.167 75.334 180.5 74.001c69.333 1.333 129.5-23.334 180.5-74.001s75.833-110.667 74.5-180zm-426.999 38.999c26 10.667 53 16.001 81 16.001 24 0 54.667-5.667 92-17 36-10.667 66-16 90-16 26.667 0 53.667 5.333 81 16-8 42.667-27.833 77.5-59.5 104.5s-69.167 40.5-112.5 40.5c-44 0-81.667-13.333-113-40s-51-61.334-59-104.001zm346-64.999c-28.667-12-56.332-18.001-82.999-18.001-21.333 0-52.666 5.667-93.999 17-36 11.333-65.333 17-88 17-24.667 0-52.334-5.667-83.001-17 5.333-45.333 24-82.666 56-111.999 33.333-29.333 72.333-44 117-44 45.333 0 84.666 14.667 117.999 44 32.667 30 51.667 67.667 57 113z"/><glyph glyph-name="uni0474" unicode="Ѵ" horiz-adv-x="687" d="M687 660v-67.001c-11.333 2-21.333 3-30 3-20 0-36.167-5-48.5-15s-23.5-27.333-33.5-52l-229-540h-29l-286 671h86l214-518 172 415c16 38.667 35.167 66.334 57.5 83.001s50.833 25 85.5 25c6 0 19.667-1.667 41-5z"/><glyph glyph-name="uni0475" unicode="ѵ" horiz-adv-x="546" d="m546 487-.001-66c-14.667 1.333-23 2-25 2-27.333 0-48-16.667-62-50l-175-384h-28l-230 498h82l162-369 123 282c14.667 31.333 30.834 54.333 48.501 69s39.5 22 65.5 22c16 0 29-1.333 39-4z"/><glyph glyph-name="uni0490" unicode="Ґ" horiz-adv-x="489" d="M91 0v660h296v140h78V590H169V0H91z"/><glyph glyph-name="uni0491" unicode="ґ" horiz-adv-x="435" d="M85 0v487h251v140h77V418H162V0H85z"/><glyph glyph-name="uni0492" unicode="Ғ" horiz-adv-x="526" d="M506 590H191V340h169v-65H191V0h-78v275H18v65h95v320h393v-70z"/><glyph glyph-name="uni0493" unicode="ғ" horiz-adv-x="436" d="M414 418H161V268h143v-68H161V0H85v200H5v68h80v219h329v-69z"/><glyph glyph-name="uni0496" unicode="Җ" horiz-adv-x="963" d="M57 660h101l277-306L130 0H30l305 354zM444 0v660h78V0h-78zm431 70h87v-211h-78V0h-48L531 354l277 306h101L631 354z"/><glyph glyph-name="uni0497" unicode="җ" horiz-adv-x="807" d="M39 487h96l201-223L114 0H20l223 264zM346 0v487h77V0h-77zm348 68h78v-209h-77V0h-40L433 264l201 223h95L527 266z"/><glyph glyph-name="uni0498" unicode="Ҙ" horiz-adv-x="583" d="M535 192c0-58-22.668-106.335-68.001-145.002s-101.333-58-168-58c-53.333 0-101.666 12.833-144.999 38.5s-78.333 61.167-105 106.5l57 42c50.667-76.667 114.667-115 192-115 45.333 0 82.666 12.333 111.999 37 30 25.333 45 57.333 45 96 0 36.667-13.167 65.834-39.5 87.501s-64.5 32.5-114.5 32.5h-78v71h82c36.667 0 64.834 9.5 84.501 28.5s29.5 44.5 29.5 76.5c0 33.333-10.333 59.833-31 79.5s-50.334 29.5-89.001 29.5c-66 0-119.667-30-161-90l-56 42c48 80 120.333 120 217 120 60.667 0 109.334-16.667 146.001-50S500 545.333 500 494c0-59.333-26.333-105-79-137 36-14 64-35.5 84-64.5S535 230 535 192zM171.999-181.002l-.001 54.999c18.667-2.667 37.334-4 56.001-4 52 0 78 21.667 78 65 0 26.667-11.333 51.334-34 74.001l33 17c44.667-22.667 67-56.667 67-102 0-33.333-12-60.833-36-82.5s-56-32.5-96-32.5c-23.333 0-46 3.333-68 10z"/><glyph glyph-name="uni0499" unicode="ҙ" horiz-adv-x="468" d="M416 140c0-46-16.833-82.667-50.5-110S287.333-11 232-11C153.333-11 91 20.333 45 83l52 46c34.667-46 79.334-69 134.001-69 33.333 0 59.333 7.667 78 23s28 36 28 62c0 24-9.333 43.167-28 57.5s-44.667 21.5-78 21.5h-53v68h52c56.667 0 85 22.667 85 68 0 20.667-7.5 37-22.5 49s-36.5 18-64.5 18c-48.667 0-89.334-20-122.001-60l-52 46c41.333 56.667 100.333 85 177 85 48.667 0 87.5-11.833 116.5-35.5S391 406.333 391 365c0-46-19.333-81-58-105 55.333-22 83-62 83-120zM122-181l-.001 54.999c18.667-2.667 37.334-4 56.001-4 52 0 78 21.667 78 65C256-38.334 244.667-13.667 222 9l33 17c44.667-22.667 67-56.667 67-102 0-33.333-12-60.833-36-82.5S230-191 190-191c-23.333 0-46 3.333-68 10z"/><glyph glyph-name="uni049A" unicode="Қ" horiz-adv-x="628" d="M91 0v660h78V0H91zm448 70h89v-211h-78V0h-47L178 354l297 306h100L279 354z"/><glyph glyph-name="uni049B" unicode="қ" horiz-adv-x="549" d="M85 0v487h77V0H85zm352 68h77v-209h-77V0h-39L172 264l205 223h96L266 266z"/><glyph glyph-name="uni04A0" unicode="Ҡ" horiz-adv-x="801" d="M20 590v70h317V0h-78v590H20zm428-236L771 0H671L346 354l297 306h101z"/><glyph glyph-name="uni04A1" unicode="ҡ" horiz-adv-x="630" d="M20 418v69h257V0h-77v418H20zm361-152L610 0h-97L287 264l205 223h96z"/><glyph glyph-name="uni04A2" unicode="Ң" horiz-adv-x="728" d="M620-141V0h-81v318H169V0H91v660h78V388h370v272h78V70h81v-211h-78z"/><glyph glyph-name="uni04A3" unicode="ң" horiz-adv-x="593" d="M481-141V0h-80v225H162V0H85v487h77V293h239v194h77V68h80v-209h-77z"/><glyph glyph-name="uni04AA" unicode="Ҫ" horiz-adv-x="715" d="M48 330c-2 94 31.167 174.667 99.5 242S297 672.333 391 671c58 0 111.167-12.667 159.5-38S637 573 665 529l-58-46c-54 77.333-125.667 116-215 116-74.667 0-137.167-25.667-187.5-77S129 406.667 129 330s25.167-140.667 75.5-192S317.333 61 392 61c89.333 0 161 38.667 215 116l58-46c-28-44-66.167-78.667-114.5-104S449-11 391-11c-94-1.333-175.167 31.667-243.5 99S46 236 48 330zm223-511-.001 54.999c18.667-2.667 37.334-4 56.001-4 52 0 78 21.667 78 65C405-38.334 393.667-13.667 371 9l33 17c44.667-22.667 67-56.667 67-102 0-33.333-12-60.833-36-82.5S379-191 339-191c-23.333 0-46 3.333-68 10z"/><glyph glyph-name="uni04AB" unicode="ҫ" horiz-adv-x="551" d="M50 244c-1.333 69.333 23.333 129.332 74 179.999S235 499.333 305 498c42 0 80.333-9.333 115-28s63.334-44.667 86.001-78l-55-44c-38.667 52.667-87 79-145 79-50 0-92-17.833-126-53.5s-51-78.834-51-129.501c0-51.333 17-94.833 51-130.5s76-53.5 126-53.5c57.333 0 105.333 26 144 78l55-43c-48-70.667-114.667-106-200-106-70.667 0-130.834 24.833-180.501 74.5S50 173.333 50 244zm123.999-425.001-.001 54.999c18.667-2.667 37.334-4 56.001-4 52 0 78 21.667 78 65 0 26.667-11.333 51.334-34 74.001l33 17c44.667-22.667 67-56.667 67-102 0-33.333-12-60.833-36-82.5s-56-32.5-96-32.5c-23.333 0-46 3.333-68 10z"/><glyph glyph-name="uni04AE" unicode="Ү" horiz-adv-x="616" d="M576 660 347 273V0h-78v273L40 660h88l180-310 181 310h87z"/><glyph glyph-name="uni04AF" unicode="ү" horiz-adv-x="539" d="M513 487 309 4v-184h-77V-3L26 487h82L270 77l161 410h82z"/><glyph glyph-name="uni04B0" unicode="Ұ" horiz-adv-x="616" d="M576 660 347 274h151v-66H347V0h-78v208H118v66h151L40 660h88l180-310 181 310h87z"/><glyph glyph-name="uni04B1" unicode="ұ" horiz-adv-x="539" d="M309 2V0h131v-68H309v-112h-77v112H100V0h130L26 487h82L270 75l161 412h82z"/><glyph glyph-name="uni04B2" unicode="Ҳ" horiz-adv-x="605" d="M522 70h82v-211h-78V0h-48L300 271 121 0H30l227 338L46 660h90l164-257 163 257h90L345 337z"/><glyph glyph-name="uni04B3" unicode="ҳ" horiz-adv-x="539" d="M427 68h78v-209h-77V0h-39L248 198 108 0H20l183 254L35 487h87l127-177 125 177h88L292 253z"/><glyph glyph-name="uni04B6" unicode="Ҷ" horiz-adv-x="668" d="m558 70 80.001.001v-211h-78v141h-80v266c-41.333-18.667-94.333-28-159-28-83.333 0-147.5 21.167-192.5 63.5S61.001 406.667 61.001 490v170h78V495c0-124.667 61.333-187 184-187 63.333 0 115.666 9.667 156.999 29v323h78V70z"/><glyph glyph-name="uni04B7" unicode="ҷ" horiz-adv-x="558" d="M443 68h79.998v-209h-77V0h-80v197c-37.333-18-78.333-27-123-27-59.333 0-106.333 16.5-141 49.5s-52 79.833-52 140.5v127h77V364c0-41.333 10.333-72.5 31-93.5s49.334-31.5 86.001-31.5c48.667 0 89.334 8.667 122.001 26v222h77V68z"/><glyph glyph-name="uni04BA" unicode="Һ" horiz-adv-x="648" d="M587 170V-.001h-78v165c0 124.667-61.333 187-184 187-62.667 0-114.667-9.667-156-29v-323H91v660h78v-266c41.333 18.667 94 28 158 28 83.333 0 147.5-21.167 192.5-63.5S587 253.333 587 170z"/><glyph glyph-name="uni04BB" unicode="һ" horiz-adv-x="566" d="m488 306 .001-306h-77v296c0 40-10.833 71.833-32.5 95.5s-51.167 35.5-88.5 35.5-68-12.333-92-37-36-56-36-94V0h-77v750h77V432c35.333 44 84 66 146 66 55.333 0 99.166-17.5 131.499-52.5S488 364 488 306z"/><glyph glyph-name="uni04C0" unicode="Ӏ" horiz-adv-x="259" d="M91 0v660h78V0H91z"/><glyph glyph-name="uni04C1" unicode="Ӂ" horiz-adv-x="966" d="M57 660h101l277-306L130 0H30l305 354zM444 0v660h78V0h-78zm187 354L935 0h-99L531 354l277 306h101zM331 885l.001 25h65v-26c0-31.333 7.5-55.833 22.5-73.5s36.167-26.5 63.5-26.5 48.666 8.667 63.999 26 23 42 23 74v26h65v-25c0-48-13.833-86.5-41.5-115.5S528 726 482 726c-45.333 0-81.833 14.5-109.5 43.5S331 837 331 885z"/><glyph glyph-name="uni04C2" unicode="ӂ" horiz-adv-x="772" d="M39 487h96l201-223L114 0H20l223 264zM346 0v487h77V0h-77zm181 266L751 0h-96L433 264l201 223h95zM234 731v31h65v-29c0-32.667 7.5-57.834 22.5-75.501s36.167-26.5 63.5-26.5c28 0 49.5 8.833 64.5 26.5S472 700.333 472 733v29h65v-31c0-47.333-13.833-85.5-41.5-114.5S431 573 385 573c-45.333 0-81.833 14.5-109.5 43.5S234 683.667 234 731z"/><glyph glyph-name="uni04CF" unicode="ӏ" horiz-adv-x="246" d="M85 0v750h77V0H85z"/><glyph glyph-name="uni04D0" unicode="Ӑ" horiz-adv-x="663" d="m549 0-56 134H169L113 0H31l286 671h29L632 0h-83zm-86 204L331 529 199 204h264zM180 885l.001 25h65v-26c0-31.333 7.5-55.833 22.5-73.5s36.167-26.5 63.5-26.5 48.666 8.667 63.999 26 23 42 23 74v26h65v-25c0-48-13.833-86.5-41.5-115.5S377 726 331 726c-45.333 0-81.833 14.5-109.5 43.5S180 837 180 885z"/><glyph glyph-name="uni04D1" unicode="ӑ" horiz-adv-x="528" d="M450 300V0h-72v63c-37.333-49.333-92-74-164-74-50.667 0-91.667 12.5-123 37.5S44 84.667 44 126s16 74.333 48 99 74.333 37 127 37h154v42c0 39.333-10.5 69.666-31.5 90.999s-49.833 32-86.5 32c-54.667 0-102-26-142-78l-51 42c43.333 71.333 109.333 107 198 107 58.667 0 105-17.167 139-51.5S450 363.333 450 300zm-77-113v12H228c-70 0-105-23-105-69 0-24 9.5-42.833 28.5-56.5S194.667 53 224 53c40.667 0 75.667 13 105 39s44 57.667 44 95zM107 731v31h65v-29c0-32.667 7.5-57.834 22.5-75.501s36.167-26.5 63.5-26.5c28 0 49.5 8.833 64.5 26.5S345 700.333 345 733v29h65v-31c0-47.333-13.833-85.5-41.5-114.5S304 573 258 573c-45.333 0-81.833 14.5-109.5 43.5S107 683.667 107 731z"/><glyph glyph-name="uni04D4" unicode="Ӕ" horiz-adv-x="821" d="M535 70h246V0H467l-23 134H168L97 0H13l344 660h412v-70H447l34-202h208v-70H493zM377 541 205 204h227z"/></font>
</defs>
</svg>
