<svg aria-hidden="true" style="width:0;height:0;position:absolute;overflow:hidden" xmlns="http://www.w3.org/2000/svg"><defs><symbol id="icon-arrow-down" viewBox="0 0 32 32"><path d="M15.901 2.228H15.9a.97.97 0 0 0-.97.97V26.118l-6.109-6.116a.973.973 0 0 0-1.376 1.376l7.767 7.772a.966.966 0 0 0 1.375 0l7.767-7.773a.974.974 0 0 0-1.376-1.376l.001-.001-6.109 6.116V3.198a.973.973 0 0 0-.971-.972z"/></symbol><symbol id="icon-burger-menu" viewBox="0 0 32 32"><path d="M32 9a1 1 0 0 1-1 1H1a1 1 0 0 1 0-2h30a1 1 0 0 1 1 1zm0 16a1 1 0 0 1-1 1H1a1 1 0 0 1 0-2h30a1 1 0 0 1 1 1zm0-8.008a.992.992 0 0 1-.992.992H.992a.992.992 0 1 1 0-1.984h30.016c.548 0 .992.444.992.992z"/></symbol><symbol id="icon-downloading" viewBox="0 0 32 32"><path stroke-linejoin="round" stroke-linecap="round" stroke-width=".727" d="M16 5.333V8.38m7.619.001-2.286 2.286M8.381 8.381l2.286 2.286m5.333 16V23.62m7.619-.001-2.286-2.286M8.381 23.619l2.286-2.286M5.333 16H8.38m15.239 0h3.047"/></symbol><symbol id="icon-form-arrow" viewBox="0 0 32 32"><path d="M16.848 24.372a1.997 1.997 0 0 1-2.959.002l-.001-.002L.68 9.846C-.49 8.56.422 6.5 2.16 6.5h26.42c1.738 0 2.65 2.06 1.48 3.346L16.85 24.372z"/></symbol><symbol id="icon-header-arrow" viewBox="0 0 32 32"><path d="m16 11.2 13.856 9.6H2.144L16 11.2z"/></symbol><symbol id="icon-header-close" viewBox="0 0 32 32"><path d="m18.613 15.912 12.96-12.96A1.777 1.777 0 0 0 29.064.447l.002-.002-12.96 12.96L3.146.426A1.777 1.777 0 0 0 .641 2.935l-.002-.002 12.96 12.977L.62 28.87a1.78 1.78 0 1 0 2.505 2.51l.002-.003 12.977-12.96 12.96 12.96a1.777 1.777 0 0 0 2.505-2.509l.002.002-12.96-12.96z"/></symbol><symbol id="icon-paper-clip" viewBox="0 0 32 32"><path d="M6.277 28.8c-1.284 0-2.424-.448-3.42-1.341-1.053-.947-1.581-2.095-1.581-3.446s.527-2.499 1.581-3.444L19.382 4.826a5.984 5.984 0 0 1 2.877-1.491l.039-.007a6.564 6.564 0 0 1 1.321-.131c.724 0 1.422.114 2.075.326l-.048-.013c1.13.344 2.175.937 3.132 1.78.307.293.589.614.847.968.26.353.47.723.632 1.11.318.743.503 1.608.503 2.516-.038 1.824-.728 3.346-2.068 4.567L16.19 26.374a.902.902 0 0 1-.631.271h-.001l-.05.001a.91.91 0 0 1-.598-.223l.001.001a.776.776 0 0 1-.287-.579v-.001l-.001-.04a.78.78 0 0 1 .244-.567l12.502-11.923c1.015-.929 1.532-2.081 1.551-3.457.019-1.377-.468-2.504-1.466-3.382A6.456 6.456 0 0 0 25.457 5.2l-.043-.015a4.821 4.821 0 0 0-1.762-.326c-.23 0-.456.016-.678.046L23 4.902a4.104 4.104 0 0 0-2.302 1.06l.003-.003L4.176 21.702c-.708.636-1.062 1.402-1.062 2.296s.355 1.66 1.062 2.296c.326.293.681.512 1.064.658a2.72 2.72 0 0 0 1.207.168c.844-.033 1.629-.387 2.356-1.057l13.133-12.541c.202-.182.381-.38.539-.596l.008-.011c.177-.238.3-.527.344-.841l.001-.01a.777.777 0 0 0-.089-.456l.002.004a1.49 1.49 0 0 0-.344-.438l-.002-.002c-.364-.344-.717-.499-1.062-.465-.364.035-.776.25-1.235.645l-9.887 9.445a.992.992 0 0 1-.882.23l.007.001a.882.882 0 0 1-.418-.206l.001.001a.705.705 0 0 1-.287-.568v-.001c0-.224.086-.422.259-.594l9.885-9.472c.786-.687 1.581-1.066 2.386-1.134.919-.069 1.763.241 2.528.928.728.637 1.05 1.385.963 2.245-.086.861-.55 1.669-1.394 2.427L10.126 27.221c-1.073.964-2.271 1.48-3.592 1.549a.733.733 0 0 0-.134.014l.005-.001a.731.731 0 0 1-.129.013z"/></symbol><symbol id="icon-tel" viewBox="0 0 32 32"><path d="m25.639 20.347-3.385-.389a2.647 2.647 0 0 0-2.188.761l-2.453 2.453c-3.802-1.962-6.824-4.984-8.734-8.674l-.053-.112 2.464-2.466a2.654 2.654 0 0 0 .759-2.187l-.386-3.36a2.671 2.671 0 0 0-2.65-2.359H6.703c-1.506 0-2.759 1.253-2.665 2.759.739 11.392 9.795 20.449 21.119 21.185l.067.003c1.506.091 2.759-1.161 2.759-2.667v-2.321a2.644 2.644 0 0 0-2.335-2.625l-.012-.001z"/></symbol></defs><symbol id="icon-slider-arrow" viewBox="0 0 18 32"><path d="M18.4 2.144 4.313 16 18.4 29.856 16.224 32 0 15.992 16.224 0 18.4 2.144z"/></symbol><symbol id="icon-test" viewBox="0 0 107 32"><path d="m53.333 0 46.188 32H7.145L53.333 0z"/></symbol></svg>