<svg aria-hidden="true" style="position: absolute; width: 0; height: 0; overflow: hidden;" version="1.1" xmlns="http://www.w3.org/2000/svg" xmlns:xlink="http://www.w3.org/1999/xlink">
<defs>
<symbol id="icon-arrow-down" viewBox="0 0 32 32">
<path d="M15.901 2.228c-0 0-0.001 0-0.001 0-0.536 0-0.97 0.434-0.97 0.97 0 0.001 0 0.001 0 0.002v-0 22.918l-6.109-6.116c-0.176-0.176-0.419-0.285-0.688-0.285-0.537 0-0.973 0.436-0.973 0.973 0 0.269 0.109 0.512 0.285 0.688v0l7.767 7.772c0.176 0.177 0.419 0.286 0.688 0.286s0.512-0.109 0.687-0.286l7.767-7.773c0.159-0.173 0.256-0.404 0.256-0.658 0-0.538-0.436-0.974-0.974-0.974-0.254 0-0.485 0.097-0.658 0.256l0.001-0.001-6.109 6.116v-22.918c-0.001-0.536-0.435-0.971-0.971-0.972h-0z"></path>
</symbol>
<symbol id="icon-burger-menu" viewBox="0 0 32 32">
<path d="M32 9c0 0.552-0.448 1-1 1v0h-30c-0.552 0-1-0.448-1-1s0.448-1 1-1v0h30c0.552 0 1 0.448 1 1v0zM32 25c0 0.552-0.448 1-1 1v0h-30c-0.552 0-1-0.448-1-1s0.448-1 1-1v0h30c0.552 0 1 0.448 1 1v0zM32 16.992c0 0.548-0.444 0.992-0.992 0.992v0h-30.016c-0.548 0-0.992-0.444-0.992-0.992s0.444-0.992 0.992-0.992v0h30.016c0.548 0 0.992 0.444 0.992 0.992z"></path>
</symbol>
<symbol id="icon-downloading" viewBox="0 0 32 32">
<path stroke-linejoin="round" stroke-linecap="round" stroke-miterlimit="4" stroke-width="0.7273" d="M16 5.333v3.047M23.619 8.381l-2.286 2.286M8.381 8.381l2.286 2.286M16 26.667v-3.047M23.619 23.619l-2.286-2.286M8.381 23.619l2.286-2.286M5.333 16h3.047M23.619 16h3.047"></path>
</symbol>
<symbol id="icon-form-arrow" viewBox="0 0 32 32">
<path d="M16.848 24.372c-0.367 0.403-0.894 0.655-1.48 0.655s-1.113-0.252-1.479-0.653l-0.001-0.002-13.208-14.526c-1.17-1.286-0.258-3.346 1.48-3.346h26.42c1.738 0 2.65 2.060 1.48 3.346l-13.21 14.526z"></path>
</symbol>
<symbol id="icon-header-arrow" viewBox="0 0 32 32">
<path d="M16 11.2l13.856 9.6h-27.712l13.856-9.6z"></path>
</symbol>
<symbol id="icon-header-close" viewBox="0 0 32 32">
<path d="M18.613 15.912l12.96-12.96c0.268-0.309 0.431-0.716 0.431-1.161 0-0.982-0.796-1.777-1.777-1.777-0.445 0-0.851 0.163-1.163 0.433l0.002-0.002-12.96 12.96-12.96-12.979c-0.309-0.268-0.716-0.431-1.161-0.431-0.982 0-1.777 0.796-1.777 1.777 0 0.445 0.163 0.851 0.433 1.163l-0.002-0.002 12.96 12.977-12.979 12.96c-0.394 0.329-0.642 0.82-0.642 1.369 0 0.983 0.797 1.78 1.78 1.78 0.549 0 1.040-0.249 1.367-0.639l0.002-0.003 12.977-12.96 12.96 12.96c0.309 0.268 0.716 0.431 1.161 0.431 0.982 0 1.777-0.796 1.777-1.777 0-0.445-0.163-0.851-0.433-1.163l0.002 0.002-12.96-12.96z"></path>
</symbol>
<symbol id="icon-paper-clip" viewBox="0 0 32 32">
<path d="M6.277 28.8c-1.284 0-2.424-0.448-3.42-1.341-1.053-0.947-1.581-2.095-1.581-3.446s0.527-2.499 1.581-3.444l16.525-15.743c0.787-0.736 1.777-1.264 2.877-1.491l0.039-0.007c0.397-0.083 0.853-0.131 1.321-0.131 0.724 0 1.422 0.114 2.075 0.326l-0.048-0.013c1.13 0.344 2.175 0.937 3.132 1.78 0.307 0.293 0.589 0.614 0.847 0.968 0.26 0.353 0.47 0.723 0.632 1.11 0.318 0.743 0.503 1.608 0.503 2.516v0c-0.038 1.824-0.728 3.346-2.068 4.567l-12.502 11.923c-0.161 0.164-0.384 0.267-0.631 0.271h-0.001c-0.015 0.001-0.032 0.001-0.050 0.001-0.229 0-0.437-0.084-0.598-0.223l0.001 0.001c-0.17-0.139-0.28-0.346-0.287-0.579l-0-0.001c-0.001-0.012-0.001-0.026-0.001-0.040 0-0.223 0.094-0.425 0.244-0.567l0-0 12.502-11.923c1.015-0.929 1.532-2.081 1.551-3.457 0.019-1.377-0.468-2.504-1.466-3.382-0.574-0.538-1.251-0.974-1.997-1.275l-0.043-0.015c-0.523-0.207-1.128-0.326-1.762-0.326-0.23 0-0.456 0.016-0.678 0.046l0.026-0.003c-0.895 0.109-1.686 0.491-2.302 1.060l0.003-0.003-16.525 15.743c-0.708 0.636-1.062 1.402-1.062 2.296s0.355 1.66 1.062 2.296c0.326 0.293 0.681 0.512 1.064 0.658 0.384 0.147 0.786 0.202 1.207 0.168 0.844-0.033 1.629-0.387 2.356-1.057l13.133-12.541c0.202-0.182 0.381-0.38 0.539-0.596l0.008-0.011c0.177-0.238 0.3-0.527 0.344-0.841l0.001-0.010c0.003-0.026 0.005-0.055 0.005-0.085 0-0.134-0.034-0.26-0.094-0.371l0.002 0.004c-0.090-0.172-0.205-0.317-0.344-0.438l-0.002-0.002c-0.364-0.344-0.717-0.499-1.062-0.465-0.364 0.035-0.776 0.25-1.235 0.645l-9.887 9.445c-0.176 0.158-0.409 0.254-0.665 0.254-0.075 0-0.147-0.008-0.217-0.024l0.007 0.001c-0.162-0.032-0.303-0.104-0.418-0.206l0.001 0.001c-0.175-0.13-0.287-0.336-0.287-0.568 0-0 0-0 0-0.001v0c0-0.224 0.086-0.422 0.259-0.594l9.885-9.472c0.786-0.687 1.581-1.066 2.386-1.134 0.919-0.069 1.763 0.241 2.528 0.928 0.728 0.637 1.050 1.385 0.963 2.245-0.086 0.861-0.55 1.669-1.394 2.427l-13.133 12.567c-1.073 0.964-2.271 1.48-3.592 1.549-0.046 0.001-0.091 0.005-0.134 0.014l0.005-0.001c-0.039 0.008-0.083 0.012-0.129 0.013h-0z"></path>
</symbol>
<symbol id="icon-tel" viewBox="0 0 32 32">
<path d="M25.639 20.347l-3.385-0.389c-0.093-0.012-0.201-0.018-0.31-0.018-0.734 0-1.397 0.298-1.878 0.779l-2.453 2.453c-3.802-1.962-6.824-4.984-8.734-8.674l-0.053-0.112 2.464-2.466c0.571-0.571 0.853-1.371 0.759-2.187l-0.386-3.36c-0.16-1.334-1.285-2.359-2.65-2.359-0.001 0-0.001 0-0.002 0h-2.308c-1.506 0-2.759 1.253-2.665 2.759 0.739 11.392 9.795 20.449 21.119 21.185l0.067 0.003c1.506 0.091 2.759-1.161 2.759-2.667v-2.309c0-0.004 0-0.008 0-0.012 0-1.355-1.021-2.472-2.335-2.625l-0.012-0.001z"></path>
</symbol>
</defs>
<symbol id="icon-slider-arrow" viewBox="0 0 18 32">
<path d="M18.4 2.144l-14.087 13.856 14.087 13.856-2.176 2.144-16.224-16.008 16.224-15.992 2.176 2.144z"></path>
</symbol>


<symbol id="icon-header-arrow-2" viewBox="0 0 107 32">
<path d="M53.333 0l46.188 32h-92.376l46.188-32z"></path>
</symbol>

</svg>
